<?xml version="1.0" encoding="UTF-8" standalone="no"?>
<!-- Created with Inkscape (http://www.inkscape.org/) -->

<svg
   xmlns:dc="http://purl.org/dc/elements/1.1/"
   xmlns:cc="http://creativecommons.org/ns#"
   xmlns:rdf="http://www.w3.org/1999/02/22-rdf-syntax-ns#"
   xmlns:svg="http://www.w3.org/2000/svg"
   xmlns="http://www.w3.org/2000/svg"
   xmlns:xlink="http://www.w3.org/1999/xlink"
   xmlns:sodipodi="http://sodipodi.sourceforge.net/DTD/sodipodi-0.dtd"
   xmlns:inkscape="http://www.inkscape.org/namespaces/inkscape"
   width="400"
   height="40"
   viewBox="0 0 400 40.000001"
   id="svg13745"
   version="1.1"
   inkscape:version="0.91 r13725"
   sodipodi:docname="attachment.svg">
  <defs
     id="defs13747">
    <linearGradient
       id="linearGradient14334"
       inkscape:collect="always">
      <stop
         id="stop14336"
         offset="0"
         style="stop-color:#cccccc;stop-opacity:1" />
      <stop
         id="stop14338"
         offset="1"
         style="stop-color:#aa0000;stop-opacity:1" />
    </linearGradient>
    <linearGradient
       inkscape:collect="always"
       id="linearGradient14320">
      <stop
         style="stop-color:#cccccc;stop-opacity:1"
         offset="0"
         id="stop14322" />
      <stop
         style="stop-color:#666666;stop-opacity:1"
         offset="1"
         id="stop14324" />
    </linearGradient>
    <radialGradient
       inkscape:collect="always"
       xlink:href="#linearGradient14320"
       id="radialGradient14326"
       cx="47.677383"
       cy="1028.4539"
       fx="47.677383"
       fy="1028.4539"
       r="1.4789684"
       gradientUnits="userSpaceOnUse"
       gradientTransform="matrix(-0.31562964,-0.69951844,0.84192472,-0.37988475,-799.54832,1450.0659)" />
    <radialGradient
       inkscape:collect="always"
       xlink:href="#linearGradient14334"
       id="radialGradient14332"
       gradientUnits="userSpaceOnUse"
       gradientTransform="matrix(-0.31562964,-0.69951844,0.84192472,-0.37988475,-778.9227,1448.3071)"
       cx="47.677383"
       cy="1028.4539"
       fx="47.677383"
       fy="1028.4539"
       r="1.4789684" />
    <radialGradient
       inkscape:collect="always"
       xlink:href="#linearGradient14320"
       id="radialGradient14358"
       gradientUnits="userSpaceOnUse"
       gradientTransform="matrix(-0.31562964,-0.69951844,0.84192472,-0.37988475,-757.66207,1460.629)"
       cx="47.677383"
       cy="1028.4539"
       fx="47.677383"
       fy="1028.4539"
       r="1.4789684" />
    <radialGradient
       inkscape:collect="always"
       xlink:href="#linearGradient14334"
       id="radialGradient14360"
       gradientUnits="userSpaceOnUse"
       gradientTransform="matrix(-0.31562964,-0.69951844,0.84192472,-0.37988475,-738.55539,1464.3065)"
       cx="47.677383"
       cy="1028.4539"
       fx="47.677383"
       fy="1028.4539"
       r="1.4789684" />
  </defs>
  <sodipodi:namedview
     id="base"
     pagecolor="#ffffff"
     bordercolor="#666666"
     borderopacity="1.0"
     inkscape:pageopacity="0.0"
     inkscape:pageshadow="2"
     inkscape:zoom="6.2543595"
     inkscape:cx="73.106451"
     inkscape:cy="36.966888"
     inkscape:document-units="px"
     inkscape:current-layer="layer1"
     showgrid="true"
     units="px"
     inkscape:snap-grids="false"
     inkscape:window-width="1920"
     inkscape:window-height="1107"
     inkscape:window-x="0"
     inkscape:window-y="28"
     inkscape:window-maximized="1">
    <inkscape:grid
       type="xygrid"
       id="grid13753"
       spacingx="4"
       spacingy="4.0000001" />
  </sodipodi:namedview>
  <metadata
     id="metadata13750">
    <rdf:RDF>
      <cc:Work
         rdf:about="">
        <dc:format>image/svg+xml</dc:format>
        <dc:type
           rdf:resource="http://purl.org/dc/dcmitype/StillImage" />
        <dc:title></dc:title>
      </cc:Work>
    </rdf:RDF>
  </metadata>
  <g
     inkscape:label="Layer 1"
     inkscape:groupmode="layer"
     id="layer1"
     transform="translate(0,-1012.3622)">
    <path
       style="fill:#cccccc;fill-rule:evenodd;stroke:none;stroke-width:1px;stroke-linecap:butt;stroke-linejoin:miter;stroke-opacity:1"
       d="m 7.0732428,1047.3064 c 0.2404786,-8.1891 3.5757472,-22.8614 10.0536622,-31.9509 l 0.791284,2.1745 4.966575,-1.6576 2.219301,1.9677 2.329212,-1.5594 0.919761,1.8852 3.041615,-1.5295 1.894477,1.5669 3.98719,-1.0389 c -5.12558,7.7515 -10.50596,22.6135 -10.666479,32.4032 l -1.761091,0.3583 -0.571177,-2.4582 -1.688918,1.2921 -1.522483,-2.7022 -4.387334,1.8784 -3.032344,-2.1611 -2.151724,1.8518 -1.8148968,-1.46 z"
       id="path13755"
       inkscape:connector-curvature="0"
       sodipodi:nodetypes="cccccccccccccccccccc" />
    <path
       style="fill:#666666;fill-rule:evenodd;stroke:none;stroke-width:1px;stroke-linecap:butt;stroke-linejoin:miter;stroke-opacity:1"
       d="m 51.404144,1027.1798 -2.558216,11.2721 -0.799442,5.8359 1.438996,-5.5561 2.478271,-11.2321 z"
       id="path13776"
       inkscape:connector-curvature="0"
       sodipodi:nodetypes="cccccc" />
    <path
       style="opacity:1;fill:url(#radialGradient14326);fill-opacity:1;stroke:none;stroke-width:1;stroke-linejoin:round;stroke-miterlimit:4;stroke-dasharray:none;stroke-dashoffset:0;stroke-opacity:1"
       id="path13778"
       sodipodi:type="arc"
       sodipodi:cx="51.883816"
       sodipodi:cy="1026.6602"
       sodipodi:rx="1.4789684"
       sodipodi:ry="1.4789684"
       sodipodi:start="0"
       sodipodi:end="6.2749299"
       sodipodi:open="true"
       d="m 53.362784,1026.6602 a 1.4789684,1.4789684 0 0 1 -1.475916,1.4789 1.4789684,1.4789684 0 0 1 -1.482008,-1.4728 1.4789684,1.4789684 0 0 1 1.469799,-1.4851 1.4789684,1.4789684 0 0 1 1.488075,1.4667" />
    <path
       sodipodi:nodetypes="cccccc"
       inkscape:connector-curvature="0"
       id="path14328"
       d="m 72.029758,1025.421 -1.518941,7.3149 -1.838717,9.7931 2.358354,-9.6732 1.558913,-7.115 z"
       style="fill:#666666;fill-rule:evenodd;stroke:none;stroke-width:1px;stroke-linecap:butt;stroke-linejoin:miter;stroke-opacity:1" />
    <path
       d="m 73.988398,1024.9014 a 1.4789684,1.4789684 0 0 1 -1.475916,1.4789 1.4789684,1.4789684 0 0 1 -1.482008,-1.4728 1.4789684,1.4789684 0 0 1 1.469799,-1.4851 1.4789684,1.4789684 0 0 1 1.488075,1.4668"
       sodipodi:open="true"
       sodipodi:end="6.2749299"
       sodipodi:start="0"
       sodipodi:ry="1.4789684"
       sodipodi:rx="1.4789684"
       sodipodi:cy="1024.9014"
       sodipodi:cx="72.50943"
       sodipodi:type="arc"
       id="path14330"
       style="opacity:1;fill:url(#radialGradient14332);fill-opacity:1;stroke:none;stroke-width:1;stroke-linejoin:round;stroke-miterlimit:4;stroke-dasharray:none;stroke-dashoffset:0;stroke-opacity:1" />
    <path
       style="opacity:0.6;fill:#ff5599;fill-rule:evenodd;stroke:#ff5599;stroke-width:1px;stroke-linecap:butt;stroke-linejoin:miter;stroke-opacity:1"
       d="m 126.39283,1032.3533 c -4.03118,-4.6051 12.25874,-11.4333 8.38947,-5.2862 -1.87189,2.9738 5.54697,2.3767 -0.50135,8.7797 -2.93061,3.1024 -0.8457,5.5424 -8.1209,3.6679 -5.12827,-1.3212 2.78639,-4.2443 0.23278,-7.1614 z"
       id="path14340"
       inkscape:connector-curvature="0"
       sodipodi:nodetypes="sssss" />
    <path
       style="opacity:0.6;fill:#ff5599;fill-rule:evenodd;stroke:#ff5599;stroke-width:1px;stroke-linecap:butt;stroke-linejoin:miter;stroke-opacity:1"
       d="m 127.6518,1035.5482 c -1.04751,3.1633 1.67992,5.1882 4.23379,0.7383 -1.24498,-1.3362 -2.51969,-2.4778 -4.23379,-0.7383 z"
       id="path14342"
       inkscape:connector-curvature="0"
       sodipodi:nodetypes="ccc" />
    <path
       sodipodi:nodetypes="ccc"
       inkscape:connector-curvature="0"
       id="path14344"
       d="m 128.66592,1031.1242 c 3.26031,0.6884 6.47686,-2.578 2.69949,-3.5099 -4.12471,2.0106 -4.23645,2.8532 -2.69949,3.5099 z"
       style="opacity:0.6;fill:#ff5599;fill-rule:evenodd;stroke:#ff5599;stroke-width:1px;stroke-linecap:butt;stroke-linejoin:miter;stroke-opacity:1" />
    <path
       sodipodi:nodetypes="ccc"
       inkscape:connector-curvature="0"
       id="path14346"
       d="m 128.65441,1030.5837 c -0.88314,4.9222 3.14562,8.4375 3.56946,1.1488 -1.04963,-2.0792 -2.12432,-3.8555 -3.56946,-1.1488 z"
       style="opacity:0.6;fill:#ff5599;fill-rule:evenodd;stroke:#ff5599;stroke-width:1.14537728px;stroke-linecap:butt;stroke-linejoin:miter;stroke-opacity:1" />
    <path
       style="opacity:0.6;fill:#ff5599;fill-rule:evenodd;stroke:#ff5599;stroke-width:1.14537728px;stroke-linecap:butt;stroke-linejoin:miter;stroke-opacity:1"
       d="m 130.57308,1030.9035 c -0.88315,4.9222 3.14562,8.4375 3.56945,1.1488 -1.04963,-2.0792 -2.12432,-3.8555 -3.56945,-1.1488 z"
       id="path14348"
       inkscape:connector-curvature="0"
       sodipodi:nodetypes="ccc" />
    <path
       sodipodi:nodetypes="cccccc"
       inkscape:connector-curvature="0"
       id="path14350"
       d="m 93.090523,1037.623 -2.358355,3.1234 -0.799442,1.555 1.139205,-1.0207 2.858006,-3.3127 z"
       style="fill:#666666;fill-rule:evenodd;stroke:none;stroke-width:1px;stroke-linecap:butt;stroke-linejoin:miter;stroke-opacity:1" />
    <path
       d="m 95.249026,1037.223 a 1.4789684,1.4789684 0 0 1 -1.475916,1.479 1.4789684,1.4789684 0 0 1 -1.482008,-1.4729 1.4789684,1.4789684 0 0 1 1.469799,-1.485 1.4789684,1.4789684 0 0 1 1.488075,1.4667"
       sodipodi:open="true"
       sodipodi:end="6.2749299"
       sodipodi:start="0"
       sodipodi:ry="1.4789684"
       sodipodi:rx="1.4789684"
       sodipodi:cy="1037.223"
       sodipodi:cx="93.770058"
       sodipodi:type="arc"
       id="path14352"
       style="opacity:1;fill:url(#radialGradient14358);fill-opacity:1;stroke:none;stroke-width:1;stroke-linejoin:round;stroke-miterlimit:4;stroke-dasharray:none;stroke-dashoffset:0;stroke-opacity:1" />
    <path
       style="fill:#666666;fill-rule:evenodd;stroke:none;stroke-width:1px;stroke-linecap:butt;stroke-linejoin:miter;stroke-opacity:1"
       d="m 112.23717,1041.0807 -1.35905,1.7905 -1.83872,2.3163 2.19847,-2.0301 1.7188,-1.6666 z"
       id="path14354"
       inkscape:connector-curvature="0"
       sodipodi:nodetypes="cccccc" />
    <path
       style="opacity:1;fill:url(#radialGradient14360);fill-opacity:1;stroke:none;stroke-width:1;stroke-linejoin:round;stroke-miterlimit:4;stroke-dasharray:none;stroke-dashoffset:0;stroke-opacity:1"
       id="path14356"
       sodipodi:type="arc"
       sodipodi:cx="112.87673"
       sodipodi:cy="1040.9005"
       sodipodi:rx="1.4789684"
       sodipodi:ry="1.4789684"
       sodipodi:start="0"
       sodipodi:end="6.2749299"
       sodipodi:open="true"
       d="m 114.3557,1040.9005 a 1.4789684,1.4789684 0 0 1 -1.47592,1.479 1.4789684,1.4789684 0 0 1 -1.482,-1.4729 1.4789684,1.4789684 0 0 1 1.46979,-1.485 1.4789684,1.4789684 0 0 1 1.48808,1.4667" />
    <path
       style="opacity:1;fill:#b3b3b3;fill-opacity:1;stroke:none;stroke-width:1;stroke-linejoin:round;stroke-miterlimit:4;stroke-dasharray:none;stroke-dashoffset:0;stroke-opacity:1"
       id="path14364"
       sodipodi:type="arc"
       sodipodi:cx="150.05534"
       sodipodi:cy="1041.1699"
       sodipodi:rx="4.0771561"
       sodipodi:ry="4.0771561"
       sodipodi:start="0"
       sodipodi:end="6.2749299"
       sodipodi:open="true"
       d="m 154.1325,1041.1699 a 4.0771561,4.0771561 0 0 1 -4.06874,4.0772 4.0771561,4.0771561 0 0 1 -4.08554,-4.0603 4.0771561,4.0771561 0 0 1 4.05188,-4.094 4.0771561,4.0771561 0 0 1 4.10226,4.0435" />
    <path
       style="opacity:1;fill:none;fill-rule:evenodd;stroke:#666666;stroke-width:1px;stroke-linecap:butt;stroke-linejoin:miter;stroke-opacity:1"
       d="m 146.05812,1041.17 8.07437,0.1599"
       id="path14366"
       inkscape:connector-curvature="0"
       sodipodi:nodetypes="cc" />
    <path
       d="m 174.83805,1042.5289 a 4.0771561,4.0771561 0 0 1 -4.06874,4.0772 4.0771561,4.0771561 0 0 1 -4.08554,-4.0603 4.0771561,4.0771561 0 0 1 4.05188,-4.0939 4.0771561,4.0771561 0 0 1 4.10226,4.0434"
       sodipodi:open="true"
       sodipodi:end="6.2749299"
       sodipodi:start="0"
       sodipodi:ry="4.0771561"
       sodipodi:rx="4.0771561"
       sodipodi:cy="1042.5289"
       sodipodi:cx="170.76089"
       sodipodi:type="arc"
       id="path14368"
       style="opacity:1;fill:#b3b3b3;fill-opacity:1;stroke:none;stroke-width:1;stroke-linejoin:round;stroke-miterlimit:4;stroke-dasharray:none;stroke-dashoffset:0;stroke-opacity:1" />
    <path
       sodipodi:nodetypes="cc"
       inkscape:connector-curvature="0"
       id="path14370"
       d="m 167.72301,1042.609 5.91588,10e-5"
       style="opacity:1;fill:none;fill-rule:evenodd;stroke:#666666;stroke-width:1px;stroke-linecap:butt;stroke-linejoin:miter;stroke-opacity:1" />
    <path
       style="opacity:1;fill:none;fill-rule:evenodd;stroke:#666666;stroke-width:1px;stroke-linecap:butt;stroke-linejoin:miter;stroke-opacity:1"
       d="m 170.72953,1039.6515 -0.0972,5.9151"
       id="path14372"
       inkscape:connector-curvature="0"
       sodipodi:nodetypes="cc" />
  </g>
</svg>
