<?xml version="1.0" encoding="UTF-8" standalone="no"?>
<!-- Created with Inkscape (http://www.inkscape.org/) -->
<svg xmlns:osb="http://www.openswatchbook.org/uri/2009/osb" xmlns:dc="http://purl.org/dc/elements/1.1/" xmlns:cc="http://creativecommons.org/ns#" xmlns:rdf="http://www.w3.org/1999/02/22-rdf-syntax-ns#" xmlns:svg="http://www.w3.org/2000/svg" xmlns="http://www.w3.org/2000/svg" xmlns:sodipodi="http://sodipodi.sourceforge.net/DTD/sodipodi-0.dtd" xmlns:inkscape="http://www.inkscape.org/namespaces/inkscape" width="619.25" height="620.5" viewBox="0 0 619.25001 620.49998" id="svg2" version="1.1" inkscape:version="0.91 r13725" sodipodi:docname="adblock.svg">
  <defs id="defs4">
    <linearGradient id="linearGradient6008" osb:paint="solid">
      <stop style="stop-color:#ffffff;stop-opacity:1;" offset="0" id="stop6010"/>
    </linearGradient>
  </defs>
  <sodipodi:namedview id="base" pagecolor="#ffffff" bordercolor="#666666" borderopacity="1.0" inkscape:pageopacity="0.0" inkscape:pageshadow="2" inkscape:zoom="0.49497475" inkscape:cx="119.46034" inkscape:cy="376.94507" inkscape:document-units="px" inkscape:current-layer="layer1" showgrid="false" units="px" inkscape:window-width="1366" inkscape:window-height="719" inkscape:window-x="0" inkscape:window-y="25" inkscape:window-maximized="1"/>
  <metadata id="metadata7">
    <rdf:RDF>
      <cc:Work rdf:about="">
        <dc:format>image/svg+xml</dc:format>
        <dc:type rdf:resource="http://purl.org/dc/dcmitype/StillImage"/>
        <dc:title/>
      </cc:Work>
    </rdf:RDF>
  </metadata>
  <g inkscape:label="Layer 1" inkscape:groupmode="layer" id="layer1" transform="translate(0,-431.86229)">
    <rect style="opacity:1;fill:#ffffff;fill-opacity:1;fill-rule:nonzero;stroke:none;stroke-width:0;stroke-linecap:butt;stroke-linejoin:miter;stroke-miterlimit:4;stroke-dasharray:none;stroke-dashoffset:0;stroke-opacity:1" id="rect6016" width="525.2793" height="226.27417" x="44.44672" y="628.09821"/>
    <path style="fill:#ffffff;fill-opacity:1;stroke:#dadbdb;stroke-width:3;stroke-miterlimit:4;stroke-dasharray:none;stroke-opacity:1" d="M 91.80927,960.54649 1.5,870.23083 l 0,-128.12502 0,-128.12502 90.31571,-90.30927 90.31574,-90.30927 127.5,0 127.5,0 90.3093,90.31571 90.3093,90.31572 0,128.12501 0,128.12502 -90.3158,90.30928 -90.3157,90.30931 -127.5,0 -127.5,0 -90.30928,-90.31581 z m 416.24968,-20.6182 82.1911,-82.18394 0,-115.6321 0,-115.6321 -82.1911,-82.18395 -82.191,-82.18395 -115.6413,0 -115.6413,0 -82.16502,82.1875 -82.16504,82.1875 -0.003,115.62147 -0.003,115.62148 82.18395,82.19099 82.18391,82.19111 115.6251,0 115.625,0 82.191,-82.18401 z" id="path4287" inkscape:connector-curvature="0"/>
    <path style="fill:#e00000;fill-opacity:1;stroke:#cb0000;stroke-width:3.00381231;stroke-miterlimit:4;stroke-dasharray:none;stroke-opacity:1" d="m 111.93691,940.5043 -81.766866,-81.5655 0,-116.87423 0,-116.87423 81.774016,-81.55837 81.77404,-81.55836 115.91274,0 115.91274,0 82.40059,82.18339 82.40061,82.18339 0,115.63131 0,115.63131 -82.40061,82.18339 -82.40059,82.1834 -115.91989,0 -115.91989,0 -81.76689,-81.5655 z m 231.41527,-94.19312 c 31.2184,-6.72118 48.91766,-26.18401 51.10118,-56.19297 1.47603,-20.2856 -4.53596,-37.72105 -16.16952,-46.89339 -5.57595,-4.3963 -17.60454,-9.90306 -21.63156,-9.90306 -3.28534,0 -3.15866,-2.22929 0.17411,-3.06362 10.02934,-2.51078 21.35859,-14.96117 25.48352,-28.00535 3.07557,-9.7258 3.39897,-27.99818 0.65848,-37.20292 -2.6565,-8.92257 -10.24445,-19.09957 -18.22908,-24.44895 -14.38913,-9.64013 -31.54256,-12.16924 -82.99192,-12.23635 l -32.26957,-0.0421 -8.5e-4,110.31175 -8.4e-4,110.31175 42.29592,-0.31798 c 33.10917,-0.24889 44.31245,-0.75211 51.58013,-2.31681 z m -50.01281,-64.7501 0,-28.23946 16.69059,0 c 18.67754,0 27.14706,1.78771 33.42249,7.05467 6.01224,5.04606 7.93749,9.9062 7.9448,20.05594 0.009,13.00977 -3.65767,19.71157 -13.54837,24.76065 -7.03182,3.58966 -8.16287,3.77199 -25.93101,4.18051 l -18.5785,0.42714 0,-28.23945 z m 0,-88.86115 0,-24.62302 16.60474,0.44241 c 18.38579,0.48988 24.15596,2.26952 29.05574,8.96138 3.94273,5.3848 3.73341,22.12742 -0.35871,28.6926 -4.98478,7.9973 -10.80593,10.11558 -29.32363,10.67066 l -15.97814,0.47897 0,-24.623 z M 100.82955,827.38362 c 2.58574,-11.51554 5.24884,-23.04671 5.91801,-25.62483 l 1.21669,-4.68746 28.67214,0 28.67213,0 2.73593,12.18741 c 1.50475,6.70309 4.136,18.23426 5.84721,25.62483 l 3.11128,13.43741 23.21304,0 c 18.02033,0 23.09338,-0.34953 22.67805,-1.56249 -0.29425,-0.85937 -13.71779,-50.07778 -29.8301,-109.37426 l -29.29508,-107.81176 -26.40157,0 -26.40155,0 -3.41589,12.81241 c -4.81081,18.04457 -54.724043,201.09264 -55.557814,203.74861 -0.636409,2.02732 0.954378,2.18749 21.724745,2.18749 l 22.411452,0 4.701327,-20.93736 z m 16.30225,-72.49951 c 1.79347,-5.93741 8.91849,-37.52376 13.74577,-60.93708 3.2401,-15.71519 5.72557,-25.24652 6.19319,-23.74984 0.42959,1.37499 3.04842,13.18741 5.81961,26.24982 2.7712,13.06241 6.94926,32.04666 9.2846,42.18721 l 4.24606,18.43738 -19.97499,0 c -18.44005,0 -19.92421,-0.16809 -19.31424,-2.18749 z m 350.40062,56.56212 0,-36.87475 17.43438,0 c 21.16249,0 33.79869,-2.21526 46.23265,-8.10506 17.52232,-8.30009 31.23979,-26.21895 35.42089,-46.26957 2.24938,-10.78699 1.95023,-33.29929 -0.57304,-43.12471 -6.38466,-24.86122 -22.81682,-40.23796 -48.64785,-45.52326 -7.67853,-1.57112 -18.2794,-1.97641 -51.69398,-1.97641 l -42.03461,0 0,109.37425 0,109.37426 21.93078,0 21.93078,0 0,-36.87475 z m 0,-109.37426 0,-32.49978 16.69057,0 c 19.8198,0 27.70346,1.86445 33.86321,8.00848 5.56607,5.55187 7.55182,13.10998 6.84067,26.03665 -1.28898,23.42992 -11.48804,30.95443 -41.95707,30.95443 l -15.43738,0 0,-32.49978 z" id="path4220" inkscape:connector-curvature="0"/>
  </g>
</svg>