<?xml version="1.0" encoding="UTF-8" standalone="no"?>
<svg xmlns:dc="http://purl.org/dc/elements/1.1/" xmlns:cc="http://web.resource.org/cc/" xmlns:rdf="http://www.w3.org/1999/02/22-rdf-syntax-ns#" xmlns:svg="http://www.w3.org/2000/svg" xmlns="http://www.w3.org/2000/svg" xmlns:xlink="http://www.w3.org/1999/xlink" xmlns:sodipodi="http://sodipodi.sourceforge.net/DTD/sodipodi-0.dtd" xmlns:inkscape="http://www.inkscape.org/namespaces/inkscape" version="1.0" width="508" height="516" viewBox="0 0 600 550" id="eye" sodipodi:version="0.32" inkscape:version="0.44" sodipodi:docname="Schematic_diagram_of_the_human_eye_en.svg" sodipodi:docbase="C:\Data\Jakob">
  <metadata id="metadata">
    <rdf:RDF>
      <cc:Work rdf:about="">
        <dc:format>image/svg+xml</dc:format>
        <dc:type rdf:resource="http://purl.org/dc/dcmitype/StillImage"/>
      </cc:Work>
    </rdf:RDF>
  </metadata>
  <sodipodi:namedview inkscape:window-height="712" inkscape:window-width="1024" inkscape:pageshadow="2" inkscape:pageopacity="0.0" guidetolerance="10.0" gridtolerance="10.0" objecttolerance="10.0" borderopacity="1.0" bordercolor="#666666" pagecolor="#ffffff" id="base" inkscape:zoom="3.8637509" inkscape:cx="426.56117" inkscape:cy="350.1191" inkscape:window-x="-4" inkscape:window-y="-4" inkscape:current-layer="Labeling" height="516px" width="491px"/>
  <defs id="defs">
    <linearGradient id="linearGradient10092">
      <stop style="stop-color:#2b2b2b;stop-opacity:1;" offset="0" id="stop10094"/>
      <stop id="stop10100" offset="0.5" style="stop-color:#6d6662;stop-opacity:1;"/>
      <stop style="stop-color:#e4e4e4;stop-opacity:1;" offset="1" id="stop10096"/>
    </linearGradient>
    <linearGradient id="linearGradient10065">
      <stop style="stop-color:#a05a2c;stop-opacity:1;" offset="0" id="stop10067"/>
      <stop id="stop10073" offset="0" style="stop-color:#784321;stop-opacity:1;"/>
      <stop style="stop-color:#cb743b;stop-opacity:1;" offset="0.75" id="stop10075"/>
      <stop style="stop-color:#cc4343;stop-opacity:1;" offset="1" id="stop10069"/>
    </linearGradient>
    <linearGradient id="linearGradient10053">
      <stop style="stop-color:#97b5c5;stop-opacity:1;" offset="0" id="stop10055"/>
      <stop id="stop10061" offset="0.5" style="stop-color:#70a0ba;stop-opacity:1;"/>
      <stop style="stop-color:#528baa;stop-opacity:1;" offset="0.75" id="stop10063"/>
      <stop style="stop-color:white;stop-opacity:1;" offset="1" id="stop10057"/>
    </linearGradient>
    <linearGradient id="linearGradient10045">
      <stop style="stop-color:#b3b3b3;stop-opacity:1;" offset="0" id="stop10047"/>
      <stop style="stop-color:white;stop-opacity:0;" offset="1" id="stop10049"/>
    </linearGradient>
    <style type="text/css" id="style">
      a {
  	fill: #005;
	font-size: 20px;
      }
      .arrow
      {
		fill:none;fill-opacity:0.75;stroke:black;stroke-width:1px;stroke-linecap:butt;stroke-linejoin:miter
      }
  </style>
    <radialGradient inkscape:collect="always" xlink:href="#linearGradient10053" id="radialGradient10059" cx="344.22128" cy="131.70818" fx="344.22128" fy="131.70818" r="51.013924" gradientTransform="matrix(1,-1.073693e-7,6.721501e-8,0.626016,-9.448829,43.98032)" gradientUnits="userSpaceOnUse"/>
    <radialGradient inkscape:collect="always" xlink:href="#linearGradient10065" id="radialGradient10071" cx="344.46057" cy="118.4658" fx="344.46057" fy="118.4658" r="90.398148" gradientTransform="matrix(0.758564,5.787908e-7,-1.830218e-7,0.248316,73.71656,81.96214)" gradientUnits="userSpaceOnUse"/>
    <radialGradient gradientTransform="matrix(-1.176927,1.06421,-0.875392,-0.968111,28.56963,-84.33452)" gradientUnits="userSpaceOnUse" r="51.5" fy="-31.994848" fx="28.970236" cy="-31.994848" cx="28.970236" id="radialGradient2041" xlink:href="#linearGradient2718" inkscape:collect="always"/>
    <style id="style2593" type="text/css">      a {
  	fill: #005;
	font-size: 20px;
      }
      .arrow
      {
		fill:none;fill-opacity:0.75;stroke:black;stroke-width:1px;stroke-linecap:butt;stroke-linejoin:miter
      }
	  .numbers circle {fill:white;stroke:black;stroke-width:3;fill:url(#radialGradient2041)}
      .numbers text {font-size:56px;font-style:normal;font-weight:normal;fill:black;fill-opacity:1;stroke:none;stroke-width:1px;stroke-linecap:butt;stroke-linejoin:miter;stroke-opacity:1;font-family:Georgia}
  </style>
    <radialGradient gradientTransform="matrix(-0.623447,0.927513,-2.274475,-1.528865,-32.43882,-85.73726)" gradientUnits="userSpaceOnUse" r="51.5" fy="-27.236534" fx="18.177361" cy="-27.236534" cx="18.177361" id="radialGradient2724" xlink:href="#linearGradient2718" inkscape:collect="always"/>
    <radialGradient gradientUnits="userSpaceOnUse" gradientTransform="matrix(0.758564,5.787908e-7,-1.830218e-7,0.248316,73.71656,81.96214)" r="90.398148" fy="118.4658" fx="344.46057" cy="118.4658" cx="344.46057" id="radialGradient2590" xlink:href="#linearGradient10065" inkscape:collect="always"/>
    <radialGradient gradientUnits="userSpaceOnUse" gradientTransform="matrix(1,-1.073693e-7,6.721501e-8,0.626016,-9.448829,43.98032)" r="51.013924" fy="131.70818" fx="344.22128" cy="131.70818" cx="344.22128" id="radialGradient2588" xlink:href="#linearGradient10053" inkscape:collect="always"/>
    <linearGradient id="linearGradient2578">
      <stop id="stop2580" offset="0" style="stop-color:#97b5c5;stop-opacity:1;"/>
      <stop style="stop-color:#70a0ba;stop-opacity:1;" offset="0.5" id="stop2582"/>
      <stop id="stop2584" offset="0.75" style="stop-color:#528baa;stop-opacity:1;"/>
      <stop id="stop2586" offset="1" style="stop-color:white;stop-opacity:1;"/>
    </linearGradient>
    <linearGradient id="linearGradient2568">
      <stop id="stop2570" offset="0" style="stop-color:#a05a2c;stop-opacity:1;"/>
      <stop style="stop-color:#784321;stop-opacity:1;" offset="0" id="stop2572"/>
      <stop id="stop2574" offset="0.75" style="stop-color:#cb743b;stop-opacity:1;"/>
      <stop id="stop2576" offset="1" style="stop-color:#cc4343;stop-opacity:1;"/>
    </linearGradient>
    <linearGradient id="linearGradient2718">
      <stop id="stop2720" offset="0" style="stop-color:white;stop-opacity:1;"/>
      <stop style="stop-color:#e2e2ff;stop-opacity:1;" offset="0.36000001" id="stop2726"/>
      <stop style="stop-color:white;stop-opacity:1;" offset="1" id="stop2045"/>
    </linearGradient>
    <radialGradient inkscape:collect="always" xlink:href="#linearGradient2718" id="radialGradient2820" gradientUnits="userSpaceOnUse" gradientTransform="matrix(-1.176927,1.06421,-0.875392,-0.968111,28.56963,-84.33452)" cx="28.970236" cy="-31.994848" fx="28.970236" fy="-31.994848" r="51.5"/>
    <radialGradient inkscape:collect="always" xlink:href="#linearGradient2718" id="radialGradient2822" gradientUnits="userSpaceOnUse" gradientTransform="matrix(-1.176927,1.06421,-0.875392,-0.968111,28.56963,-84.33452)" cx="28.970236" cy="-31.994848" fx="28.970236" fy="-31.994848" r="51.5"/>
    <radialGradient inkscape:collect="always" xlink:href="#linearGradient2718" id="radialGradient2824" gradientUnits="userSpaceOnUse" gradientTransform="matrix(-1.176927,1.06421,-0.875392,-0.968111,28.56963,-84.33452)" cx="28.970236" cy="-31.994848" fx="28.970236" fy="-31.994848" r="51.5"/>
    <radialGradient inkscape:collect="always" xlink:href="#linearGradient2718" id="radialGradient2826" gradientUnits="userSpaceOnUse" gradientTransform="matrix(-1.176927,1.06421,-0.875392,-0.968111,28.56963,-84.33452)" cx="28.970236" cy="-31.994848" fx="28.970236" fy="-31.994848" r="51.5"/>
    <radialGradient inkscape:collect="always" xlink:href="#linearGradient2718" id="radialGradient2828" gradientUnits="userSpaceOnUse" gradientTransform="matrix(-1.176927,1.06421,-0.875392,-0.968111,28.56963,-84.33452)" cx="28.970236" cy="-31.994848" fx="28.970236" fy="-31.994848" r="51.5"/>
    <radialGradient inkscape:collect="always" xlink:href="#linearGradient2718" id="radialGradient2830" gradientUnits="userSpaceOnUse" gradientTransform="matrix(-1.176927,1.06421,-0.875392,-0.968111,28.56963,-84.33452)" cx="28.970236" cy="-31.994848" fx="28.970236" fy="-31.994848" r="51.5"/>
    <radialGradient inkscape:collect="always" xlink:href="#linearGradient2718" id="radialGradient2832" gradientUnits="userSpaceOnUse" gradientTransform="matrix(-1.176927,1.06421,-0.875392,-0.968111,28.56963,-84.33452)" cx="28.970236" cy="-31.994848" fx="28.970236" fy="-31.994848" r="51.5"/>
    <radialGradient inkscape:collect="always" xlink:href="#linearGradient2718" id="radialGradient2834" gradientUnits="userSpaceOnUse" gradientTransform="matrix(-1.176927,1.06421,-0.875392,-0.968111,28.56963,-84.33452)" cx="28.970236" cy="-31.994848" fx="28.970236" fy="-31.994848" r="51.5"/>
    <radialGradient inkscape:collect="always" xlink:href="#linearGradient2718" id="radialGradient2836" gradientUnits="userSpaceOnUse" gradientTransform="matrix(-1.176927,1.06421,-0.875392,-0.968111,28.56963,-84.33452)" cx="28.970236" cy="-31.994848" fx="28.970236" fy="-31.994848" r="51.5"/>
    <radialGradient inkscape:collect="always" xlink:href="#linearGradient2718" id="radialGradient2838" gradientUnits="userSpaceOnUse" gradientTransform="matrix(-1.176927,1.06421,-0.875392,-0.968111,28.56963,-84.33452)" cx="28.970236" cy="-31.994848" fx="28.970236" fy="-31.994848" r="51.5"/>
    <radialGradient inkscape:collect="always" xlink:href="#linearGradient2718" id="radialGradient2840" gradientUnits="userSpaceOnUse" gradientTransform="matrix(-1.176927,1.06421,-0.875392,-0.968111,28.56963,-84.33452)" cx="28.970236" cy="-31.994848" fx="28.970236" fy="-31.994848" r="51.5"/>
    <radialGradient inkscape:collect="always" xlink:href="#linearGradient2718" id="radialGradient2842" gradientUnits="userSpaceOnUse" gradientTransform="matrix(-1.176927,1.06421,-0.875392,-0.968111,28.56963,-84.33452)" cx="28.970236" cy="-31.994848" fx="28.970236" fy="-31.994848" r="51.5"/>
    <radialGradient inkscape:collect="always" xlink:href="#linearGradient2718" id="radialGradient2844" gradientUnits="userSpaceOnUse" gradientTransform="matrix(-1.176927,1.06421,-0.875392,-0.968111,28.56963,-84.33452)" cx="28.970236" cy="-31.994848" fx="28.970236" fy="-31.994848" r="51.5"/>
    <radialGradient inkscape:collect="always" xlink:href="#linearGradient2718" id="radialGradient2846" gradientUnits="userSpaceOnUse" gradientTransform="matrix(-1.176927,1.06421,-0.875392,-0.968111,28.56963,-84.33452)" cx="28.970236" cy="-31.994848" fx="28.970236" fy="-31.994848" r="51.5"/>
    <radialGradient inkscape:collect="always" xlink:href="#linearGradient2718" id="radialGradient2848" gradientUnits="userSpaceOnUse" gradientTransform="matrix(-1.176927,1.06421,-0.875392,-0.968111,28.56963,-84.33452)" cx="28.970236" cy="-31.994848" fx="28.970236" fy="-31.994848" r="51.5"/>
    <radialGradient inkscape:collect="always" xlink:href="#linearGradient2718" id="radialGradient2850" gradientUnits="userSpaceOnUse" gradientTransform="matrix(-1.176927,1.06421,-0.875392,-0.968111,28.56963,-84.33452)" cx="28.970236" cy="-31.994848" fx="28.970236" fy="-31.994848" r="51.5"/>
    <radialGradient inkscape:collect="always" xlink:href="#linearGradient2718" id="radialGradient2852" gradientUnits="userSpaceOnUse" gradientTransform="matrix(-1.176927,1.06421,-0.875392,-0.968111,28.56963,-84.33452)" cx="28.970236" cy="-31.994848" fx="28.970236" fy="-31.994848" r="51.5"/>
  </defs>
  <path d="M 509.1833,267.54487 C 513.30965,378.48563 428.15093,445.16426 330.10503,445.16426 C 298.69112,445.16426 290.68804,443.00605 268.89055,440.79947 C 252.18688,469.96642 247.19007,491.32481 231.92519,523.12295 C 206.96674,526.22894 186.63102,522.40404 180.49287,491.33615 C 202.53488,453.21381 205.8671,445.67685 227.74872,422.12967 C 180.51666,383.89048 156.96862,327.84165 151.75619,267.90959 C 144.88755,188.93446 196.17815,127.63526 262.45516,102.50053 C 302.50661,66.925133 348.98949,46.601356 403.88889,103.42333 C 467.57136,130.42631 509.1833,194.05431 509.1833,267.54487 z " style="fill:#999;fill-opacity:1;stroke:black;stroke-width:1.00000012;stroke-linecap:butt" id="sclera" sodipodi:nodetypes="csccccsccc"/>
  <path d="M 500.24376,269.02651 C 491.5131,368.26522 430.60398,433.04892 333.33426,436.65948 C 241.26308,440.07708 169.29113,360.36722 163.85693,267.99492 C 159.74839,198.15645 219.12711,100.71541 333.33426,101.39352 C 433.18197,101.98636 499.73018,181.65103 500.24376,269.02651 z " style="fill:#ddafe9;stroke:black;stroke-width:0.99999917;stroke-linecap:butt" id="choroidea"/>
  <path d="M 490.95438,265.15818 C 490.95438,355.60285 419.67563,428.92275 331.74883,428.92275 C 243.82203,428.92275 172.54329,355.60285 172.54329,265.15818 C 172.54329,174.71351 243.82203,101.39361 331.74883,101.39361 C 419.67563,101.39361 490.95438,174.71351 490.95438,265.15818 L 490.95438,265.15818 z " style="fill:#3e3748;fill-opacity:1;stroke:black;stroke-width:0.99999964;stroke-linecap:butt" id="corpus_vitreum"/>
  <path style="fill:gray;fill-rule:evenodd;stroke:black;stroke-width:1px;stroke-linecap:butt;stroke-linejoin:miter;stroke-opacity:1" d="M 321.39319,142.49492 C 333.94469,142.93587 268.15878,392.44736 243.65268,403.82376 C 248.21968,410.58324 252.5529,425.44253 263.73242,421.62199 C 298.34252,327.31293 330.45097,150.10875 342.6676,144.97881 L 321.39319,142.49492 z " id="hyaloid_canal" sodipodi:nodetypes="ccccc"/>
  <rect style="opacity:1;fill:#a80;fill-opacity:1;fill-rule:evenodd;stroke:none;stroke-width:1.20000005;stroke-linecap:round;stroke-linejoin:round;stroke-miterlimit:4;stroke-dasharray:none;stroke-opacity:1" id="nervus_opticus_--3d-canal" width="7.8864121" height="122.00813" x="420.8869" y="224.57196" transform="matrix(0.874492,0.48504,-0.48504,0.874492,0,0)"/>
  <path d="M 189.68913,496.22904 C 202.07644,463.42085 219.70645,444.9947 228.16725,436.23236 C 236.26333,427.83474 237.80353,420.97849 239.65598,414.16671 C 241.55457,407.18528 235.19845,397.07555 228.34961,392.28343 C 221.37782,387.40528 200.43255,363.80872 193.88342,352.89351 C 187.33429,341.9783 178.45308,318.23178 176.92388,310.58582 C 176.30982,307.51554 170.34273,285.63618 169.28233,262.40988 C 168.75959,250.96017 171.06436,227.6484 177.38863,210.93941 C 183.11841,195.80108 188.63938,190.93029 194.61287,181.65677 C 182.26719,204.67832 173.12518,230.11943 173.44361,256.32087 C 173.76203,282.33994 182.22229,326.283 197.79894,347.04688 C 203.86266,355.12989 219.19106,379.55137 237.91359,391.75861 C 256.38544,392.13422 262.92469,398.58066 259.83282,404.28724 C 241.64755,437.85127 214.2077,485.41815 203.4702,503.41777 C 198.83407,511.18946 205.51768,510.93284 208.24212,507.49723 C 215.53354,498.3025 264.94271,403.00988 263.57332,402.69146 C 281.12367,398.55285 291.13853,418.15464 303.60815,423.62307 C 313.18817,423.12809 320.14047,421.81118 335.45174,422.49586 C 341.40551,422.7621 343.88721,427.28015 346.75001,427.02778 C 357.30651,426.09719 352.35622,422.31965 359.66007,420.90213 C 380.54305,416.8492 403.96414,409.31901 417.82502,400.14366 C 434.10233,389.36874 460.75232,361.82571 476.02363,330.039 C 481.00756,319.66512 490.84539,286.99382 489.1733,255.12752 C 487.68016,226.67169 484.9007,217.57178 470.15994,184.02745 C 485.75057,215.49077 496.19397,224.37384 494.59629,264.26618 C 492.99912,304.14559 487.2023,331.08125 458.8536,370.03542 C 448.02278,384.91812 416.12393,414.57955 384.44896,424.00804 C 326.42783,441.27882 277.50603,426.80051 273.29754,425.75594 C 263.57344,426.43846 256.2497,440.96179 253.2489,449.44744 C 249.14401,464.49744 236.66757,496.32301 223.06314,516.97497 C 211.57481,517.41989 190.29274,511.82983 189.68913,496.22904 z " style="fill:#fd5;stroke:black;stroke-width:1;stroke-linecap:butt;stroke-linejoin:miter" id="nervus_opticus" sodipodi:nodetypes="ccssssssccscsssccsssssscssscccc"/>
  <g id="lens">
    <path sodipodi:nodetypes="ccc" id="lens_--top" d="M 286.86261,127.12573 C 286.86261,127.12573 324.03015,97.931845 382.93233,124.9394 C 358.2004,83.530471 312.89873,85.162083 286.86261,127.12573 z " style="fill:#8fb4c8;fill-opacity:1;fill-rule:evenodd;stroke:black;stroke-width:1px;stroke-linecap:butt;stroke-linejoin:miter;stroke-opacity:1"/>
    <path sodipodi:nodetypes="cssscc" id="lens_--bottom" style="fill:url(#radialGradient10059);fill-opacity:1;stroke:black;stroke-width:0.99999982;stroke-linecap:butt" d="M 381.6854,123.45658 C 384.68169,125.82612 383.51294,126.70378 381.78902,130.16463 C 376.13258,141.52016 359.38719,154.20345 335.54412,154.20345 C 313.02436,154.20345 293.8196,144.21426 287.759,132.07917 C 286.31544,129.18874 285.80184,126.19116 290.68892,122.94216 C 305.37917,115.9617 339.70792,103.34175 381.6854,123.45658 z "/>
  </g>
  <path d="M 275.21632,111.08316 C 335.45291,101.84714 347.24049,101.07292 389.37414,110.71843 C 378.59139,89.468787 362.66457,78.232098 334.84829,76.799327 C 307.19263,75.374829 290.46612,92.0189 275.21633,110.9008" style="fill:#d1d3d3;stroke:black;stroke-width:1px;stroke-linecap:butt;stroke-linejoin:miter" id="path"/>
  <path style="fill:url(#radialGradient10071);fill-opacity:1;stroke:black;stroke-width:1px;stroke-linecap:butt;stroke-linejoin:miter" d="M 279.58245,107.2259 C 276.65736,111.32064 279.00479,109.88823 273.76995,110.3509 C 260.42257,111.6544 253.53022,119.17502 245.1137,124.38215 C 245.71092,126.87928 244.45211,127.80694 247.2387,128.2259 C 247.99633,127.21572 251.2753,127.38201 253.0512,128.2259 C 255.48358,129.38176 253.53184,125.36168 256.2387,126.0384 C 258.17307,127.46325 259.11205,128.86643 261.45745,128.50715 C 261.9269,128.15506 264.47751,122.50155 265.3637,122.94465 C 266.99175,123.75867 267.60692,125.67289 269.01995,125.31965 C 270.30593,124.99815 270.63599,124.37769 271.20745,123.6634 C 274.06962,121.30009 274.64056,128.16673 277.95745,128.4134 C 280.11185,122.82186 282.47424,117.58116 281.055,112.25401 C 291.79243,112.25401 303.55417,112.2259 318.4887,112.2259 C 319.53093,107.71341 319.32084,104.60097 335.86029,104.60097 C 350.34899,104.42484 352.45608,107.20674 353.75176,111.75715 C 376.61365,111.75715 373.28195,111.76773 387.34055,111.76773 C 386.75813,117.04117 388.11555,123.32186 390.26995,128.9134 C 393.58684,128.66673 393.40778,122.45634 396.26995,124.81965 C 396.84139,125.53395 397.17147,126.12315 398.45745,126.44465 C 399.87047,126.7979 400.48565,124.88367 402.1137,124.06965 C 402.9999,123.62654 405.58175,129.28006 406.0512,129.63215 C 408.39661,129.99143 409.30433,128.58825 411.2387,127.1634 C 413.94558,126.48668 411.99382,130.50676 414.4262,129.3509 C 416.20208,128.50702 419.51232,128.34072 420.26995,129.3509 C 423.05652,128.93195 424.31278,127.67177 424.91,125.17464 C 415.41181,119.9419 417.71154,118.71513 386.9725,107.76839 C 373.01358,97.738975 353.70609,93.276495 336.8487,93.069585 C 317.37979,93.309305 296.91981,97.57054 279.58245,107.2259 z " id="pupilla_et_musculus_ciliaris" sodipodi:nodetypes="ccccsccsscccccccccssccsccccc"/>
  <path d="M 382.90034,128.13389 C 384.10088,129.22806 386.25881,129.09129 389.51092,128.49861" style="fill:#ecb100;stroke:#d1ef00;stroke-width:1px;stroke-linecap:butt;stroke-linejoin:miter" id="path38"/>
  <path d="M 278.93921,126.11616 C 282.9463,126.39766 284.03563,125.99531 285.12496,125.36501" style="fill:#ecb100;stroke:#d1ef00;stroke-width:1.00000024px;stroke-linecap:butt;stroke-linejoin:miter" id="path40"/>
  <path d="M 275.90017,114.82155 C 277.57867,115.90582 278.73632,117.2857 279.9577,119.06144 C 280.40691,119.71453 281.29521,120.90044 281.78131,121.38654 C 282.40229,122.00753 282.56962,123.48369 284.37995,123.48369" style="fill:none;fill-opacity:0.75;stroke:#980000;stroke-width:1px;stroke-linecap:butt;stroke-linejoin:miter" id="path42"/>
  <path d="M 284.97262,116.18926 C 285.59158,116.65347 283.7089,117.15518 283.33138,117.83051 C 281.05519,121.90227 277.69321,123.2863 277.49583,123.48369" style="fill:none;stroke:#980000;stroke-width:1px;stroke-linecap:butt;stroke-linejoin:miter" id="path44"/>
  <path d="M 391.47458,119.38433 C 387.44104,119.5157 386.13966,127.87511 383.58102,126.80813" style="fill:none;fill-opacity:0.75;stroke:#980000;stroke-width:1.00000012px;stroke-linecap:butt;stroke-linejoin:miter" id="path46"/>
  <path d="M 391.13252,125.98243 C 385.9059,126.77325 387.66083,120.02521 385.57209,119.98925" style="fill:none;stroke:#980000;stroke-width:0.9999997px;stroke-linecap:butt;stroke-linejoin:miter" id="path48"/>
  <g id="3d">
    <path sodipodi:nodetypes="cccc" id="nervus_--3d" d="M 189.26696,497.04697 L 202.11444,504.66597 C 202.34195,508.32911 204.24941,509.61767 208.25247,508.30604 L 222.59103,516.8093 L 222.55892,516.7418 C 192.07897,517.32053 189.26696,497.04697 189.26696,497.04697 z " style="fill:#a80;fill-rule:evenodd;stroke:black;stroke-width:1px;stroke-linecap:butt;stroke-linejoin:miter;stroke-opacity:1"/>
    <path sodipodi:nodetypes="ccccc" id="sclera_--3d" d="M 189.16231,496.89819 L 180.70497,491.80559 C 180.467,491.77159 182.02245,530.69491 231.1762,523.08866 L 222.99168,517.08668 C 224.01596,516.25938 198.26377,517.76613 189.16231,496.89819 z " style="fill:#4d4d4d;fill-rule:evenodd;stroke:black;stroke-width:1px;stroke-linecap:butt;stroke-linejoin:miter;stroke-opacity:1"/>
  </g>
  <g id="pupilla_lines">
    <path sodipodi:nodetypes="cc" id="pupilla_line_--1" d="M 317.93215,112.04369 L 294.88532,105.33248" style="fill:none;fill-rule:evenodd;stroke:black;stroke-width:1px;stroke-linecap:butt;stroke-linejoin:miter;stroke-opacity:1"/>
    <path sodipodi:nodetypes="cc" id="pupilla_line_--2" d="M 335.02871,104.38463 L 335.02871,94.947115" style="fill:none;fill-rule:evenodd;stroke:black;stroke-width:1px;stroke-linecap:butt;stroke-linejoin:miter;stroke-opacity:1"/>
    <path sodipodi:nodetypes="cc" id="pupilla_line_--3" d="M 350.15582,106.29892 L 360.12792,99.675965" style="fill:none;fill-rule:evenodd;stroke:black;stroke-width:1px;stroke-linecap:butt;stroke-linejoin:miter;stroke-opacity:1"/>
    <path id="pupilla_line_--4" d="M 353.94406,111.31618 L 372.49565,104.58668" style="fill:none;fill-rule:evenodd;stroke:black;stroke-width:1px;stroke-linecap:butt;stroke-linejoin:miter;stroke-opacity:1"/>
    <path sodipodi:nodetypes="cc" id="pupilla_line_--5" d="M 321.51645,106.55614 L 309.38387,98.584695" style="fill:none;fill-rule:evenodd;stroke:black;stroke-width:1px;stroke-linecap:butt;stroke-linejoin:miter;stroke-opacity:1"/>
    <path sodipodi:nodetypes="cc" id="pupilla_line_--6" d="M 341.66081,104.61977 L 349.3971,96.94778" style="fill:none;fill-rule:evenodd;stroke:black;stroke-width:1px;stroke-linecap:butt;stroke-linejoin:miter;stroke-opacity:1"/>
    <path sodipodi:nodetypes="cc" id="pupilla_line_--7" d="M 327.636,104.77045 L 322.29723,96.22027" style="fill:none;fill-rule:evenodd;stroke:black;stroke-width:1px;stroke-linecap:butt;stroke-linejoin:miter;stroke-opacity:1"/>
  </g>
  <g id="vasa" transform="translate(-4.724409e-5,0)">
    <path style="fill:none;fill-rule:evenodd;stroke:blue;stroke-width:1.20000005;stroke-linecap:round;stroke-linejoin:round;stroke-miterlimit:4;stroke-dasharray:none;stroke-opacity:1" d="M 251.72845,420.69118 C 251.72845,420.69118 260.82236,408.32345 299.38057,425.60189 C 299.38057,425.60189 375.4057,438.51525 407.78004,410.14224 C 409.77449,410.94002 471.2295,363.09807 463.4348,354.85123" id="vena_dextra" sodipodi:nodetypes="cccc"/>
    <path style="fill:none;fill-rule:evenodd;stroke:blue;stroke-width:1.20000005;stroke-linecap:round;stroke-linejoin:miter;stroke-miterlimit:4;stroke-dasharray:none;stroke-opacity:1" d="M 206.46629,507.9117 C 210.99082,493.9848 220.16446,478.8362 228.16595,464.53288 C 234.10087,453.92372 251.1479,427.33054 252.00087,419.45031 C 252.9156,410.99951 254.20835,406.51646 209.56266,371.35337 C 209.56266,371.35337 183.75384,338.1036 182.55824,321.0436" id="vena_sinistra" sodipodi:nodetypes="csscc"/>
    <path style="fill:none;fill-rule:evenodd;stroke:red;stroke-width:1.5;stroke-linecap:round;stroke-linejoin:miter;stroke-miterlimit:4;stroke-dasharray:none;stroke-opacity:1" d="M 253.611,420.69117 C 253.611,420.69117 259.28706,408.89913 267.92241,411.95821 C 276.06684,414.84338 282.59645,422.51556 292.74459,426.30267 C 299.96942,428.99885 309.3871,428.1114 320.90597,429.42133 C 330.93903,430.5623 338.1318,430.43153 347.92568,429.03817 C 356.42379,427.82917 373.33886,422.06173 384.73185,419.81344 C 401.3944,416.52525 423.3593,403.70338 446.40299,381.24083 C 454.56737,373.28235 460.9802,363.9177 464.22608,354.85123" id="arteria_dextra" sodipodi:nodetypes="cssssssc"/>
    <path style="fill:none;fill-rule:evenodd;stroke:red;stroke-width:1.5;stroke-linecap:round;stroke-linejoin:miter;marker-mid:none;stroke-miterlimit:4;stroke-dasharray:none;stroke-opacity:1" d="M 207.58876,507.54794 C 207.81099,507.84424 221.62178,479.10498 231.22132,461.92952 C 239.97464,446.26811 252.73374,424.41808 252.73374,424.41808 C 252.73374,424.41808 257.87803,407.4419 246.56058,401.78318 C 235.24313,396.12445 207.12604,377.78152 182.94785,323.76642" id="arteria_sinistra" sodipodi:nodetypes="cscsc"/>
    <g id="vasa_sinistrae">
      <path style="opacity:0.3;fill:none;fill-rule:evenodd;stroke:red;stroke-width:1.5;stroke-linecap:round;stroke-linejoin:round;stroke-miterlimit:4;stroke-dasharray:none;stroke-opacity:1" d="M 245.18083,399.59329 C 245.18083,399.59329 225.53797,361.76261 240.08824,354.48747 C 254.6385,347.21234 237.9057,309.38165 237.9057,309.38165 C 237.9057,309.38165 198.61998,312.29171 202.98506,302.83403" id="arteriola_--1"/>
      <path style="opacity:0.2;fill:none;fill-rule:evenodd;stroke:red;stroke-width:1.5;stroke-linecap:round;stroke-linejoin:round;stroke-miterlimit:4;stroke-dasharray:none;stroke-opacity:1" d="M 237.9057,309.38165 C 237.9057,309.38165 257.54855,295.92266 257.91231,286.10123" id="arteriola_--2"/>
      <path style="opacity:0.2;fill:none;fill-rule:evenodd;stroke:red;stroke-width:1.5;stroke-linecap:round;stroke-linejoin:round;stroke-miterlimit:4;stroke-dasharray:none;stroke-opacity:1" d="M 253.42469,295.73001 C 253.42469,295.73001 268.08594,291.61457 269.88644,294.70115" id="arteriola_--3"/>
      <path style="opacity:0.2;fill:none;fill-rule:evenodd;stroke:red;stroke-width:1.5;stroke-linecap:round;stroke-linejoin:round;stroke-miterlimit:4;stroke-dasharray:none;stroke-opacity:1" d="M 215.61412,309.6196 C 215.61412,309.6196 201.2101,319.65098 206.09718,324.53806" id="arteriola_--4"/>
      <path style="opacity:0.2;fill:none;fill-rule:evenodd;stroke:red;stroke-width:1.5;stroke-linecap:round;stroke-linejoin:round;stroke-miterlimit:4;stroke-dasharray:none;stroke-opacity:1" d="M 242.62167,305.76138 C 242.62167,305.76138 233.10473,282.61205 220.75842,285.1842" id="arteriola_--5"/>
      <path style="opacity:0.2;fill:none;fill-rule:evenodd;stroke:red;stroke-width:1.5;stroke-linecap:round;stroke-linejoin:round;stroke-miterlimit:4;stroke-dasharray:none;stroke-opacity:1" d="M 246.47989,336.36994 C 246.47989,336.36994 257.28292,304.73252 267.31429,308.59075" id="arteriola_--6"/>
      <path style="opacity:0.2;fill:none;fill-rule:evenodd;stroke:red;stroke-width:1.5;stroke-linecap:round;stroke-linejoin:round;stroke-miterlimit:4;stroke-dasharray:none;stroke-opacity:1" d="M 234.51941,359.42517 C 234.51941,359.42517 223.71638,327.78775 213.68501,331.64598" id="arteriola_--7"/>
      <path sodipodi:nodetypes="cscc" style="opacity:0.3;fill:none;fill-rule:evenodd;stroke:blue;stroke-width:1.5;stroke-linecap:round;stroke-linejoin:round;stroke-miterlimit:4;stroke-dasharray:none;stroke-opacity:1" d="M 243.1825,399.78781 C 243.1825,399.78781 220.99334,362.68464 235.54361,355.4095 C 250.09387,348.13437 229.35975,320.85262 229.35975,320.85262 C 229.35975,320.85262 194.07535,313.21374 198.44043,303.75606" id="venula_--1"/>
      <path sodipodi:nodetypes="cc" style="opacity:0.2;fill:none;fill-rule:evenodd;stroke:blue;stroke-width:1.5;stroke-linecap:round;stroke-linejoin:round;stroke-miterlimit:4;stroke-dasharray:none;stroke-opacity:1" d="M 231.90604,321.58014 C 231.90604,321.58014 253.36768,312.84998 253.73144,303.02855" id="venula_--2"/>
      <path sodipodi:nodetypes="cc" style="opacity:0.2;fill:none;fill-rule:evenodd;stroke:blue;stroke-width:1.5;stroke-linecap:round;stroke-linejoin:round;stroke-miterlimit:4;stroke-dasharray:none;stroke-opacity:1" d="M 250.3975,310.43066 C 250.3975,310.43066 266.08761,307.08686 267.88811,310.17344" id="venula_--3"/>
      <path sodipodi:nodetypes="cc" style="opacity:0.2;fill:none;fill-rule:evenodd;stroke:blue;stroke-width:1.5;stroke-linecap:round;stroke-linejoin:round;stroke-miterlimit:4;stroke-dasharray:none;stroke-opacity:1" d="M 212.9324,316.47206 C 213.64842,316.94467 198.72621,328.12376 201.55255,325.46009" id="venula_--4"/>
      <path sodipodi:nodetypes="cc" style="opacity:0.2;fill:none;fill-rule:evenodd;stroke:blue;stroke-width:1.5;stroke-linecap:round;stroke-linejoin:round;stroke-miterlimit:4;stroke-dasharray:none;stroke-opacity:1" d="M 242.80588,315.41357 C 234.3712,318.52876 228.34205,291.5597 220.94263,294.83639" id="venula_--5"/>
      <path sodipodi:nodetypes="cc" style="opacity:0.2;fill:none;fill-rule:evenodd;stroke:blue;stroke-width:1.5;stroke-linecap:round;stroke-linejoin:round;stroke-miterlimit:4;stroke-dasharray:none;stroke-opacity:1" d="M 239.1059,338.06361 C 239.1059,338.06361 255.64834,324.56989 265.67971,328.42812" id="venula_--6"/>
      <path sodipodi:nodetypes="cc" style="opacity:0.2;fill:none;fill-rule:evenodd;stroke:blue;stroke-width:1.5;stroke-linecap:round;stroke-linejoin:round;stroke-miterlimit:4;stroke-dasharray:none;stroke-opacity:1" d="M 231.13225,360.47581 C 231.13225,360.47581 232.26699,325.43597 222.23562,329.2942" id="venula_--7"/>
    </g>
    <g id="vasa_dextrae">
      <path style="opacity:0.3;fill:none;fill-rule:evenodd;stroke:red;stroke-width:1.50000024;stroke-linecap:round;stroke-linejoin:round;stroke-miterlimit:4;stroke-dasharray:none;stroke-opacity:1" d="M 275.64269,416.41445 C 275.64269,416.41445 315.00255,400.04972 308.52862,385.12571 C 302.0547,370.2017 339.18481,351.96703 339.18481,351.96703 C 339.18481,351.96703 367.4165,379.44081 370.14914,369.38923" id="arteriola_--8"/>
      <path style="opacity:0.2;fill:none;fill-rule:evenodd;stroke:red;stroke-width:1.50000024;stroke-linecap:round;stroke-linejoin:round;stroke-miterlimit:4;stroke-dasharray:none;stroke-opacity:1" d="M 339.18481,351.96703 C 339.18481,351.96703 332.78241,329.03244 338.8147,321.27329" id="arteriola_--9"/>
      <path style="opacity:0.2;fill:none;fill-rule:evenodd;stroke:red;stroke-width:1.50000024;stroke-linecap:round;stroke-linejoin:round;stroke-miterlimit:4;stroke-dasharray:none;stroke-opacity:1" d="M 336.066,331.53472 C 336.066,331.53472 327.47669,318.96042 324.11375,320.16847" id="arteriola_--10"/>
      <path style="opacity:0.2;fill:none;fill-rule:evenodd;stroke:red;stroke-width:1.50000024;stroke-linecap:round;stroke-linejoin:round;stroke-miterlimit:4;stroke-dasharray:none;stroke-opacity:1" d="M 356.11223,366.47337 C 356.11223,366.47337 360.70301,383.41531 353.8181,384.01958" id="arteriola_--11"/>
      <path style="opacity:0.2;fill:none;fill-rule:evenodd;stroke:red;stroke-width:1.50000024;stroke-linecap:round;stroke-linejoin:round;stroke-miterlimit:4;stroke-dasharray:none;stroke-opacity:1" d="M 337.89762,346.16274 C 337.89762,346.16274 360.0649,334.54053 367.87212,344.4448" id="arteriola_--12"/>
      <path style="opacity:0.2;fill:none;fill-rule:evenodd;stroke:red;stroke-width:1.50000024;stroke-linecap:round;stroke-linejoin:round;stroke-miterlimit:4;stroke-dasharray:none;stroke-opacity:1" d="M 315.27307,367.13652 C 315.27307,367.13652 327.32495,335.95345 317.15948,332.4638" id="arteriola_--13"/>
      <path style="opacity:0.2;fill:none;fill-rule:evenodd;stroke:red;stroke-width:1.50000024;stroke-linecap:round;stroke-linejoin:round;stroke-miterlimit:4;stroke-dasharray:none;stroke-opacity:1" d="M 309.62275,392.48748 C 309.62275,392.48748 338.22969,375.18791 343.43676,384.59009" id="arteriola_--14"/>
      <path sodipodi:nodetypes="cscc" style="opacity:0.3;fill:none;fill-rule:evenodd;stroke:blue;stroke-width:1.50000024;stroke-linecap:round;stroke-linejoin:round;stroke-miterlimit:4;stroke-dasharray:none;stroke-opacity:1" d="M 277.04884,417.84753 C 277.04884,417.84753 317.89225,403.67642 311.41832,388.75241 C 304.9444,373.8284 338.36193,366.24772 338.36193,366.24772 C 338.36193,366.24772 370.3062,383.06751 373.03884,373.01593" id="venula_--8"/>
      <path sodipodi:nodetypes="cc" style="opacity:0.2;fill:none;fill-rule:evenodd;stroke:blue;stroke-width:1.50000024;stroke-linecap:round;stroke-linejoin:round;stroke-miterlimit:4;stroke-dasharray:none;stroke-opacity:1" d="M 338.12974,366.19784 C 338.12974,366.19784 325.10879,344.68902 331.14108,336.92987" id="venula_--9"/>
      <path sodipodi:nodetypes="cc" style="opacity:0.2;fill:none;fill-rule:evenodd;stroke:blue;stroke-width:1.50000024;stroke-linecap:round;stroke-linejoin:round;stroke-miterlimit:4;stroke-dasharray:none;stroke-opacity:1" d="M 329.71275,345.57423 C 329.71275,345.57423 319.06573,332.09968 315.70278,333.30773" id="venula_--10"/>
      <path sodipodi:nodetypes="csc" style="opacity:0.2;fill:none;fill-rule:evenodd;stroke:blue;stroke-width:1.50000024;stroke-linecap:round;stroke-linejoin:round;stroke-miterlimit:4;stroke-dasharray:none;stroke-opacity:1" d="M 355.98044,373.62221 C 354.67113,373.47171 354.59042,376.23199 357.08554,382.2124 C 359.54006,388.09552 357.1618,391.50338 356.7078,387.64628" id="venula_--11"/>
      <path sodipodi:nodetypes="cc" style="opacity:0.2;fill:none;fill-rule:evenodd;stroke:blue;stroke-width:1.50000024;stroke-linecap:round;stroke-linejoin:round;stroke-miterlimit:4;stroke-dasharray:none;stroke-opacity:1" d="M 331.55419,353.44005 C 336.01529,361.2469 357.96461,344.45676 361.5287,351.72212" id="venula_--12"/>
      <path sodipodi:nodetypes="cc" style="opacity:0.2;fill:none;fill-rule:evenodd;stroke:blue;stroke-width:1.50000024;stroke-linecap:round;stroke-linejoin:round;stroke-miterlimit:4;stroke-dasharray:none;stroke-opacity:1" d="M 318.16277,374.49284 C 318.16277,374.49284 315.83038,352.20359 305.66491,348.71395" id="venula_--13"/>
      <path sodipodi:nodetypes="cc" style="opacity:0.2;fill:none;fill-rule:evenodd;stroke:blue;stroke-width:1.50000024;stroke-linecap:round;stroke-linejoin:round;stroke-miterlimit:4;stroke-dasharray:none;stroke-opacity:1" d="M 312.51245,391.09849 C 312.51245,391.09849 333.18919,367.89147 338.39625,377.29364" id="venula_--14"/>
    </g>
  </g>
  <g inkscape:groupmode="layer" id="Labeling" style="display:inline">
    <path d="M 387.5512,48.913385 L 361.0512,76.413385" style="fill:none;fill-opacity:0.75;stroke:black;stroke-width:1px;stroke-linecap:butt;stroke-linejoin:miter" id="cornea_--arrow" class="arrow"/>
    <path d="M 80.935645,254.9134 L 155.55119,256.9134" style="fill:none;fill-opacity:0.75;stroke:black;stroke-width:1px;stroke-linecap:butt;stroke-linejoin:miter" id="sclera_--arrow" class="arrow"/>
    <path d="M 100.0512,226.9134 L 170.41496,227.82279" style="fill:none;fill-opacity:0.75;stroke:black;stroke-width:1px;stroke-linecap:butt;stroke-linejoin:miter" id="choroidea_--arrow" class="arrow" sodipodi:nodetypes="cc"/>
    <path d="M 138.5512,194.4134 L 180.77739,207.87173" style="fill:none;fill-opacity:0.75;stroke:black;stroke-width:1px;stroke-linecap:butt;stroke-linejoin:miter" id="retina_--arrow" class="arrow" sodipodi:nodetypes="cc"/>
    <path d="M 184.0512,108.4134 L 279.5512,119.9134" style="fill:none;fill-opacity:0.75;stroke:black;stroke-width:1px;stroke-linecap:butt;stroke-linejoin:miter" id="fibrae_zonulares_--arrow" class="arrow"/>
    <path d="M 194.05927,73.46643 L 284.5881,115.40533" id="camera_posterior_--arrow" class="arrow" style="fill:none;fill-opacity:0.75;stroke:black;stroke-width:1px;stroke-linecap:butt;stroke-linejoin:miter"/>
    <path d="M 487.80238,158.19633 L 386.41881,129.0285" style="fill:none;fill-opacity:0.75;stroke:black;stroke-width:0.97912461px;stroke-linecap:butt;stroke-linejoin:miter" id="suspensory_ligament_--arrow" sodipodi:nodetypes="cc"/>
    <path d="M 248.0512,46.413385 L 292.5512,104.9134" style="fill:none;fill-opacity:0.75;stroke:black;stroke-width:1px;stroke-linecap:butt;stroke-linejoin:miter" id="iris_--arrow"/>
    <path d="M 407.00669,119.81282 L 468.24245,130.30965" style="fill:none;fill-opacity:0.75;stroke:black;stroke-width:1.00000012px;stroke-linecap:butt;stroke-linejoin:miter" id="musculus_ciliaris_--arrow"/>
    <path d="M 351.0512,90.913385 L 405.64379,75.2282" style="fill:none;fill-opacity:0.75;stroke:black;stroke-width:1px;stroke-linecap:butt;stroke-linejoin:miter" id="camera_anterior_--arrow" sodipodi:nodetypes="cc"/>
    <path d="M 315.2965,34.884526 L 333.68107,106.74528" style="fill:none;fill-opacity:0.75;stroke:black;stroke-width:1px;stroke-linecap:butt;stroke-linejoin:miter" id="pupilla_--arrow" sodipodi:nodetypes="cc"/>
    <path d="M 126.3157,453.81795 L 221.4515,459.98735" style="fill:none;fill-opacity:0.75;stroke:black;stroke-width:1px;stroke-linecap:butt;stroke-linejoin:miter" id="nervus_opticus_--arrow" sodipodi:nodetypes="cc"/>
    <path d="M 346.5512,429.4134 L 345.5512,447.9134" style="fill:none;fill-opacity:0.75;stroke:black;stroke-width:1px;stroke-linecap:butt;stroke-linejoin:miter" id="fovea_centralis_--arrow" sodipodi:nodetypes="cc"/>
    <path d="M 141.87205,394.42098 L 253.33865,401.49204" style="fill:none;fill-opacity:0.75;stroke:black;stroke-width:1px;stroke-linecap:butt;stroke-linejoin:miter" id="discus_opticus_--arrow" class="arrow" sodipodi:nodetypes="cc"/>
    <text xml:space="preserve" style="font-size:12px;font-style:normal;font-variant:normal;font-weight:normal;font-stretch:normal;text-align:center;line-height:110.00000238%;writing-mode:lr-tb;text-anchor:middle;fill:black;fill-opacity:1;stroke:none;stroke-width:1px;stroke-linecap:butt;stroke-linejoin:miter;stroke-opacity:1;font-family:Arial" x="310.65695" y="28.561531" id="pupilla_--text" sodipodi:linespacing="110%"><tspan sodipodi:role="line" id="Pupil_tspan" x="310.65695" y="28.561531" style="font-size:16px">Pupil</tspan></text>
    <text xml:space="preserve" style="font-size:16px;font-style:normal;font-variant:normal;font-weight:normal;font-stretch:normal;text-align:center;line-height:100%;writing-mode:lr-tb;text-anchor:middle;fill:black;fill-opacity:1;stroke:none;stroke-width:1px;stroke-linecap:butt;stroke-linejoin:miter;stroke-opacity:1;font-family:Arial" x="243.72578" y="43.111797" id="iris_--text" sodipodi:linespacing="100%"><tspan sodipodi:role="line" id="tspan12943" x="243.72578" y="43.111797">Iris</tspan></text>
    <text xml:space="preserve" style="font-size:16px;font-style:normal;font-variant:normal;font-weight:normal;font-stretch:normal;text-align:center;line-height:100%;writing-mode:lr-tb;text-anchor:middle;fill:black;fill-opacity:1;stroke:none;stroke-width:1px;stroke-linecap:butt;stroke-linejoin:miter;stroke-opacity:1;font-family:Arial" x="142.60149" y="71.48481" id="camera_posterior_--text" sodipodi:linespacing="100%"><tspan sodipodi:role="line" id="tspan12947" x="142.60149" y="71.48481">Posterior chamber</tspan></text>
    <text xml:space="preserve" style="font-size:16px;font-style:normal;font-variant:normal;font-weight:normal;font-stretch:normal;text-align:center;line-height:100%;writing-mode:lr-tb;text-anchor:middle;fill:black;fill-opacity:1;stroke:none;stroke-width:1px;stroke-linecap:butt;stroke-linejoin:miter;stroke-opacity:1;font-family:Arial" x="332.48236" y="136.96103" id="lens _text" sodipodi:linespacing="100%"><tspan sodipodi:role="line" id="tspan12951" x="332.48236" y="136.96103">Lens</tspan></text>
    <text xml:space="preserve" style="font-size:16px;font-style:normal;font-variant:normal;font-weight:normal;font-stretch:normal;text-align:center;line-height:100%;writing-mode:lr-tb;text-anchor:middle;fill:black;fill-opacity:1;stroke:none;stroke-width:1px;stroke-linecap:butt;stroke-linejoin:miter;stroke-opacity:1;font-family:Arial" x="414.69138" y="42.384285" id="cornea_--text" sodipodi:linespacing="100%"><tspan sodipodi:role="line" id="tspan12955" x="414.69138" y="42.384285">Cornea</tspan></text>
    <text xml:space="preserve" style="font-size:16px;font-style:normal;font-variant:normal;font-weight:normal;font-stretch:normal;text-align:center;line-height:100%;writing-mode:lr-tb;text-anchor:middle;fill:black;fill-opacity:1;stroke:none;stroke-width:1px;stroke-linecap:butt;stroke-linejoin:miter;stroke-opacity:1;font-family:Arial" x="472.16492" y="78.032433" id="camera_anterior_--text" sodipodi:linespacing="100%"><tspan sodipodi:role="line" id="tspan12959" x="472.16492" y="78.032433">Anterior chamber</tspan><tspan sodipodi:role="line" x="472.16492" y="94.032433" id="tspan12961">(aqueous humour)</tspan></text>
    <text xml:space="preserve" style="font-size:16px;font-style:normal;font-variant:normal;font-weight:normal;font-stretch:normal;text-align:center;line-height:100%;writing-mode:lr-tb;text-anchor:middle;fill:black;fill-opacity:1;stroke:none;stroke-width:1px;stroke-linecap:butt;stroke-linejoin:miter;stroke-opacity:1;font-family:Arial" x="519.45337" y="135.506" id="musculus_ciliaris_--text" sodipodi:linespacing="100%"><tspan sodipodi:role="line" id="tspan12965" x="519.45337" y="135.506">Ciliary muscle</tspan></text>
    <text xml:space="preserve" style="font-size:16px;font-style:normal;font-variant:normal;font-weight:normal;font-stretch:normal;text-align:center;line-height:100%;writing-mode:lr-tb;text-anchor:middle;fill:black;fill-opacity:1;stroke:none;stroke-width:1px;stroke-linecap:butt;stroke-linejoin:miter;stroke-opacity:1;font-family:Arial" x="53.84483" y="259.91074" id="sclera_--text" sodipodi:linespacing="100%"><tspan sodipodi:role="line" id="tspan12969" x="53.84483" y="259.91074">Sclera</tspan></text>
    <text xml:space="preserve" style="font-size:16px;font-style:normal;font-variant:normal;font-weight:normal;font-stretch:normal;text-align:center;line-height:100%;writing-mode:lr-tb;text-anchor:middle;fill:black;fill-opacity:1;stroke:none;stroke-width:1px;stroke-linecap:butt;stroke-linejoin:miter;stroke-opacity:1;font-family:Arial" x="64.030014" y="232.26524" id="choroidea_--text" sodipodi:linespacing="100%"><tspan sodipodi:role="line" id="tspan12973" x="64.030014" y="232.26524">Choroid</tspan></text>
    <text xml:space="preserve" style="font-size:16px;font-style:normal;font-variant:normal;font-weight:normal;font-stretch:normal;text-align:center;line-height:100%;writing-mode:lr-tb;text-anchor:middle;fill:black;fill-opacity:1;stroke:none;stroke-width:1px;stroke-linecap:butt;stroke-linejoin:miter;stroke-opacity:1;font-family:Arial" x="114.04655" y="194.79834" id="retina_--text" sodipodi:linespacing="100%"><tspan sodipodi:role="line" id="tspan12977" x="114.04655" y="194.79834">Retina</tspan></text>
    <text xml:space="preserve" style="font-size:16px;font-style:normal;font-variant:normal;font-weight:normal;font-stretch:normal;text-align:center;line-height:100%;writing-mode:lr-tb;text-anchor:middle;fill:black;fill-opacity:1;stroke:none;stroke-width:1px;stroke-linecap:butt;stroke-linejoin:miter;stroke-opacity:1;font-family:Arial" x="155.69672" y="104.22291" id="fibrae_zonulares_--text" sodipodi:linespacing="100%"><tspan sodipodi:role="line" id="tspan12981" x="155.69672" y="104.22291">Zonular</tspan><tspan sodipodi:role="line" x="155.69672" y="120.22291" id="tspan12983">fibres</tspan></text>
    <text xml:space="preserve" style="font-size:16px;font-style:normal;font-variant:normal;font-weight:normal;font-stretch:normal;text-align:center;line-height:100%;writing-mode:lr-tb;text-anchor:middle;fill:black;fill-opacity:1;stroke:none;stroke-width:1px;stroke-linecap:butt;stroke-linejoin:miter;stroke-opacity:1;font-family:Arial" x="99.678162" y="398.13824" id="discus_opticus_--text" sodipodi:linespacing="100%"><tspan sodipodi:role="line" id="tspan12987" x="99.678162" y="398.13824">Optic disc</tspan></text>
    <text xml:space="preserve" style="font-size:16px;font-style:normal;font-variant:normal;font-weight:normal;font-stretch:normal;text-align:center;line-height:100%;writing-mode:lr-tb;text-anchor:middle;fill:black;fill-opacity:1;stroke:none;stroke-width:1px;stroke-linecap:butt;stroke-linejoin:miter;stroke-opacity:1;font-family:Arial" x="80.035301" y="457.79431" id="nervus_opticus_--text" sodipodi:linespacing="100%"><tspan sodipodi:role="line" id="tspan12991" x="80.035301" y="457.79431">Optic nerve</tspan></text>
    <text xml:space="preserve" style="font-size:16px;font-style:normal;font-variant:normal;font-weight:normal;font-stretch:normal;text-align:center;line-height:100%;writing-mode:lr-tb;text-anchor:middle;fill:black;fill-opacity:1;stroke:none;stroke-width:1px;stroke-linecap:butt;stroke-linejoin:miter;stroke-opacity:1;font-family:Arial" x="343.04202" y="461.62979" id="fovea_centralis_--text" sodipodi:linespacing="100%"><tspan sodipodi:role="line" id="tspan12995" x="343.04202" y="461.62979">Fovea</tspan></text>
    <text xml:space="preserve" style="font-size:16px;font-style:normal;font-variant:normal;font-weight:normal;font-stretch:normal;text-align:center;line-height:100%;writing-mode:lr-tb;text-anchor:middle;fill:white;fill-opacity:1;stroke:none;stroke-width:1px;stroke-linecap:butt;stroke-linejoin:miter;stroke-opacity:1;font-family:Arial" x="401.13336" y="305.45782" id="hyaloid_canal_--text" sodipodi:linespacing="100%"><tspan sodipodi:role="line" id="tspan12999" x="401.13336" y="305.45782">Hyaloid</tspan><tspan sodipodi:role="line" x="401.13336" y="321.45782" id="tspan13009">canal</tspan></text>
    <text xml:space="preserve" style="font-size:16px;font-style:normal;font-variant:normal;font-weight:normal;font-stretch:normal;text-align:center;line-height:100%;writing-mode:lr-tb;text-anchor:middle;fill:black;fill-opacity:1;stroke:none;stroke-width:1px;stroke-linecap:butt;stroke-linejoin:miter;stroke-opacity:1;font-family:Arial" x="534.00366" y="162.424" id="suspensory_ligament_--text" sodipodi:linespacing="100%"><tspan sodipodi:role="line" id="tspan13003" x="534.00366" y="162.424">Suspensory</tspan><tspan sodipodi:role="line" x="534.00366" y="178.424" id="tspan13005">ligament</tspan></text>
    <path style="fill:none;fill-opacity:0.75;fill-rule:evenodd;stroke:white;stroke-width:1px;stroke-linecap:butt;stroke-linejoin:miter;stroke-opacity:1" d="M 300.47184,270.82345 L 373.22316,298.46896" id="hyaloid_canal_--arrow" class="arrow"/>
    <path style="fill:none;fill-opacity:0.75;fill-rule:evenodd;stroke:black;stroke-width:1px;stroke-linecap:butt;stroke-linejoin:miter;stroke-opacity:1" d="M 223.01753,473.37348 L 278.64644,511.63033" id="retinal_blood_vessels_--arrow2" sodipodi:nodetypes="cc" class="arrow"/>
    <path style="fill:none;fill-opacity:0.75;fill-rule:evenodd;stroke:black;stroke-width:1px;stroke-linecap:butt;stroke-linejoin:miter;stroke-opacity:1" d="M 230.84365,463.61446 L 278.30096,511.38069 L 321.58661,516.67749" id="retinal_blood_vessels_--arrow1" sodipodi:nodetypes="ccc" class="arrow"/>
    <text xml:space="preserve" style="font-size:16px;font-style:normal;font-variant:normal;font-weight:normal;font-stretch:normal;text-align:center;line-height:100%;writing-mode:lr-tb;text-anchor:middle;fill:black;fill-opacity:1;stroke:none;stroke-width:1px;stroke-linecap:butt;stroke-linejoin:miter;stroke-opacity:1;font-family:Arial" x="348.33688" y="520.0213" id="retinal_blood_vessels_--text" sodipodi:linespacing="100%"><tspan sodipodi:role="line" id="tspan13017" x="348.33688" y="520.0213">Retinal</tspan><tspan sodipodi:role="line" x="348.33688" y="536.0213" id="tspan13019">blood vessels</tspan></text>
    <text xml:space="preserve" style="font-size:16px;font-style:normal;font-variant:normal;font-weight:normal;font-stretch:normal;text-align:center;line-height:100%;writing-mode:lr-tb;text-anchor:middle;fill:white;fill-opacity:1;stroke:none;stroke-width:1px;stroke-linecap:butt;stroke-linejoin:miter;stroke-opacity:1;font-family:Arial" x="240.04953" y="234.25569" id="corpus_vitreum_--text" sodipodi:linespacing="100%"><tspan sodipodi:role="line" id="tspan13023" x="240.04953" y="234.25569">Vitreous</tspan><tspan sodipodi:role="line" x="240.04953" y="250.25569" id="tspan13025">humour</tspan></text>
  </g>
</svg>