<?xml version="1.0" encoding="UTF-8" standalone="no"?>
<!-- Created with Inkscape (http://www.inkscape.org/) -->

<svg
   xmlns:dc="http://purl.org/dc/elements/1.1/"
   xmlns:cc="http://creativecommons.org/ns#"
   xmlns:rdf="http://www.w3.org/1999/02/22-rdf-syntax-ns#"
   xmlns:svg="http://www.w3.org/2000/svg"
   xmlns="http://www.w3.org/2000/svg"
   xmlns:sodipodi="http://sodipodi.sourceforge.net/DTD/sodipodi-0.dtd"
   xmlns:inkscape="http://www.inkscape.org/namespaces/inkscape"
   width="200"
   height="150"
   viewBox="0 0 200 150"
   id="svg9296"
   version="1.1"
   inkscape:version="0.91 r13725"
   sodipodi:docname="about.svg">
  <defs
     id="defs9298" />
  <sodipodi:namedview
     id="base"
     pagecolor="#ffffff"
     bordercolor="#666666"
     borderopacity="1.0"
     inkscape:pageopacity="0.0"
     inkscape:pageshadow="2"
     inkscape:zoom="0.98994949"
     inkscape:cx="-306.60171"
     inkscape:cy="180.89482"
     inkscape:document-units="px"
     inkscape:current-layer="layer1"
     showgrid="false"
     units="px"
     inkscape:window-width="1920"
     inkscape:window-height="1107"
     inkscape:window-x="0"
     inkscape:window-y="28"
     inkscape:window-maximized="1" />
  <metadata
     id="metadata9301">
    <rdf:RDF>
      <cc:Work
         rdf:about="">
        <dc:format>image/svg+xml</dc:format>
        <dc:type
           rdf:resource="http://purl.org/dc/dcmitype/StillImage" />
        <dc:title></dc:title>
      </cc:Work>
    </rdf:RDF>
  </metadata>
  <g
     inkscape:label="Layer 1"
     inkscape:groupmode="layer"
     id="layer1"
     transform="translate(0,-902.36216)">
    <path
       inkscape:connector-curvature="0"
       style="fill:#aa0000;stroke:#2b0000;stroke-width:1.3890512;stroke-linejoin:round;stroke-miterlimit:4;stroke-dashoffset:0;stroke-opacity:1"
       d="m 101.99999,918.87855 c -32.731351,0 -59.265271,26.53393 -59.265271,59.26526 0,32.73129 26.53392,59.26529 59.265271,59.26529 6.87282,0 13.47144,-1.1692 19.6095,-3.3207 l -4.15087,-9.8482 c -4.88559,1.6495 -10.11951,2.5448 -15.56171,2.5448 -26.850317,0 -48.616792,-21.7664 -48.616792,-48.61675 0,-26.85036 21.766475,-48.61679 48.616792,-48.61679 26.6937,0 48.39288,21.52252 48.61407,48.41594 8.3e-4,16.48706 -8.00626,30.9029 -20.19007,39.6206 -18.20677,-31.54785 -29.55533,-86.90252 -29.55533,-86.90252 -5.336467,38.37546 -6.504837,44.87177 -29.655698,85.05212 2.552632,2.1086 5.033408,3.8306 8.418415,5.5508 1.437835,-8.471 1.617856,-19.4795 11.842206,-25.45044 13.908687,-8.12262 34.524117,18.27284 38.500047,34.73164 18.60561,-9.9643 31.39574,-29.7016 31.39473,-52.66999 -0.26964,-32.78397 -26.72479,-59.02106 -59.26529,-59.02106 z m -0.29299,35.35024 c 0,0 4.71101,26.52713 11.61702,41.2808 -6.43515,-6.2781 -14.598427,-10.04479 -23.073987,-5.17908 9.10337,-10.51609 11.456967,-36.10172 11.456967,-36.10172 z"
       id="path3044" />
  </g>
</svg>
