<?xml version="1.0" encoding="UTF-8" standalone="no"?>
<!-- Created with Inkscape (http://www.inkscape.org/) -->

<svg
   xmlns:dc="http://purl.org/dc/elements/1.1/"
   xmlns:cc="http://creativecommons.org/ns#"
   xmlns:rdf="http://www.w3.org/1999/02/22-rdf-syntax-ns#"
   xmlns:svg="http://www.w3.org/2000/svg"
   xmlns="http://www.w3.org/2000/svg"
   xmlns:sodipodi="http://sodipodi.sourceforge.net/DTD/sodipodi-0.dtd"
   xmlns:inkscape="http://www.inkscape.org/namespaces/inkscape"
   width="35.90926mm"
   height="106.0217mm"
   viewBox="0 0 127.23753 375.66743"
   id="svg13026"
   version="1.1"
   inkscape:version="0.91 r13725"
   sodipodi:docname="bg-human.svg">
  <defs
     id="defs13028" />
  <sodipodi:namedview
     id="base"
     pagecolor="#ffffff"
     bordercolor="#666666"
     borderopacity="1.0"
     inkscape:pageopacity="0.0"
     inkscape:pageshadow="2"
     inkscape:zoom="0.35"
     inkscape:cx="55.761642"
     inkscape:cy="236.40515"
     inkscape:document-units="px"
     inkscape:current-layer="layer1"
     showgrid="false"
     fit-margin-top="0"
     fit-margin-left="0"
     fit-margin-right="0"
     fit-margin-bottom="0"
     inkscape:window-width="1920"
     inkscape:window-height="1107"
     inkscape:window-x="0"
     inkscape:window-y="28"
     inkscape:window-maximized="1" />
  <metadata
     id="metadata13031">
    <rdf:RDF>
      <cc:Work
         rdf:about="">
        <dc:format>image/svg+xml</dc:format>
        <dc:type
           rdf:resource="http://purl.org/dc/dcmitype/StillImage" />
        <dc:title></dc:title>
      </cc:Work>
    </rdf:RDF>
  </metadata>
  <g
     inkscape:label="Layer 1"
     inkscape:groupmode="layer"
     id="layer1"
     transform="translate(-319.23836,-393.09991)">
    <path
       style="fill:#ececec;fill-rule:evenodd;stroke:#000000;stroke-width:1px;stroke-linecap:butt;stroke-linejoin:miter;stroke-opacity:1"
       d="m 336.64741,594.39579 0,3.72492 4.5846,7.16333 1.0028,15.61604 -2.4355,0.14327 -1.8625,-13.46705 -4.5845,1.43266 -2.0057,10.45846 5.7306,10.74499 -1.8624,1.57594 -7.7364,-10.60173 -0.2866,-10.31519 -0.2865,10.45846 5.5874,8.30946 -2.7221,0.71633 -7.638,-9.16906 -0.3849,-11.89112 3.8682,-8.45273 -1.0029,-5.58739 z"
       id="path12811"
       inkscape:connector-curvature="0"
       sodipodi:nodetypes="cccccccccccccccccccc" />
    <path
       sodipodi:nodetypes="cccccccccccccccccccc"
       inkscape:connector-curvature="0"
       id="path12813"
       d="m 430.31441,592.42188 0,3.72492 -4.5845,7.16333 -1.0029,15.61604 2.4356,0.14327 1.8624,-13.46705 4.5846,1.43266 2.0057,10.45846 -5.7307,10.74499 1.8625,1.57594 7.7364,-10.60173 0.2865,-10.31519 0.2865,10.45846 -5.5874,8.30946 2.7221,0.71633 7.6381,-9.16906 0.3848,-11.89112 -3.8682,-8.45273 1.0029,-5.58739 z"
       style="fill:#ececec;fill-rule:evenodd;stroke:#000000;stroke-width:1px;stroke-linecap:butt;stroke-linejoin:miter;stroke-opacity:1" />
    <path
       style="fill:#4d4d4d;fill-rule:evenodd;stroke:#000000;stroke-width:1;stroke-linecap:butt;stroke-linejoin:miter;stroke-miterlimit:4;stroke-dasharray:none;stroke-opacity:1"
       d="m 382.83121,618.38982 c -1.9749,21.23913 -0.7485,36.63605 -5.8922,57.24141 0,0 -1.0705,44.0068 0.2101,63.9769 l -28.4105,-0.63135 c 1.2627,-18.09857 6.021,-49.43739 5.2613,-60.18885 -3.7252,-25.99329 -5.5376,-47.44788 -6.0893,-74.71059 -0.6556,-5.56935 -1.0909,-11.8733 2.1085,-30.29268 l 70.0496,-1.06016 c 0.4565,10.97326 -0.9367,24.72109 -1.6678,37.47567 -1.6116,28.56161 0.8541,36.55199 2.311,54.06686 1.9817,19.90999 -2.9412,54.59041 -5.0507,79.76055 l -25.2539,-3.7881 c 1.1753,-20.42534 4.6082,-34.88143 6.4542,-66.5023 -5.7379,-27.13065 -12.1806,-39.2334 -14.0303,-55.34736 z"
       id="path12726"
       inkscape:connector-curvature="0"
       sodipodi:nodetypes="cccccccccccccc" />
    <path
       style="fill:#333333;fill-rule:evenodd;stroke:#000000;stroke-width:1;stroke-linecap:butt;stroke-linejoin:miter;stroke-miterlimit:4;stroke-dasharray:none;stroke-opacity:1"
       d="m 356.31471,738.76488 c -2.5253,6.22862 -5.0507,13.66121 -7.5761,25.2538 7.9569,5.6533 15.9517,3.58293 23.9061,-0.40522 1.468,-7.2916 0.4111,-15.21441 -2.4404,-23.58588 z"
       id="path12730"
       inkscape:connector-curvature="0"
       sodipodi:nodetypes="ccccc" />
    <path
       style="fill:#333333;fill-rule:evenodd;stroke:#000000;stroke-width:1;stroke-linecap:butt;stroke-linejoin:miter;stroke-miterlimit:4;stroke-dasharray:none;stroke-opacity:1"
       d="m 399.51031,762.47094 c 8.2657,9.14463 14.413,5.57912 20.5703,2.07314 -2.2404,-7.57615 -5.7911,-15.1523 -10.7329,-22.72845 l -11.3642,-0.63135 c -0.6426,6.93105 -1.4999,13.83142 1.5268,21.28666 z"
       id="path12732"
       inkscape:connector-curvature="0"
       sodipodi:nodetypes="ccccc" />
    <path
       style="fill:#666666;fill-rule:evenodd;stroke:#000000;stroke-width:1;stroke-linecap:butt;stroke-linejoin:miter;stroke-miterlimit:4;stroke-dasharray:none;stroke-opacity:1"
       d="m 347.05891,573.80845 74.9157,-0.85169 c 1.2776,-1.95002 -4.2918,-17.72939 -5.6821,-24.01489 -2.6208,-14.56742 0.4221,-34.76066 1.6468,-48.04574 0.4732,11.89261 5.4617,4.10887 10.3488,44.25764 l -1.8941,47.98225 c 4.1301,3.01215 8.9876,5.33329 19.5717,1.89405 l -1.2975,-46.71955 c -0.1732,-14.27699 -2.7869,-33.88437 -5.7538,-55.50935 -0.3013,-7.08509 -6.1547,-16.0973 -10.8075,-17.78271 -9.5769,-1.13839 -25.8367,-6.78036 -29.2018,-10.80465 l -29.9734,-0.015 c -10.4797,5.84722 -17.2413,8.85573 -26.6985,9.82751 -3.7519,1.24919 -10.9343,11.9627 -12.9832,19.98742 -4.0018,16.12597 -8.3305,33.02757 -8.816,47.98143 -1.5434,20.59596 -0.2321,37.3082 1.1567,55.55835 4.6014,-0.70515 8.1177,4.44556 18.309,-1.26265 -0.3582,-16.41498 0.8554,-42.16079 -0.5254,-49.24495 0.4473,-9.1301 8.2914,-33.71113 9.4403,-45.84134 4.1086,27.13253 4.6729,32.80806 2.2157,47.61874 -2.8116,10.46207 -5.0299,22.03406 -3.9714,24.98513 z"
       id="path12734"
       inkscape:connector-curvature="0"
       sodipodi:nodetypes="ccccccccccccccccccccc" />
    <path
       style="opacity:1;fill:#ececec;fill-opacity:1;stroke:#000000;stroke-width:1;stroke-linejoin:round;stroke-miterlimit:4;stroke-dasharray:none;stroke-dashoffset:0;stroke-opacity:1"
       id="path12736"
       sodipodi:type="arc"
       sodipodi:cx="385.03217"
       sodipodi:cy="427.19632"
       sodipodi:rx="20.786839"
       sodipodi:ry="26.961145"
       sodipodi:start="0"
       sodipodi:end="6.2749299"
       sodipodi:open="true"
       d="m 405.819,427.19632 a 20.786839,26.961145 0 0 1 -20.74393,26.96109 20.786839,26.961145 0 0 1 -20.82957,-26.8498 20.786839,26.961145 0 0 1 20.65796,-27.07192 20.786839,26.961145 0 0 1 20.91484,26.73806" />
    <path
       style="fill:#ececec;fill-rule:evenodd;stroke:#000000;stroke-width:1px;stroke-linecap:butt;stroke-linejoin:miter;stroke-opacity:1"
       d="m 371.02311,464.36124 c 5.1103,-3.53392 3.1714,-9.2145 4.0368,-13.4559 4.3309,3.6023 9.6473,5.58706 19.212,0.59804 0.3444,5.2487 1.15,10.07667 4.6348,12.96999 -9.7063,4.49231 -18.9876,4.30989 -27.8836,-0.11213 z"
       id="path12777"
       inkscape:connector-curvature="0"
       sodipodi:nodetypes="ccccc" />
    <path
       style="fill:none;fill-rule:evenodd;stroke:#000000;stroke-width:1px;stroke-linecap:butt;stroke-linejoin:miter;stroke-opacity:1"
       d="m 384.55731,430.01157 c -0.9386,4.62607 -6.469,8.85395 -1.1583,9.98711"
       id="path12785"
       inkscape:connector-curvature="0"
       sodipodi:nodetypes="cc" />
    <path
       style="fill:none;fill-rule:evenodd;stroke:#000000;stroke-width:1px;stroke-linecap:butt;stroke-linejoin:miter;stroke-opacity:1"
       d="m 386.41731,429.73068 c 1.4819,5.13781 5.4391,9.9377 1.3622,9.99463"
       id="path12787"
       inkscape:connector-curvature="0"
       sodipodi:nodetypes="cc" />
    <path
       style="fill:none;fill-rule:evenodd;stroke:#000000;stroke-width:1px;stroke-linecap:butt;stroke-linejoin:miter;stroke-opacity:1"
       d="m 382.77031,437.99893 c 1.3371,-3.35384 2.0081,0.68033 2.8015,0.68718 0.7759,0.007 1.4643,-4.10064 2.643,-0.47574"
       id="path12793"
       inkscape:connector-curvature="0"
       sodipodi:nodetypes="csc" />
    <path
       style="fill:none;fill-rule:evenodd;stroke:#000000;stroke-width:1px;stroke-linecap:butt;stroke-linejoin:miter;stroke-opacity:1"
       d="m 378.01291,444.02494 13.4264,0.21144"
       id="path12795"
       inkscape:connector-curvature="0" />
    <path
       style="fill:#f4d7d7;fill-rule:evenodd;stroke:#000000;stroke-width:1px;stroke-linecap:butt;stroke-linejoin:miter;stroke-opacity:1"
       d="m 371.04141,425.13386 c 3.1148,-4.71322 6.9032,-1.1464 11.288,-0.59804 -2.9887,1.64275 -3.0574,4.94602 -11.288,0.59804 z"
       id="path12797"
       inkscape:connector-curvature="0"
       sodipodi:nodetypes="ccc" />
    <path
       sodipodi:nodetypes="ccc"
       inkscape:connector-curvature="0"
       id="path12799"
       d="m 399.20061,425.13386 c -3.1147,-4.71322 -6.9032,-1.1464 -11.288,-0.59804 2.9887,1.64275 3.0574,4.94602 11.288,0.59804 z"
       style="fill:#f4d7d7;fill-rule:evenodd;stroke:#000000;stroke-width:1px;stroke-linecap:butt;stroke-linejoin:miter;stroke-opacity:1" />
    <path
       style="fill:none;fill-rule:evenodd;stroke:#000000;stroke-width:1px;stroke-linecap:butt;stroke-linejoin:miter;stroke-opacity:1"
       d="m 370.35031,421.56401 c 2.9982,-1.11432 5.1155,-1.89685 11.2133,-0.29902"
       id="path12801"
       inkscape:connector-curvature="0"
       sodipodi:nodetypes="cc" />
    <path
       style="fill:none;fill-rule:evenodd;stroke:#000000;stroke-width:1px;stroke-linecap:butt;stroke-linejoin:miter;stroke-opacity:1"
       d="m 389.03911,420.96597 c 6.1949,-1.44517 8.5835,-0.62042 11.2132,0.37377"
       id="path12803"
       inkscape:connector-curvature="0"
       sodipodi:nodetypes="cc" />
    <path
       style="opacity:1;fill:#808080;fill-opacity:1;stroke:#000000;stroke-width:1;stroke-linejoin:round;stroke-miterlimit:4;stroke-dasharray:none;stroke-dashoffset:0;stroke-opacity:1"
       id="path12805"
       sodipodi:type="arc"
       sodipodi:cx="376.21869"
       sodipodi:cy="425.04013"
       sodipodi:rx="1.6072322"
       sodipodi:ry="1.6072322"
       sodipodi:start="0"
       sodipodi:end="6.2749299"
       sodipodi:open="true"
       d="m 377.82592,425.04013 a 1.6072322,1.6072322 0 0 1 -1.60391,1.60723 1.6072322,1.6072322 0 0 1 -1.61054,-1.6006 1.6072322,1.6072322 0 0 1 1.59727,-1.61383 1.6072322,1.6072322 0 0 1 1.61713,1.59393" />
    <path
       style="opacity:1;fill:#808080;fill-opacity:1;stroke:#000000;stroke-width:1;stroke-linejoin:round;stroke-miterlimit:4;stroke-dasharray:none;stroke-dashoffset:0;stroke-opacity:1"
       id="path12807"
       sodipodi:type="arc"
       sodipodi:cx="393.67377"
       sodipodi:cy="425.00275"
       sodipodi:rx="1.4950998"
       sodipodi:ry="1.4950998"
       sodipodi:start="0"
       sodipodi:end="6.2749299"
       sodipodi:open="true"
       d="m 395.16887,425.00275 a 1.4950998,1.4950998 0 0 1 -1.49202,1.49509 1.4950998,1.4950998 0 0 1 -1.49817,-1.48892 1.4950998,1.4950998 0 0 1 1.48583,-1.50124 1.4950998,1.4950998 0 0 1 1.50431,1.48272" />
    <path
       style="fill:#999999;fill-rule:evenodd;stroke:#000000;stroke-width:1px;stroke-linecap:butt;stroke-linejoin:miter;stroke-opacity:1"
       d="m 359.30051,427.0041 1.6915,10.88911 1.7973,-7.18893 2.2201,4.3345 c 5.2329,-7.39874 6.2355,-14.41292 5.2859,-21.24962 3.2657,0.85749 3.3363,2.29589 3.5945,3.70018 1.0033,-2.74042 6.4226,-3.27282 11.2063,-4.12306 4.3922,0.85196 7.9024,1.97952 7.8232,4.22878 1.3356,-2.48954 4.3807,-3.45946 8.2461,-3.70018 -0.238,9.09882 2.3575,11.82237 4.2288,16.17508 l 2.1144,-2.53726 2.643,4.54594 c -0.5283,-7.04782 -0.073,-13.60385 -4.3345,-22.51826 -1.244,-3.00846 2.4174,0.0205 4.5459,1.16291 -3.0521,-4.41721 -5.8304,-8.9955 -13.5321,-10.67767 -1.2877,-1.60635 3.3678,-1.51463 5.6032,-2.11439 -4.5107,-1.1243 -9.0214,-1.63312 -13.5321,0.31716 -2.273,-0.96614 -1.0738,-0.59769 5.0745,-4.65166 -8.4104,0.95343 -13.6022,1.71209 -16.7037,5.18026 -3.7523,-1.50517 -8.8978,0.214 -12.3691,2.64299 1.3686,0.91623 4.9224,1.62103 4.4402,2.53726 -7.3625,2.36852 -7.207,6.00938 -10.2548,9.7262 2.733,0.53934 4.1171,0.5012 2.8544,3.17159 -1.4822,5.15799 -6.663,8.28699 -7.929,13.53209 z"
       id="path12809"
       inkscape:connector-curvature="0"
       sodipodi:nodetypes="ccccccccccccccccccccccccc" />
    <path
       sodipodi:nodetypes="cccccccccccccccccccc"
       inkscape:connector-curvature="0"
       id="path12836"
       d="m 336.64741,594.39579 0,3.72492 4.5846,7.16333 1.0028,15.61604 -2.4355,0.14327 -1.8625,-13.46705 -4.5845,1.43266 -2.0057,10.45846 5.7306,10.74499 -1.8624,1.57594 -7.7364,-10.60173 -0.2866,-10.31519 -0.2865,10.45846 5.5874,8.30946 -2.7221,0.71633 -7.638,-9.16906 -0.3849,-11.89112 3.8682,-8.45273 -1.0029,-5.58739 z"
       style="fill:#ececec;fill-rule:evenodd;stroke:#000000;stroke-width:1px;stroke-linecap:butt;stroke-linejoin:miter;stroke-opacity:1" />
    <path
       style="fill:#ececec;fill-rule:evenodd;stroke:#000000;stroke-width:1px;stroke-linecap:butt;stroke-linejoin:miter;stroke-opacity:1"
       d="m 430.31441,592.42188 0,3.72492 -4.5845,7.16333 -1.0029,15.61604 2.4356,0.14327 1.8624,-13.46705 4.5846,1.43266 2.0057,10.45846 -5.7307,10.74499 1.8625,1.57594 7.7364,-10.60173 0.2865,-10.31519 0.2865,10.45846 -5.5874,8.30946 2.7221,0.71633 7.6381,-9.16906 0.3848,-11.89112 -3.8682,-8.45273 1.0029,-5.58739 z"
       id="path12838"
       inkscape:connector-curvature="0"
       sodipodi:nodetypes="cccccccccccccccccccc" />
    <path
       sodipodi:nodetypes="cccccccccccccc"
       inkscape:connector-curvature="0"
       id="path12840"
       d="m 382.83121,618.38982 c -1.9749,21.23913 -0.7485,36.63605 -5.8922,57.24141 0,0 -1.0705,44.0068 0.2101,63.9769 l -28.4105,-0.63135 c 1.2627,-18.09857 6.021,-49.43739 5.2613,-60.18885 -3.7252,-25.99329 -5.5376,-47.44788 -6.0893,-74.71059 -0.6556,-5.56935 -1.0909,-11.8733 2.1085,-30.29268 l 70.0496,-1.06016 c 0.4565,10.97326 -0.9367,24.72109 -1.6678,37.47567 -1.6116,28.56161 0.8541,36.55199 2.311,54.06686 1.9817,19.90999 -2.9412,54.59041 -5.0507,79.76055 l -25.2539,-3.7881 c 1.1753,-20.42534 4.6082,-34.88143 6.4542,-66.5023 -5.7379,-27.13065 -12.1806,-39.2334 -14.0303,-55.34736 z"
       style="fill:#4d4d4d;fill-rule:evenodd;stroke:#000000;stroke-width:1;stroke-linecap:butt;stroke-linejoin:miter;stroke-miterlimit:4;stroke-dasharray:none;stroke-opacity:1" />
    <path
       sodipodi:nodetypes="ccccc"
       inkscape:connector-curvature="0"
       id="path12842"
       d="m 356.31471,738.76488 c -2.5253,6.22862 -5.0507,13.66121 -7.5761,25.2538 7.9569,5.6533 15.9517,3.58293 23.9061,-0.40522 1.468,-7.2916 0.4111,-15.21441 -2.4404,-23.58588 z"
       style="fill:#333333;fill-rule:evenodd;stroke:#000000;stroke-width:1;stroke-linecap:butt;stroke-linejoin:miter;stroke-miterlimit:4;stroke-dasharray:none;stroke-opacity:1" />
    <path
       sodipodi:nodetypes="ccccc"
       inkscape:connector-curvature="0"
       id="path12844"
       d="m 399.51031,762.47094 c 8.2657,9.14463 14.413,5.57912 20.5703,2.07314 -2.2404,-7.57615 -5.7911,-15.1523 -10.7329,-22.72845 l -11.3642,-0.63135 c -0.6426,6.93105 -1.4999,13.83142 1.5268,21.28666 z"
       style="fill:#333333;fill-rule:evenodd;stroke:#000000;stroke-width:1;stroke-linecap:butt;stroke-linejoin:miter;stroke-miterlimit:4;stroke-dasharray:none;stroke-opacity:1" />
    <path
       sodipodi:nodetypes="ccccccccccccccccccccc"
       inkscape:connector-curvature="0"
       id="path12846"
       d="m 347.05891,573.80845 74.9157,-0.85169 c 1.2776,-1.95002 -4.2918,-17.72939 -5.6821,-24.01489 -2.6208,-14.56742 0.4221,-34.76066 1.6468,-48.04574 0.4732,11.89261 5.4617,4.10887 10.3488,44.25764 l -1.8941,47.98225 c 4.1301,3.01215 8.9876,5.33329 19.5717,1.89405 l -1.2975,-46.71955 c -0.1732,-14.27699 -2.7869,-33.88437 -5.7538,-55.50935 -0.3013,-7.08509 -6.1547,-16.0973 -10.8075,-17.78271 -9.5769,-1.13839 -25.8367,-6.78036 -29.2018,-10.80465 l -29.9734,-0.015 c -10.4797,5.84722 -17.2413,8.85573 -26.6985,9.82751 -3.7519,1.24919 -10.9343,11.9627 -12.9832,19.98742 -4.0018,16.12597 -8.3305,33.02757 -8.816,47.98143 -1.5434,20.59596 -0.2321,37.3082 1.1567,55.55835 4.6014,-0.70515 8.1177,4.44556 18.309,-1.26265 -0.3582,-16.41498 0.8554,-42.16079 -0.5254,-49.24495 0.4473,-9.1301 8.2914,-33.71113 9.4403,-45.84134 4.1086,27.13253 4.6729,32.80806 2.2157,47.61874 -2.8116,10.46207 -5.0299,22.03406 -3.9714,24.98513 z"
       style="fill:#666666;fill-rule:evenodd;stroke:#000000;stroke-width:1;stroke-linecap:butt;stroke-linejoin:miter;stroke-miterlimit:4;stroke-dasharray:none;stroke-opacity:1" />
    <path
       d="m 405.819,427.19632 a 20.786839,26.961145 0 0 1 -20.74393,26.96109 20.786839,26.961145 0 0 1 -20.82957,-26.8498 20.786839,26.961145 0 0 1 20.65796,-27.07192 20.786839,26.961145 0 0 1 20.91484,26.73806"
       sodipodi:open="true"
       sodipodi:end="6.2749299"
       sodipodi:start="0"
       sodipodi:ry="26.961145"
       sodipodi:rx="20.786839"
       sodipodi:cy="427.19632"
       sodipodi:cx="385.03217"
       sodipodi:type="arc"
       id="path12848"
       style="opacity:1;fill:#ececec;fill-opacity:1;stroke:#000000;stroke-width:1;stroke-linejoin:round;stroke-miterlimit:4;stroke-dasharray:none;stroke-dashoffset:0;stroke-opacity:1" />
    <path
       sodipodi:nodetypes="ccccc"
       inkscape:connector-curvature="0"
       id="path12850"
       d="m 371.02311,464.36124 c 5.1103,-3.53392 3.1714,-9.2145 4.0368,-13.4559 4.3309,3.6023 9.6473,5.58706 19.212,0.59804 0.3444,5.2487 1.15,10.07667 4.6348,12.96999 -9.7063,4.49231 -18.9876,4.30989 -27.8836,-0.11213 z"
       style="fill:#ececec;fill-rule:evenodd;stroke:#000000;stroke-width:1px;stroke-linecap:butt;stroke-linejoin:miter;stroke-opacity:1" />
    <path
       sodipodi:nodetypes="cc"
       inkscape:connector-curvature="0"
       id="path12852"
       d="m 384.55731,430.01157 c -0.9386,4.62607 -6.469,8.85395 -1.1583,9.98711"
       style="fill:none;fill-rule:evenodd;stroke:#000000;stroke-width:1px;stroke-linecap:butt;stroke-linejoin:miter;stroke-opacity:1" />
    <path
       sodipodi:nodetypes="cc"
       inkscape:connector-curvature="0"
       id="path12854"
       d="m 386.41731,429.73068 c 1.4819,5.13781 5.4391,9.9377 1.3622,9.99463"
       style="fill:none;fill-rule:evenodd;stroke:#000000;stroke-width:1px;stroke-linecap:butt;stroke-linejoin:miter;stroke-opacity:1" />
    <path
       sodipodi:nodetypes="csc"
       inkscape:connector-curvature="0"
       id="path12856"
       d="m 382.77031,437.99893 c 1.3371,-3.35384 2.0081,0.68033 2.8015,0.68718 0.7759,0.007 1.4643,-4.10064 2.643,-0.47574"
       style="fill:none;fill-rule:evenodd;stroke:#000000;stroke-width:1px;stroke-linecap:butt;stroke-linejoin:miter;stroke-opacity:1" />
    <path
       inkscape:connector-curvature="0"
       id="path12858"
       d="m 378.01291,444.02494 13.4264,0.21144"
       style="fill:none;fill-rule:evenodd;stroke:#000000;stroke-width:1px;stroke-linecap:butt;stroke-linejoin:miter;stroke-opacity:1" />
    <path
       sodipodi:nodetypes="ccc"
       inkscape:connector-curvature="0"
       id="path12860"
       d="m 371.04141,425.13386 c 3.1148,-4.71322 6.9032,-1.1464 11.288,-0.59804 -2.9887,1.64275 -3.0574,4.94602 -11.288,0.59804 z"
       style="fill:#f4d7d7;fill-rule:evenodd;stroke:#000000;stroke-width:1px;stroke-linecap:butt;stroke-linejoin:miter;stroke-opacity:1" />
    <path
       style="fill:#f4d7d7;fill-rule:evenodd;stroke:#000000;stroke-width:1px;stroke-linecap:butt;stroke-linejoin:miter;stroke-opacity:1"
       d="m 399.20061,425.13386 c -3.1147,-4.71322 -6.9032,-1.1464 -11.288,-0.59804 2.9887,1.64275 3.0574,4.94602 11.288,0.59804 z"
       id="path12862"
       inkscape:connector-curvature="0"
       sodipodi:nodetypes="ccc" />
    <path
       sodipodi:nodetypes="cc"
       inkscape:connector-curvature="0"
       id="path12864"
       d="m 370.35031,421.56401 c 2.9982,-1.11432 5.1155,-1.89685 11.2133,-0.29902"
       style="fill:none;fill-rule:evenodd;stroke:#000000;stroke-width:1px;stroke-linecap:butt;stroke-linejoin:miter;stroke-opacity:1" />
    <path
       sodipodi:nodetypes="cc"
       inkscape:connector-curvature="0"
       id="path12866"
       d="m 389.03911,420.96597 c 6.1949,-1.44517 8.5835,-0.62042 11.2132,0.37377"
       style="fill:none;fill-rule:evenodd;stroke:#000000;stroke-width:1px;stroke-linecap:butt;stroke-linejoin:miter;stroke-opacity:1" />
    <path
       d="m 377.82592,425.04013 a 1.6072322,1.6072322 0 0 1 -1.60391,1.60723 1.6072322,1.6072322 0 0 1 -1.61054,-1.6006 1.6072322,1.6072322 0 0 1 1.59727,-1.61383 1.6072322,1.6072322 0 0 1 1.61713,1.59393"
       sodipodi:open="true"
       sodipodi:end="6.2749299"
       sodipodi:start="0"
       sodipodi:ry="1.6072322"
       sodipodi:rx="1.6072322"
       sodipodi:cy="425.04013"
       sodipodi:cx="376.21869"
       sodipodi:type="arc"
       id="path12868"
       style="opacity:1;fill:#808080;fill-opacity:1;stroke:#000000;stroke-width:1;stroke-linejoin:round;stroke-miterlimit:4;stroke-dasharray:none;stroke-dashoffset:0;stroke-opacity:1" />
    <path
       d="m 395.16887,425.00275 a 1.4950998,1.4950998 0 0 1 -1.49202,1.49509 1.4950998,1.4950998 0 0 1 -1.49817,-1.48892 1.4950998,1.4950998 0 0 1 1.48583,-1.50124 1.4950998,1.4950998 0 0 1 1.50431,1.48272"
       sodipodi:open="true"
       sodipodi:end="6.2749299"
       sodipodi:start="0"
       sodipodi:ry="1.4950998"
       sodipodi:rx="1.4950998"
       sodipodi:cy="425.00275"
       sodipodi:cx="393.67377"
       sodipodi:type="arc"
       id="path12870"
       style="opacity:1;fill:#808080;fill-opacity:1;stroke:#000000;stroke-width:1;stroke-linejoin:round;stroke-miterlimit:4;stroke-dasharray:none;stroke-dashoffset:0;stroke-opacity:1" />
    <path
       sodipodi:nodetypes="ccccccccccccccccccccccccc"
       inkscape:connector-curvature="0"
       id="path12872"
       d="m 359.30051,427.0041 1.6915,10.88911 1.7973,-7.18893 2.2201,4.3345 c 5.2329,-7.39874 6.2355,-14.41292 5.2859,-21.24962 3.2657,0.85749 3.3363,2.29589 3.5945,3.70018 1.0033,-2.74042 6.4226,-3.27282 11.2063,-4.12306 4.3922,0.85196 7.9024,1.97952 7.8232,4.22878 1.3356,-2.48954 4.3807,-3.45946 8.2461,-3.70018 -0.238,9.09882 2.3575,11.82237 4.2288,16.17508 l 2.1144,-2.53726 2.643,4.54594 c -0.5283,-7.04782 -0.073,-13.60385 -4.3345,-22.51826 -1.244,-3.00846 2.4174,0.0205 4.5459,1.16291 -3.0521,-4.41721 -5.8304,-8.9955 -13.5321,-10.67767 -1.2877,-1.60635 3.3678,-1.51463 5.6032,-2.11439 -4.5107,-1.1243 -9.0214,-1.63312 -13.5321,0.31716 -2.273,-0.96614 -1.0738,-0.59769 5.0745,-4.65166 -8.4104,0.95343 -13.6022,1.71209 -16.7037,5.18026 -3.7523,-1.50517 -8.8978,0.214 -12.3691,2.64299 1.3686,0.91623 4.9224,1.62103 4.4402,2.53726 -7.3625,2.36852 -7.207,6.00938 -10.2548,9.7262 2.733,0.53934 4.1171,0.5012 2.8544,3.17159 -1.4822,5.15799 -6.663,8.28699 -7.929,13.53209 z"
       style="fill:#999999;fill-rule:evenodd;stroke:#000000;stroke-width:1px;stroke-linecap:butt;stroke-linejoin:miter;stroke-opacity:1" />
  </g>
</svg>
