<?xml version="1.0" encoding="UTF-8" standalone="no"?>
<!-- Created with Inkscape (http://www.inkscape.org/) -->

<svg
   xmlns:dc="http://purl.org/dc/elements/1.1/"
   xmlns:cc="http://creativecommons.org/ns#"
   xmlns:rdf="http://www.w3.org/1999/02/22-rdf-syntax-ns#"
   xmlns:svg="http://www.w3.org/2000/svg"
   xmlns="http://www.w3.org/2000/svg"
   xmlns:sodipodi="http://sodipodi.sourceforge.net/DTD/sodipodi-0.dtd"
   xmlns:inkscape="http://www.inkscape.org/namespaces/inkscape"
   width="150mm"
   height="120mm"
   viewBox="0 0 531.49605 425.19685"
   id="svg13133"
   version="1.1"
   inkscape:version="0.91 r13725"
   sodipodi:docname="bg-observers.svg">
  <defs
     id="defs13135" />
  <sodipodi:namedview
     id="base"
     pagecolor="#ffffff"
     bordercolor="#666666"
     borderopacity="1.0"
     inkscape:pageopacity="0.0"
     inkscape:pageshadow="2"
     inkscape:zoom="3.4614389"
     inkscape:cx="448.10625"
     inkscape:cy="133.36887"
     inkscape:document-units="px"
     inkscape:current-layer="layer1"
     showgrid="false"
     inkscape:window-width="1920"
     inkscape:window-height="1107"
     inkscape:window-x="0"
     inkscape:window-y="28"
     inkscape:window-maximized="1" />
  <metadata
     id="metadata13138">
    <rdf:RDF>
      <cc:Work
         rdf:about="">
        <dc:format>image/svg+xml</dc:format>
        <dc:type
           rdf:resource="http://purl.org/dc/dcmitype/StillImage" />
        <dc:title></dc:title>
      </cc:Work>
    </rdf:RDF>
  </metadata>
  <g
     inkscape:label="Layer 1"
     inkscape:groupmode="layer"
     id="layer1"
     transform="translate(0,-627.16536)">
    <path
       style="fill:#b7c4c8;fill-rule:evenodd;stroke:#000000;stroke-width:1px;stroke-linecap:butt;stroke-linejoin:miter;stroke-opacity:1"
       d="m 332.1221,920.81115 c -5.21912,0.69141 -6.42302,-0.65748 -11.64214,6.24474 -7.87682,19.88051 19.2339,16.58645 17.1726,11.61677"
       id="path13200"
       inkscape:connector-curvature="0"
       sodipodi:nodetypes="ccc" />
    <path
       style="fill:#93a7ac;fill-rule:evenodd;stroke:#000000;stroke-width:1px;stroke-linecap:butt;stroke-linejoin:miter;stroke-opacity:1"
       d="m 485.63991,922.00514 c 5.29826,2.36038 8.08122,13.51078 8.08122,13.51078 0.22248,9.57639 -9.7581,13.82387 -19.69797,11.74295"
       id="path13204"
       inkscape:connector-curvature="0"
       sodipodi:nodetypes="ccc" />
    <path
       style="fill:#373e48;fill-rule:evenodd;stroke:#000000;stroke-width:1px;stroke-linecap:butt;stroke-linejoin:miter;stroke-opacity:1"
       d="m 450.28457,899.27671 c 3.34986,-4.37733 10.37591,-13.80543 20.20304,-18.18276 13.22963,-2.57537 24.91596,1.99589 20.70813,22.22336 -3.79231,18.56367 -5.72548,38.72316 -20.20305,62.62946"
       id="path13202"
       inkscape:connector-curvature="0"
       sodipodi:nodetypes="cccc" />
    <path
       style="opacity:1;fill:#dbe3e2;fill-opacity:1;stroke:#000000;stroke-width:0.51569647;stroke-linejoin:round;stroke-miterlimit:4;stroke-dasharray:none;stroke-dashoffset:0;stroke-opacity:1"
       id="path13143"
       sodipodi:type="arc"
       sodipodi:cx="403.85809"
       sodipodi:cy="704.5697"
       sodipodi:rx="35.092422"
       sodipodi:ry="43.931263"
       sodipodi:start="0"
       sodipodi:end="6.2749299"
       sodipodi:open="true"
       d="m 438.95052,704.5697 a 35.092422,43.931263 0 0 1 -35.02,43.93117 35.092422,43.931263 0 0 1 -35.16455,-43.74983 35.092422,43.931263 0 0 1 34.87485,-44.11176 35.092422,43.931263 0 0 1 35.3085,43.56776" />
    <path
       style="opacity:1;fill:#6f7c91;fill-opacity:1;stroke:#000000;stroke-width:1;stroke-linejoin:round;stroke-miterlimit:4;stroke-dasharray:none;stroke-dashoffset:0;stroke-opacity:1"
       id="path13149"
       sodipodi:type="arc"
       sodipodi:cx="129.33904"
       sodipodi:cy="897.78186"
       sodipodi:rx="40.911179"
       sodipodi:ry="34.597725"
       sodipodi:start="0"
       sodipodi:end="6.2749299"
       sodipodi:open="true"
       d="m 170.25021,897.78186 a 40.911179,34.597725 0 0 1 -40.82674,34.59765 40.911179,34.597725 0 0 1 -40.995265,-34.45484 40.911179,34.597725 0 0 1 40.657525,-34.73987 40.911179,34.597725 0 0 1 41.16309,34.31145" />
    <path
       style="opacity:1;fill:#6f7c91;fill-opacity:1;stroke:#000000;stroke-width:1.17380273;stroke-linejoin:round;stroke-miterlimit:4;stroke-dasharray:none;stroke-dashoffset:0;stroke-opacity:1"
       id="path13145"
       sodipodi:type="arc"
       sodipodi:cx="91.922775"
       sodipodi:cy="993.17145"
       sodipodi:rx="30.72275"
       sodipodi:ry="42.844582"
       sodipodi:start="0"
       sodipodi:end="6.2749299"
       sodipodi:open="true"
       d="M 122.64552,993.17145 A 30.72275,42.844582 0 0 1 91.986182,1036.0159 30.72275,42.844582 0 0 1 61.200287,993.3483 30.72275,42.844582 0 0 1 91.732555,950.32769 30.72275,42.844582 0 0 1 122.64448,992.81775" />
    <path
       d="m 198.99327,994.18158 a 30.72275,42.844582 0 0 1 -30.65934,42.84452 30.72275,42.844582 0 0 1 -30.78589,-42.66767 30.72275,42.844582 0 0 1 30.53226,-43.02061 30.72275,42.844582 0 0 1 30.91193,42.49006"
       sodipodi:open="true"
       sodipodi:end="6.2749299"
       sodipodi:start="0"
       sodipodi:ry="42.844582"
       sodipodi:rx="30.72275"
       sodipodi:cy="994.18158"
       sodipodi:cx="168.27052"
       sodipodi:type="arc"
       id="path13147"
       style="opacity:1;fill:#6f7c91;fill-opacity:1;stroke:#000000;stroke-width:1.17380273;stroke-linejoin:round;stroke-miterlimit:4;stroke-dasharray:none;stroke-dashoffset:0;stroke-opacity:1" />
    <path
       style="opacity:1;fill:#6f7c91;fill-opacity:1;stroke:#000000;stroke-width:1;stroke-linejoin:round;stroke-miterlimit:4;stroke-dasharray:none;stroke-dashoffset:0;stroke-opacity:1"
       id="path13141"
       sodipodi:type="arc"
       sodipodi:cx="130.85425"
       sodipodi:cy="964.51282"
       sodipodi:rx="58.083771"
       sodipodi:ry="81.064743"
       sodipodi:start="0"
       sodipodi:end="6.2749299"
       sodipodi:open="true"
       d="m 188.93802,964.51282 a 58.083771,81.064743 0 0 1 -57.9639,81.06458 58.083771,81.064743 0 0 1 -58.203148,-80.72997 58.083771,81.064743 0 0 1 57.723648,-81.3978 58.083771,81.064743 0 0 1 58.44142,80.39397" />
    <path
       style="fill:#6f7c91;fill-rule:evenodd;stroke:#000000;stroke-width:1px;stroke-linecap:butt;stroke-linejoin:miter;stroke-opacity:1"
       d="m 100.54969,878.41758 c 1.68359,-11.95347 -0.33672,-23.23351 -6.060922,-33.84011 8.709922,7.2831 17.544922,14.49116 22.980972,23.73859"
       id="path13151"
       inkscape:connector-curvature="0"
       sodipodi:nodetypes="ccc" />
    <path
       sodipodi:nodetypes="ccc"
       inkscape:connector-curvature="0"
       id="path13153"
       d="m 154.69559,878.41758 c -2.2495,-11.36242 0.19186,-22.48539 6.06092,-33.84011 -9.44816,6.57914 -18.89199,13.16321 -23.73859,25.00128"
       style="fill:#6f7c91;fill-rule:evenodd;stroke:#000000;stroke-width:1px;stroke-linecap:butt;stroke-linejoin:miter;stroke-opacity:1" />
    <path
       style="fill:#6f7c91;fill-rule:evenodd;stroke:#000000;stroke-width:1px;stroke-linecap:butt;stroke-linejoin:miter;stroke-opacity:1"
       d="m 120.75274,1017.8186 c 82.27405,54.2951 76.25907,-101.38291 117.17769,-93.94415 22.21447,-9.15388 0.91305,-25.12453 -13.13198,-16.16244 -56.55045,28.67269 -36.11828,110.64779 -84.85282,103.54059"
       id="path13155"
       inkscape:connector-curvature="0"
       sodipodi:nodetypes="cccc" />
    <path
       style="fill:#373e48;fill-rule:evenodd;stroke:#000000;stroke-width:1px;stroke-linecap:butt;stroke-linejoin:miter;stroke-opacity:1"
       d="m 340.17794,962.41127 c -6.27574,-22.39174 -15.77151,-41.24792 -18.18274,-63.63965 0.65414,-14.99317 9.30242,-24.54134 24.74873,-20.70812 5.6939,1.98438 15.83538,9.08494 17.67767,13.63706"
       id="path13198"
       inkscape:connector-curvature="0"
       sodipodi:nodetypes="cccc" />
    <path
       style="fill:#53676c;fill-rule:evenodd;stroke:#000000;stroke-width:1px;stroke-linecap:butt;stroke-linejoin:miter;stroke-opacity:1"
       d="m 338.66272,761.89595 c 37.78773,-20.543 78.53336,-30.23395 132.32998,10e-6 -22.24442,64.18172 -16.64293,133.16446 0,204.05091 -45.22089,33.5139 -88.78942,28.1973 -131.31983,-1.5152 25.44574,-66.73063 17.72652,-134.46624 -1.01015,-202.53572 z"
       id="path13178"
       inkscape:connector-curvature="0"
       sodipodi:nodetypes="ccccc" />
    <path
       sodipodi:nodetypes="cccccc"
       inkscape:connector-curvature="0"
       id="path13218"
       d="m 469.86261,761.05329 c 8.62429,2.49355 24.66373,57.05179 24.87374,63.29119 -1.61872,21.56885 -5.18487,33.18821 -13.13577,56.09015 -5.52805,-1.01559 -15.10378,1.0328 -20.37439,6.28282 5.15109,-18.98047 9.37576,-45.96793 10.95594,-52.88438 -0.74823,-4.55642 -9.5409,-23.94636 -13.98241,-34.5245"
       style="fill:#53676c;fill-rule:evenodd;stroke:#000000;stroke-width:1px;stroke-linecap:butt;stroke-linejoin:miter;stroke-opacity:1" />
    <path
       style="fill:#53676c;fill-rule:evenodd;stroke:#000000;stroke-width:1px;stroke-linecap:butt;stroke-linejoin:miter;stroke-opacity:1"
       d="m 340.383,761.05329 c -8.62429,2.49355 -23.84661,58.27748 -24.05662,64.51688 1.61872,21.56885 6.7677,31.24823 14.7186,54.15017 3.98944,-2.26856 8.78028,-4.24116 19.81118,-0.0984 -5.15109,-18.98047 -11.62106,-41.32381 -13.20124,-48.24026 0.74823,-4.55642 7.36456,-20.67787 11.80607,-31.25601"
       id="path13210"
       inkscape:connector-curvature="0"
       sodipodi:nodetypes="cccccc" />
    <path
       style="fill:none;fill-rule:evenodd;stroke:#000000;stroke-width:1px;stroke-linecap:butt;stroke-linejoin:miter;stroke-opacity:1"
       d="m 346.77721,944.48953 c 19.07067,30.06604 76.70459,14.53474 119.44634,-0.48342"
       id="path13212"
       inkscape:connector-curvature="0"
       sodipodi:nodetypes="cc" />
    <path
       style="opacity:1;fill:#373e48;fill-opacity:1;stroke:#000000;stroke-width:0.17857143;stroke-linejoin:round;stroke-miterlimit:4;stroke-dasharray:none;stroke-dashoffset:0;stroke-opacity:1"
       d="m 401.63273,988.1997 c -0.34375,-0.0384 -1.54911,-0.15539 -2.67857,-0.25999 -16.20852,-1.50111 -34.22333,-8.1382 -51.25,-18.88175 -1.8803,-1.18643 -6.98933,-4.53374 -7.28699,-4.77424 -0.0302,-0.0244 0.46602,-1.47946 1.10264,-3.23352 1.55731,-4.29088 3.13287,-9.00963 4.16888,-12.48569 0.47011,-1.57735 0.9039,-2.90324 0.96396,-2.94643 0.0601,-0.0432 0.54433,0.4999 1.07616,1.20685 2.41125,3.20524 4.84782,5.49269 8.27892,7.77226 11.5318,7.66155 28.97454,9.52705 52.93281,5.66115 13.73604,-2.21645 29.43507,-6.32094 48.45008,-12.66721 6.86034,-2.28964 8.36163,-2.73638 8.42835,-2.508 0.0446,0.15282 0.37207,1.68412 0.72761,3.40287 0.74778,3.61489 2.72504,12.61874 3.37164,15.35341 0.24335,1.02921 0.38325,1.91314 0.31089,1.96429 -0.0724,0.0512 -0.93246,0.66584 -1.91131,1.36596 -16.48185,11.78856 -33.14439,18.58252 -50.79221,20.70995 -2.27056,0.27372 -14.16344,0.51324 -15.89286,0.32009 z"
       id="path13216"
       inkscape:connector-curvature="0" />
    <path
       style="fill:#374845;fill-rule:evenodd;stroke:#000000;stroke-width:1px;stroke-linecap:butt;stroke-linejoin:miter;stroke-opacity:1"
       d="m 384.79497,653.11318 c -11.20768,2.2447 -20.4589,6.44585 -27.85713,12.5 8.30384,-2.2145 17.33383,-5.00992 21.07142,-3.57143 -19.20372,4.91819 -18.92024,14.33343 -27.14285,21.78572 4.12299,0.28177 12.35733,-3.54781 12.14285,1.07143 -12.80967,9.0268 -16.11378,16.86541 -21.78571,25 5.35714,-0.54336 10.71429,-5.62579 16.07143,-1.07143 -10.94648,12.08982 -9.73339,23.10707 -10.71429,34.28571 6.75046,-3.86678 11.88069,-15.83466 20.35715,-11.07143 -3.33387,9.40498 -0.34295,16.28004 0.71428,23.92858 6.98653,-2.10125 12.7491,-5.18167 15,-11.07143 1.13101,11.48806 5.5524,21.00189 11.42857,29.64285 8.5179,-9.7772 11.27275,-21.20098 13.21429,-32.85714 4.04675,8.453 4.57274,19.42083 14.64285,23.57143 6.92261,-6.89584 9.46592,-15.98133 10.71429,-25.71429 3.01953,12.70737 11.37867,19.1852 20,25.35714 -1.13689,-7.98807 -4.107,-19.64257 -10,-37.14285 l 12.5,17.14286 c 1.82103,-19.36421 -2.31128,-37.53774 -10,-55 5.48805,1.13117 9.6679,8.80338 14.28572,14.28571 -0.92322,-14.81748 -9.12342,-26.9061 -17.5,-38.92857 5.59524,-5.76525 11.19047,-5.89001 16.78571,-7.14286 -8.98407,-3.14268 -15.67127,0.60523 -22.85714,2.85715 4.49723,-5.38174 7.1389,-11.29365 5,-18.57143 -8.33442,8.03952 -14.56546,8.71721 -21.07143,10.35714 -3.8131,-4.41191 -8.8776,-11.32662 -13.57143,-17.5 -0.89651,9.61614 2.73063,15.46257 7.5,20.35714 -9.12669,-9.01807 -17.45178,-18.63735 -33.92857,-22.14285 2.47136,6.74879 9.35937,14.60175 4.99999,19.64285 z"
       id="path13220"
       inkscape:connector-curvature="0"
       sodipodi:nodetypes="ccccccccccccccccccccccccccccc" />
    <path
       inkscape:connector-curvature="0"
       style="fill:#53676c;stroke:#6f8a91;stroke-width:0.83719409;stroke-linejoin:round;stroke-miterlimit:4;stroke-dashoffset:0;stroke-opacity:1"
       d="m 405.02547,772.33423 c -19.7275,0 -35.71973,15.99222 -35.71973,35.71974 0,19.72747 15.99223,35.71973 35.71973,35.71973 4.14231,0 8.11936,-0.70469 11.81882,-2.00141 l -2.50177,-5.93559 c -2.94458,0.99417 -6.09911,1.53376 -9.37919,1.53376 -16.18293,0 -29.30178,-13.11883 -29.30178,-29.30178 0,-16.18292 13.11885,-29.3018 29.30178,-29.3018 16.08855,0 29.16684,12.97181 29.30016,29.18079 4.9e-4,9.93691 -4.82544,18.62542 -12.16874,23.87966 -10.97339,-19.01418 -17.81327,-52.37696 -17.81327,-52.37696 -3.21634,23.12926 -3.92054,27.04469 -17.87376,51.26179 1.53849,1.27086 3.03368,2.30872 5.07384,3.3455 0.8666,-5.10554 0.97511,-11.74052 7.13742,-15.33929 8.3829,-4.89557 20.808,11.01321 23.20433,20.93312 11.21378,-6.00561 18.9225,-17.90145 18.9219,-31.7447 -0.16252,-19.75922 -16.10728,-35.57256 -35.71974,-35.57256 z m -0.1766,21.30593 c 0,0 2.83937,15.98819 7.00169,24.88037 -3.87853,-3.78388 -8.79861,-6.05411 -13.90691,-3.1215 5.48669,-6.33815 6.90522,-21.75887 6.90522,-21.75887 z"
       id="path3044" />
    <path
       sodipodi:nodetypes="cc"
       inkscape:connector-curvature="0"
       id="path13237"
       d="m 348.79949,933.64512 c 19.07067,30.06604 72.94893,13.66805 115.69068,-1.35011"
       style="fill:none;fill-rule:evenodd;stroke:#000000;stroke-width:1px;stroke-linecap:butt;stroke-linejoin:miter;stroke-opacity:1" />
    <path
       style="opacity:1;fill:#1c1f24;fill-opacity:1;stroke:#6f8a91;stroke-width:0.28889719;stroke-linejoin:round;stroke-miterlimit:4;stroke-dasharray:none;stroke-dashoffset:0;stroke-opacity:1"
       d="m 379.43538,333.58279 c -9.99654,-0.94323 -18.39766,-3.74802 -24.15528,-8.06445 -2.17918,-1.6337 -5.55432,-5.02957 -6.80786,-6.84965 -0.58082,-0.84332 -1.14591,-1.53332 -1.25576,-1.53332 -0.18133,0 1.86574,-8.31091 2.10634,-8.5515 0.0565,-0.0565 0.58926,0.53536 1.18397,1.3152 3.45888,4.53558 9.48285,8.70228 15.80649,10.93315 6.01282,2.12121 12.07573,2.99819 20.63343,2.98454 17.12693,-0.0273 36.62954,-4.2371 67.1517,-14.49523 5.15474,-1.73245 9.39274,-3.12063 9.41777,-3.08485 0.0794,0.11342 1.86612,9.67214 1.86612,9.9833 0,0.33747 -15.53938,5.55151 -23.83402,7.99719 -15.13293,4.46197 -28.84053,7.41726 -40.9222,8.82261 -5.79141,0.67366 -16.81286,0.95609 -21.1907,0.54301 z"
       id="path13239"
       inkscape:connector-curvature="0"
       transform="translate(0,627.16536)" />
  </g>
</svg>
