<?xml version="1.0" encoding="UTF-8" standalone="no"?>
<!-- Created with Inkscape (http://www.inkscape.org/) -->

<svg
   xmlns:dc="http://purl.org/dc/elements/1.1/"
   xmlns:cc="http://creativecommons.org/ns#"
   xmlns:rdf="http://www.w3.org/1999/02/22-rdf-syntax-ns#"
   xmlns:svg="http://www.w3.org/2000/svg"
   xmlns="http://www.w3.org/2000/svg"
   xmlns:xlink="http://www.w3.org/1999/xlink"
   xmlns:sodipodi="http://sodipodi.sourceforge.net/DTD/sodipodi-0.dtd"
   xmlns:inkscape="http://www.inkscape.org/namespaces/inkscape"
   width="200"
   height="200"
   id="svg3301"
   version="1.1"
   inkscape:version="0.48.4 r9939"
   sodipodi:docname="cat.svg">
  <defs
     id="defs3303" />
  <sodipodi:namedview
     id="base"
     pagecolor="#ffffff"
     bordercolor="#666666"
     borderopacity="1.0"
     inkscape:pageopacity="0.0"
     inkscape:pageshadow="2"
     inkscape:zoom="2.8"
     inkscape:cx="122.17838"
     inkscape:cy="100.1231"
     inkscape:document-units="px"
     inkscape:current-layer="layer1"
     showgrid="false"
     inkscape:window-width="1920"
     inkscape:window-height="1099"
     inkscape:window-x="0"
     inkscape:window-y="28"
     inkscape:window-maximized="1" />
  <metadata
     id="metadata3306">
    <rdf:RDF>
      <cc:Work
         rdf:about="">
        <dc:format>image/svg+xml</dc:format>
        <dc:type
           rdf:resource="http://purl.org/dc/dcmitype/StillImage" />
        <dc:title />
      </cc:Work>
    </rdf:RDF>
  </metadata>
  <g
     inkscape:label="Layer 1"
     inkscape:groupmode="layer"
     id="layer1"
     transform="translate(0,-852.36218)">
    <g
       id="g3206"
       style="opacity:0.5">
      <path
         sodipodi:nodetypes="ssscs"
         inkscape:connector-curvature="0"
         id="path6806"
         d="m 102.24568,1017.47 c -41.36084,0.085 -74.98343,-21.32971 -75.15413,-62.69029 -0.1707,-41.36055 33.17487,-75.05205 74.53497,-75.30813 41.36012,-0.2562 75.12038,33.01992 75.4631,74.68899 0.001,41.67048 -33.48312,63.22403 -74.84394,63.30943 z"
         style="fill:#535d6c;fill-opacity:1;stroke:#000000;stroke-width:3;stroke-linecap:butt;stroke-linejoin:round;stroke-miterlimit:4;stroke-opacity:1;stroke-dasharray:none;stroke-dashoffset:0;display:inline;opacity:1" />
      <path
         d="m 80,241 c 0,8.28427 -6.715729,15 -15,15 -8.284271,0 -15,-6.71573 -15,-15 0,-8.28427 6.715729,-15 15,-15 8.235953,0 14.931498,6.6405 14.999489,14.87617"
         sodipodi:open="true"
         sodipodi:end="6.2749299"
         sodipodi:start="0"
         sodipodi:ry="15"
         sodipodi:rx="15"
         sodipodi:cy="241"
         sodipodi:cx="65"
         sodipodi:type="arc"
         id="path6808"
         style="fill:#535d6c;fill-opacity:1;stroke:#000000;stroke-width:1;stroke-linecap:butt;stroke-linejoin:round;stroke-miterlimit:4;stroke-opacity:1;stroke-dasharray:none;stroke-dashoffset:0;display:inline;opacity:1"
         transform="matrix(3,0,0,3,-92.909108,207.47014)" />
      <path
         sodipodi:nodetypes="ccc"
         inkscape:connector-curvature="0"
         id="path6810"
         d="m 73.75757,905.6557 c -8.50659,-4.54611 -12.60111,-16.79373 -14.95056,-25.03413 9.48882,7.99524 26.30715,11.29278 34.50015,11.51316"
         style="fill:#535d6c;fill-rule:evenodd;stroke:#000000;stroke-width:3px;stroke-linecap:butt;stroke-linejoin:miter;stroke-opacity:1;display:inline;opacity:1" />
      <path
         sodipodi:nodetypes="ccc"
         inkscape:connector-curvature="0"
         id="path6812"
         d="m 114.37513,894.03958 c 8.58747,-1.60815 20.85879,-8.15103 28.1598,-16.19157 0.069,10.13712 -1.62927,23.76006 -7.95264,32.6187"
         style="fill:#535d6c;fill-rule:evenodd;stroke:#000000;stroke-width:3px;stroke-linecap:butt;stroke-linejoin:miter;stroke-opacity:1;display:inline;opacity:1" />
      <path
         sodipodi:nodetypes="cc"
         inkscape:connector-curvature="0"
         id="path6822"
         d="m 94.38299,958.23304 c 9.88712,3.70158 14.37704,2.00592 19.24397,0.6873"
         style="fill:#000000;fill-rule:evenodd;stroke:#000000;stroke-width:3px;stroke-linecap:butt;stroke-linejoin:miter;stroke-opacity:1;display:inline;opacity:1" />
      <path
         style="fill:none;stroke:#000000;stroke-width:0.40000001000000002;stroke-linecap:butt;stroke-linejoin:round;stroke-miterlimit:4;stroke-opacity:1;stroke-dasharray:none;stroke-dashoffset:0;display:inline;opacity:1"
         id="use6825"
         sodipodi:type="arc"
         sodipodi:cx="60.332184"
         sodipodi:cy="238.4559"
         sodipodi:rx="3.2073309"
         sodipodi:ry="1.7182131"
         sodipodi:start="0"
         sodipodi:end="6.2749299"
         sodipodi:open="true"
         d="m 63.539515,238.4559 c 0,0.94894 -1.435971,1.71822 -3.207331,1.71822 -1.77136,0 -3.207331,-0.76928 -3.207331,-1.71822 0,-0.94894 1.435971,-1.71821 3.207331,-1.71821 1.761028,0 3.192684,0.76065 3.207221,1.70403"
         transform="matrix(3,0,0,3,-92.909108,207.47014)" />
      <path
         sodipodi:open="true"
         d="m 61.679475,238.5034 c 0,0.89467 -0.571154,1.61995 -1.275708,1.61995 -0.704554,0 -1.275708,-0.72528 -1.275708,-1.61995 0,-0.89467 0.571154,-1.61994 1.275708,-1.61994 0.700444,0 1.269882,0.71715 1.275664,1.60657"
         sodipodi:end="6.2749299"
         sodipodi:start="0"
         sodipodi:ry="1.6199468"
         sodipodi:rx="1.2757081"
         sodipodi:cy="238.5034"
         sodipodi:cx="60.403767"
         sodipodi:type="arc"
         id="path6829"
         style="fill:#aa8800;fill-opacity:1;stroke:#000000;stroke-width:0.40000001000000002;stroke-linecap:butt;stroke-linejoin:round;stroke-miterlimit:4;stroke-opacity:1;stroke-dasharray:none;stroke-dashoffset:0;display:inline;opacity:1"
         transform="matrix(3,0,0,3,-92.909108,207.47014)" />
      <use
         style="fill:none;display:inline;opacity:1"
         height="1052.3622"
         width="744.09448"
         transform="matrix(-0.99999998,0,0,0.99999998,210.37322,1.0097739e-5)"
         id="use6831"
         xlink:href="#use6825"
         y="0"
         x="0" />
      <use
         height="1052.3622"
         width="744.09448"
         transform="matrix(-0.99999998,0,0,0.99999998,210.37322,1.0097739e-5)"
         id="use6833"
         xlink:href="#path6829"
         y="0"
         x="0"
         style="display:inline;opacity:1" />
      <path
         d="m 67.794776,244.57823 c 0,0.89467 -0.743407,1.61995 -1.660445,1.61995 -0.917039,0 -1.660446,-0.72528 -1.660446,-1.61995 0,-0.0381 0.0014,-0.0761 0.0041,-0.11407 l 1.656324,0.11407 z"
         sodipodi:end="3.212069"
         sodipodi:start="0"
         sodipodi:ry="1.6199468"
         sodipodi:rx="1.6604455"
         sodipodi:cy="244.57823"
         sodipodi:cx="66.134331"
         sodipodi:type="arc"
         id="path6839"
         style="fill:#a02c2c;fill-opacity:1;stroke:#000000;stroke-width:0.40000001000000002;stroke-linecap:butt;stroke-linejoin:round;stroke-miterlimit:4;stroke-opacity:1;stroke-dasharray:none;stroke-dashoffset:0;display:inline;opacity:1"
         transform="matrix(3,0,0,3,-92.909108,207.47014)" />
      <path
         style="fill:#535d6c;fill-rule:evenodd;stroke:#000000;stroke-width:3px;stroke-linecap:butt;stroke-linejoin:miter;stroke-opacity:1;display:inline;opacity:1"
         d="m 167.2006,988.39195 c 0,0 -11.89047,22.58605 -21.82041,28.64355 -11.99022,7.3142 -41.76516,5.5715 -41.76516,5.5715 -6.434901,-4.3783 -7.299471,-9.3137 0,-15.0654 0,0 20.4411,0.1644 29.15904,-4.3739 7.9278,-4.12689 18.4674,-19.43934 18.4674,-19.43934"
         id="path6846"
         inkscape:connector-curvature="0"
         sodipodi:nodetypes="csccsc" />
      <path
         sodipodi:nodetypes="csccsc"
         inkscape:connector-curvature="0"
         id="path6842"
         d="m 36.78461,988.39195 c 0,0 11.54685,22.58605 21.47679,28.64355 11.99022,7.3142 41.76516,5.5715 41.76516,5.5715 6.43487,-4.3783 7.29947,-9.3137 0,-15.0654 0,0 -20.4411,0.1644 -29.15904,-4.3739 -7.9278,-4.12689 -18.4674,-19.43934 -18.4674,-19.43934"
         style="fill:#535d6c;fill-rule:evenodd;stroke:#000000;stroke-width:3px;stroke-linecap:butt;stroke-linejoin:miter;stroke-opacity:1;display:inline;opacity:1" />
      <path
         sodipodi:nodetypes="cc"
         inkscape:connector-curvature="0"
         id="path6864"
         d="M 96.482329,949.76668 68.43761,935.09365"
         style="fill:#333333;fill-rule:evenodd;stroke:#000000;stroke-width:1.50000000000000000;stroke-linecap:butt;stroke-linejoin:miter;stroke-miterlimit:4;stroke-opacity:1;stroke-dasharray:none;display:inline;opacity:1" />
      <path
         sodipodi:nodetypes="cc"
         inkscape:connector-curvature="0"
         id="path6866"
         d="M 94.76411,952.96726 73.78343,947.72923"
         style="fill:#333333;fill-rule:evenodd;stroke:#000000;stroke-width:1.50000000000000000;stroke-linecap:butt;stroke-linejoin:miter;stroke-miterlimit:4;stroke-opacity:1;stroke-dasharray:none;display:inline;opacity:1" />
      <path
         sodipodi:nodetypes="cc"
         inkscape:connector-curvature="0"
         id="path6868"
         d="m 95.65271,955.50499 -21.61914,4.77645"
         style="fill:#333333;fill-rule:evenodd;stroke:#000000;stroke-width:1.50000000000000000;stroke-linecap:butt;stroke-linejoin:miter;stroke-miterlimit:4;stroke-opacity:1;stroke-dasharray:none;display:inline;opacity:1" />
      <path
         sodipodi:nodetypes="cc"
         inkscape:connector-curvature="0"
         id="path6870"
         d="m 114.1201,954.53302 21.04977,8.92458"
         style="fill:#333333;fill-rule:evenodd;stroke:#000000;stroke-width:1.50000000000000000;stroke-linecap:butt;stroke-linejoin:miter;stroke-miterlimit:4;stroke-opacity:1;stroke-dasharray:none;display:inline;opacity:1" />
      <path
         sodipodi:nodetypes="cc"
         inkscape:connector-curvature="0"
         id="path6872"
         d="m 114.60607,951.10669 25.75716,-1.43352"
         style="fill:#333333;fill-rule:evenodd;stroke:#000000;stroke-width:1.50000000000000000;stroke-linecap:butt;stroke-linejoin:miter;stroke-miterlimit:4;stroke-opacity:1;stroke-dasharray:none;display:inline;opacity:1" />
      <path
         sodipodi:nodetypes="cc"
         inkscape:connector-curvature="0"
         id="path6874"
         d="m 115.43569,947.90611 27.84345,-13.29843"
         style="fill:#333333;fill-rule:evenodd;stroke:#000000;stroke-width:1.50000000000000000;stroke-linecap:butt;stroke-linejoin:miter;stroke-miterlimit:4;stroke-opacity:1;stroke-dasharray:none;display:inline;opacity:1" />
      <path
         sodipodi:nodetypes="cc"
         inkscape:connector-curvature="0"
         id="path6876"
         d="m 114.5599,913.62166 17.08251,-11.88099"
         style="fill:#333333;fill-rule:evenodd;stroke:#000000;stroke-width:1.50000000000000000;stroke-linecap:butt;stroke-linejoin:miter;stroke-miterlimit:4;stroke-opacity:1;stroke-dasharray:none;display:inline;opacity:1" />
      <path
         sodipodi:nodetypes="cc"
         inkscape:connector-curvature="0"
         id="path6878"
         d="M 92.7368,914.19634 80.10122,901.07476"
         style="fill:#333333;fill-rule:evenodd;stroke:#000000;stroke-width:1.50000000000000000;stroke-linecap:butt;stroke-linejoin:miter;stroke-miterlimit:4;stroke-opacity:1;stroke-dasharray:none;display:inline;opacity:1" />
    </g>
  </g>
</svg>
