<?xml version="1.0" encoding="UTF-8" standalone="no"?>
<!-- Created with Inkscape (http://www.inkscape.org/) -->

<svg
   xmlns:dc="http://purl.org/dc/elements/1.1/"
   xmlns:cc="http://creativecommons.org/ns#"
   xmlns:rdf="http://www.w3.org/1999/02/22-rdf-syntax-ns#"
   xmlns:svg="http://www.w3.org/2000/svg"
   xmlns="http://www.w3.org/2000/svg"
   xmlns:xlink="http://www.w3.org/1999/xlink"
   xmlns:sodipodi="http://sodipodi.sourceforge.net/DTD/sodipodi-0.dtd"
   xmlns:inkscape="http://www.inkscape.org/namespaces/inkscape"
   width="600"
   height="600"
   viewBox="0 0 600.00001 600.00001"
   id="svg4513"
   version="1.1"
   inkscape:version="0.91 r13725"
   sodipodi:docname="peer-review.svg">
  <defs
     id="defs4515" />
  <sodipodi:namedview
     id="base"
     pagecolor="#ffffff"
     bordercolor="#666666"
     borderopacity="1.0"
     inkscape:pageopacity="0.0"
     inkscape:pageshadow="2"
     inkscape:zoom="0.90509668"
     inkscape:cx="-129.94108"
     inkscape:cy="-42.130263"
     inkscape:document-units="px"
     inkscape:current-layer="layer1"
     showgrid="false"
     units="px"
     showguides="true"
     inkscape:guide-bbox="true"
     inkscape:window-width="1920"
     inkscape:window-height="1099"
     inkscape:window-x="0"
     inkscape:window-y="28"
     inkscape:window-maximized="1"
     inkscape:snap-to-guides="false"
     inkscape:snap-page="true">
    <sodipodi:guide
       position="114.96,269"
       orientation="0.98803266,0.1542448"
       id="guide5061"
       inkscape:label=""
       inkscape:color="rgb(0,0,255)" />
    <sodipodi:guide
       position="559.02401,269"
       orientation="-0.97519187,-0.22136128"
       id="guide5063"
       inkscape:label=""
       inkscape:color="rgb(0,0,255)" />
    <sodipodi:guide
       position="-763.16313,6564.3079"
       orientation="0,1"
       id="guide5140" />
    <sodipodi:guide
       position="-863.16301,6534.3081"
       orientation="0.98036077,0.19721249"
       id="guide6660"
       inkscape:label=""
       inkscape:color="rgb(0,0,255)" />
    <sodipodi:guide
       position="-863.16301,6534.3081"
       orientation="0.9845735,0.17497151"
       id="guide6662"
       inkscape:label=""
       inkscape:color="rgb(0,0,255)" />
    <sodipodi:guide
       position="261.219,237.5"
       orientation="1,0"
       id="guide6670"
       inkscape:label=""
       inkscape:color="rgb(0,0,255)" />
    <sodipodi:guide
       position="409.60701,237.5"
       orientation="1,0"
       id="guide6672"
       inkscape:label=""
       inkscape:color="rgb(0,0,255)" />
    <sodipodi:guide
       position="261.219,207.3539"
       orientation="0,1"
       id="guide6774" />
  </sodipodi:namedview>
  <metadata
     id="metadata4518">
    <rdf:RDF>
      <cc:Work
         rdf:about="">
        <dc:format>image/svg+xml</dc:format>
        <dc:type
           rdf:resource="http://purl.org/dc/dcmitype/StillImage" />
        <dc:title></dc:title>
      </cc:Work>
    </rdf:RDF>
  </metadata>
  <g
     inkscape:groupmode="layer"
     id="layer3"
     inkscape:label="bg"
     transform="translate(0,-100)" />
  <g
     inkscape:groupmode="layer"
     id="layer2"
     inkscape:label="loner-and-cat"
     style="display:inline">
    <path
       sodipodi:nodetypes="ccccc"
       inkscape:connector-curvature="0"
       id="path6772"
       d="m 283.25,484.96094 0.97657,6.64062 c 4.3605,3.57528 9.91947,10.53265 17.38281,16.79688 5.99933,-0.98389 18.51799,-1.06811 21.91883,-6.20959 -2.30778,-8.85063 -5.75173,-14.67143 -9.61415,-19.37636"
       style="fill:#b9c6b9;fill-opacity:1;fill-rule:evenodd;stroke:#000000;stroke-width:1px;stroke-linecap:butt;stroke-linejoin:miter;stroke-opacity:1" />
    <path
       style="fill:#b9c6b9;fill-opacity:1;fill-rule:evenodd;stroke:#000000;stroke-width:1px;stroke-linecap:butt;stroke-linejoin:miter;stroke-opacity:1"
       d="m 231.25,484.96094 1.56251,8.59375 c 4.2106,4.94792 8.51084,9.89583 16.79687,14.84375 5.99933,-0.98389 18.51799,-1.06811 21.91883,-6.20959 l -6.68446,-15.86073"
       id="path6770"
       inkscape:connector-curvature="0"
       sodipodi:nodetypes="ccccc" />
    <path
       style="fill:#374845;fill-opacity:1;fill-rule:evenodd;stroke:#000000;stroke-width:1.5px;stroke-linecap:butt;stroke-linejoin:miter;stroke-opacity:1"
       d="m 269.19752,64.37961 c -7.40805,14.28124 -14.43038,10.55799 -16.24439,26.62548 -14.8491,-12.89396 -8.91321,-41.8791 -3.80499,-48.20387"
       id="path5470-7-1-4-3-6"
       inkscape:connector-curvature="0"
       sodipodi:nodetypes="ccc" />
    <path
       style="fill:#374845;fill-opacity:1;fill-rule:evenodd;stroke:#000000;stroke-width:1.5px;stroke-linecap:butt;stroke-linejoin:miter;stroke-opacity:1"
       d="m 271.77959,57.85518 c -7.40805,14.28124 -11.88573,27.03121 -13.69974,43.0987 C 252.70541,89.78259 255.54951,64.6623 260.83734,64"
       id="path5470-7-1-4-3"
       inkscape:connector-curvature="0"
       sodipodi:nodetypes="ccc" />
    <path
       style="fill:#374845;fill-opacity:1;fill-rule:evenodd;stroke:#000000;stroke-width:1.5px;stroke-linecap:butt;stroke-linejoin:miter;stroke-opacity:1"
       d="m 270.46241,60.52246 c 7.40805,14.28125 11.21608,25.95978 13.03009,42.02727 14.8491,-12.89395 11.32394,-40.62987 5.01036,-41.10565"
       id="path5470-7-1-4-3-0"
       inkscape:connector-curvature="0"
       sodipodi:nodetypes="ccc" />
    <path
       style="display:inline;fill:#dcdbd2;fill-opacity:1;fill-rule:evenodd;stroke:#000000;stroke-width:1.48780406px;stroke-linecap:butt;stroke-linejoin:miter;stroke-opacity:1"
       d="m 258.11744,91.47673 c 1.83042,-8.64595 2.83023,-11.60208 4.65612,-14.41171 l 23.05741,-2.56121 c -0.20937,6.2496 1.44162,17.51606 2.4024,20.90579 2.27759,8.31837 -28.65862,2.41818 -29.982,-2.8614 z"
       id="path6740-8"
       inkscape:connector-curvature="0"
       sodipodi:nodetypes="cccccc" />
    <path
       style="fill:#374845;fill-opacity:1;fill-rule:evenodd;stroke:#000000;stroke-width:1.5px;stroke-linecap:butt;stroke-linejoin:miter;stroke-opacity:1"
       d="m 299.86131,44.61457 c 6.26469,0.50499 5.6702,26.07635 7.4255,39.37562 -8.10542,-4.14417 -12.73262,-30.94512 -20.92026,-28.03682"
       id="path5470-7-1"
       inkscape:connector-curvature="0"
       sodipodi:nodetypes="ccc" />
    <path
       style="fill:#374845;fill-opacity:1;fill-rule:evenodd;stroke:#000000;stroke-width:1.5px;stroke-linecap:butt;stroke-linejoin:miter;stroke-opacity:1"
       d="m 303.36081,31.67121 c 6.28667,0.50719 11.47479,26.03176 9.88775,38.9968 -5.61038,-5.21347 -15.19266,-30.56725 -23.38251,-27.658"
       id="path5470-7"
       inkscape:connector-curvature="0"
       sodipodi:nodetypes="ccc" />
    <path
       style="fill:#e3e2db;fill-opacity:1;fill-rule:evenodd;stroke:#000000;stroke-width:1.5px;stroke-linecap:butt;stroke-linejoin:miter;stroke-opacity:1"
       d="m 278.763,9.89988 c -50.11261,6.30895 -25.7692,66.21864 0,76.07142 6.71817,2.56867 16.838,3.23224 19.72946,-2.5622 C 317.66778,44.98197 308.61248,6.14196 278.763,9.89988 Z"
       id="path5321"
       inkscape:connector-curvature="0"
       sodipodi:nodetypes="ssss" />
    <path
       style="fill:#374845;fill-opacity:1;fill-rule:evenodd;stroke:#000000;stroke-width:1.5px;stroke-linecap:butt;stroke-linejoin:miter;stroke-opacity:1"
       d="m 264.58287,46.65897 c -8.02911,14.79879 4.43303,27.31351 7.4255,39.37561 -12.36524,-4.5109 -25.72955,-22.48401 -20.92026,-28.03681"
       id="path5470-7-1-4"
       inkscape:connector-curvature="0"
       sodipodi:nodetypes="ccc" />
    <path
       sodipodi:nodetypes="cc"
       inkscape:connector-curvature="0"
       id="path21274-6"
       d="m 297.27398,41.69317 c 4.73008,-1.7887 5.91879,-2.06385 9.28969,-0.74262"
       style="display:inline;fill:none;fill-rule:evenodd;stroke:#484537;stroke-width:1.78536487;stroke-linecap:round;stroke-linejoin:miter;stroke-miterlimit:4;stroke-dasharray:none;stroke-opacity:1" />
    <path
       style="fill:#374845;fill-opacity:1;fill-rule:evenodd;stroke:#000000;stroke-width:1.5px;stroke-linecap:butt;stroke-linejoin:miter;stroke-opacity:1"
       d="m 301.75088,24.94737 c 4.40187,2.22493 10.17826,11.00104 11.2609,20.95612 -5.72475,-4.59093 -15.31186,-19.65381 -20.35204,-19.46631"
       id="path5470-73"
       inkscape:connector-curvature="0"
       sodipodi:nodetypes="ccc" />
    <path
       style="fill:#f0dbdb;fill-opacity:1;fill-rule:evenodd;stroke:#000000;stroke-width:0.74400002;stroke-linecap:butt;stroke-linejoin:miter;stroke-miterlimit:4;stroke-dasharray:none;stroke-opacity:1"
       d="m 278.60153,45.98212 c 2.33806,3.89391 8.19756,4.13186 10.03839,-0.18934 -2.25231,-2.68955 -8.39003,-1.73075 -10.03839,0.18934 z"
       id="path5325"
       inkscape:connector-curvature="0"
       sodipodi:nodetypes="ccc" />
    <path
       style="fill:none;fill-rule:evenodd;stroke:#000000;stroke-width:0.74400002;stroke-linecap:butt;stroke-linejoin:miter;stroke-miterlimit:4;stroke-dasharray:none;stroke-opacity:1"
       d="m 294.48618,46.19451 c 0,0 -0.28011,1.99978 0.72302,4.63522 1.40451,3.69002 3.36348,8.63147 2.7474,9.80906 -0.99657,1.90486 -6.57366,0.68965 -6.57366,0.68965"
       id="path5329"
       inkscape:connector-curvature="0"
       sodipodi:nodetypes="cssc" />
    <path
       style="display:inline;fill:#a7ac93;fill-rule:evenodd;stroke:#a7ac93;stroke-width:1.48780406px;stroke-linecap:butt;stroke-linejoin:miter;stroke-opacity:1"
       d="m 288.5765,71.84056 c 2.15506,-1.00486 5.13838,-0.32781 5.65074,-0.30096 0.51432,0.027 2.46589,-0.71152 4.99713,0.1149 -3.41667,1.07247 -7.37811,1.1262 -10.64787,0.18608 z"
       id="path6717-5"
       inkscape:connector-curvature="0"
       sodipodi:nodetypes="cscc" />
    <path
       style="display:inline;opacity:0.3;fill:#374845;fill-opacity:1;fill-rule:evenodd;stroke:none;stroke-width:1px;stroke-linecap:butt;stroke-linejoin:miter;stroke-opacity:1"
       d="m 284.69618,70.62903 c 4.91142,-1.3631 9.94612,-2.54553 17.4529,-0.31799 l -0.37605,-3.52582 c -3.06831,-0.65952 -4.64416,-1.80201 -7.17547,-2.10098 -2.55294,0.83925 -6.48731,2.14962 -9.78513,2.66429 z"
       id="path6752-4"
       inkscape:connector-curvature="0"
       sodipodi:nodetypes="cccccc" />
    <path
       style="fill:#374845;fill-opacity:1;fill-rule:evenodd;stroke:#000000;stroke-width:1.5px;stroke-linecap:butt;stroke-linejoin:miter;stroke-opacity:1"
       d="m 267.37658,65.07844 c -1.60533,-2.66224 -4.27241,-8.1786 -8.06033,-7.57599 3.20748,5.24583 2.41845,9.33483 2.46225,17.23572 -2.60424,-2.15223 -5.06655,-2.68309 -7.00794,-2.36754 0.56163,2.47464 1.02281,4.42596 5.4927,8.89529 -6.60453,-0.83016 -11.07777,-3.44493 -15.43638,-10.03173 -2.40762,-10.6706 -2.97549,-16.13634 0.68312,-24.17601 -1.7481,7.29871 -6.1592,8.94132 -9.91796,9.45406 5.88014,-9.87192 8.9048,-16.4697 9.89774,-23.34817 -3.58989,3.59434 -3.0138,3.93318 -8.39693,7.61932 0.26664,-2.28693 8.75207,-18.31401 12.18501,-22.10869 3.16647,-3.68102 6.25394,-8.04149 9.65958,-9.09137 17.71994,-5.10165 26.07167,-3.20863 34.37676,-10e-6 13.99299,9.88728 15.14036,12.47712 12.10836,23.02486 -3.08343,2.32208 -3.50211,3.7841 -4.86231,4.78319 -0.75075,-2.21945 -1.9299,-5.10359 -2.60568,-6.73689 -6.51493,-6.11772 -20.37513,-0.11985 -22.48912,-1.26222 -2.73725,7.76452 -4.39605,32.01852 -8.08887,35.68618 z"
       id="path5349"
       inkscape:connector-curvature="0"
       sodipodi:nodetypes="cccccccccccccccccc" />
    <path
       sodipodi:nodetypes="ssscs"
       inkscape:connector-curvature="0"
       id="path21276-4"
       d="m 284.27552,48.88749 c 0.97542,0 1.76833,-1.03892 1.77235,-2.32818 0.005,-1.28927 -0.78237,-2.33963 -1.75776,-2.34756 -0.9754,-0.0153 -1.77157,1.0293 -1.77964,2.32818 -2e-5,1.29903 0.78964,2.34496 1.76505,2.34756 z"
       style="display:inline;opacity:1;fill:#37483e;fill-opacity:1;stroke:#000000;stroke-width:0.6249634;stroke-linejoin:round;stroke-miterlimit:4;stroke-dasharray:none;stroke-dashoffset:0;stroke-opacity:1" />
    <path
       style="fill:#f0dbdb;fill-opacity:1;fill-rule:evenodd;stroke:#000000;stroke-width:0.74400002;stroke-linecap:butt;stroke-linejoin:miter;stroke-miterlimit:4;stroke-dasharray:none;stroke-opacity:1"
       d="m 306.77217,45.38089 c -1.78911,4.22252 -7.04353,3.85805 -8.75418,0.0837 2.84646,-2.29344 7.62885,-1.77792 8.75418,-0.0837 z"
       id="path5325-6"
       inkscape:connector-curvature="0"
       sodipodi:nodetypes="ccc" />
    <path
       sodipodi:nodetypes="ssscs"
       inkscape:connector-curvature="0"
       id="path21276-4-5"
       d="m 302.58786,48.12118 c -0.88564,0 -1.6056,-0.99636 -1.60924,-2.23281 -0.004,-1.23645 0.66301,-1.91232 1.54864,-1.91994 0.88563,-0.0151 1.65588,0.65568 1.66322,1.90136 1e-5,1.24581 -0.71697,2.24892 -1.60262,2.25139 z"
       style="display:inline;opacity:1;fill:#37483e;fill-opacity:1;stroke:#000000;stroke-width:0.58318764;stroke-linejoin:round;stroke-miterlimit:4;stroke-dasharray:none;stroke-dashoffset:0;stroke-opacity:1" />
    <path
       style="fill:none;fill-rule:evenodd;stroke:#000000;stroke-width:0.74400002;stroke-linecap:butt;stroke-linejoin:miter;stroke-miterlimit:4;stroke-dasharray:none;stroke-opacity:1"
       d="m 288.68789,45.79273 c 0.30075,-3.39811 -9.29004,-5.46742 -10.04465,0.2009"
       id="path5411"
       inkscape:connector-curvature="0"
       sodipodi:nodetypes="cc" />
    <path
       style="fill:none;fill-rule:evenodd;stroke:#000000;stroke-width:0.74400002;stroke-linecap:butt;stroke-linejoin:miter;stroke-miterlimit:4;stroke-dasharray:none;stroke-opacity:1"
       d="m 306.80829,45.41194 c -1.31668,-4.26048 -8.88222,-3.00262 -8.85603,0.0168"
       id="path5411-8"
       inkscape:connector-curvature="0"
       sodipodi:nodetypes="cc" />
    <path
       sodipodi:nodetypes="cc"
       inkscape:connector-curvature="0"
       id="path21274-7"
       d="m 277.20182,41.44158 c 5.3853,-2.45769 7.93023,-1.20669 12.23161,0.0657"
       style="display:inline;fill:none;fill-rule:evenodd;stroke:#484537;stroke-width:1.78536487;stroke-linecap:round;stroke-linejoin:miter;stroke-miterlimit:4;stroke-dasharray:none;stroke-opacity:1" />
    <path
       style="display:inline;opacity:0.3;fill:#374845;fill-opacity:1;stroke:#1f241c;stroke-width:0.13150457;stroke-linejoin:round;stroke-miterlimit:4;stroke-dasharray:none;stroke-dashoffset:0;stroke-opacity:1"
       d="M 286.98872,90.90541 C 273.4518,88.24786 260.65151,79.56238 258.94652,63.02187 l 14.34442,11.12503 c 14.49107,10.49277 19.11308,3.86862 22.37519,3.64776 4.26729,3.27708 4.54639,-2.39716 8.3403,-6.79611 -0.7413,10.76166 -1.95084,18.18597 -17.01771,19.90686 z"
       id="path6750-8"
       inkscape:connector-curvature="0"
       sodipodi:nodetypes="cccccc" />
    <path
       style="fill:none;fill-rule:evenodd;stroke:#000000;stroke-width:1.5px;stroke-linecap:butt;stroke-linejoin:miter;stroke-opacity:1"
       d="m 249.84608,49.73689 c -4.78146,6.34995 -2.47352,10.33677 -3.21987,15.34169 4.51257,-8.22909 9.18906,-14.16348 14.20527,-15.34169"
       id="path5464"
       inkscape:connector-curvature="0"
       sodipodi:nodetypes="ccc" />
    <path
       style="fill:none;fill-rule:evenodd;stroke:#000000;stroke-width:1.5px;stroke-linecap:butt;stroke-linejoin:miter;stroke-opacity:1"
       d="m 260.28086,23.29273 c -7.16976,7.05956 -5.70464,12.20024 -6.96429,17.94644 0.84619,-5.93381 9.43986,-10.45899 17.94643,-15"
       id="path5466"
       inkscape:connector-curvature="0"
       sodipodi:nodetypes="ccc" />
    <path
       style="fill:none;fill-rule:evenodd;stroke:#000000;stroke-width:1.5px;stroke-linecap:butt;stroke-linejoin:miter;stroke-opacity:1"
       d="m 285.19157,17.39988 c -2.31557,-5.11899 -10.96359,-5.71478 -17.94642,-7.5 5.31684,3.36837 10.20951,6.94881 9.91071,13.125"
       id="path5468"
       inkscape:connector-curvature="0"
       sodipodi:nodetypes="ccc" />
    <path
       style="fill:#374845;fill-opacity:1;fill-rule:evenodd;stroke:#000000;stroke-width:1.5px;stroke-linecap:butt;stroke-linejoin:miter;stroke-opacity:1"
       d="m 305.28086,20.07844 c 3.7632,5.94009 4.0611,7.34543 7.18201,16.39083 -7.09794,-3.92802 -7.49898,-8.81046 -12.53916,-8.62296"
       id="path5470"
       inkscape:connector-curvature="0"
       sodipodi:nodetypes="ccc" />
    <path
       style="display:inline;fill:#53676c;fill-opacity:1;fill-rule:evenodd;stroke:#000000;stroke-width:1;stroke-linecap:butt;stroke-linejoin:miter;stroke-opacity:1;stroke-miterlimit:4;stroke-dasharray:none"
       d="m 224.55642,249.50119 c -3.79974,-18.86311 4.73456,-151.96113 4.73456,-151.96113 8.13537,-2.07799 14.08248,-4.33833 27.84934,-5.94703 21.40097,9.9828 25.85093,6.82986 31.21688,0.111 7.8202,0.77886 15.63237,1.56976 21.47988,5.30767 0.77044,-0.7728 -2.51535,132.44801 1.3324,150.03585 z"
       id="path6692-0"
       inkscape:connector-curvature="0"
       sodipodi:nodetypes="ccccccc" />
    <path
       style="fill:#53676c;fill-opacity:1;fill-rule:evenodd;stroke:#000000;stroke-width:1px;stroke-linecap:butt;stroke-linejoin:miter;stroke-opacity:1"
       d="m 308.80306,96.03278 c 9.4746,3.6823 19.6986,34.34255 29.5479,51.51383 l -18.23009,16.84903 -11.45592,-36.10308"
       id="path6501"
       inkscape:connector-curvature="0"
       sodipodi:nodetypes="cccc" />
    <path
       style="display:inline;fill:#373e48;fill-opacity:1;fill-rule:evenodd;stroke:#000000;stroke-width:0.98020852px;stroke-linecap:butt;stroke-linejoin:miter;stroke-opacity:1"
       d="m 225.43694,251.95082 c -3.04791,17.55331 -5.22091,38.46071 0.55807,68.61604 l 1.33181,163.7498 c 15.04496,10.03875 31.4599,11.10398 46.00002,2.46308 l -1.19714,-168.4533 7.93481,164.36288 c 12.0512,6.64335 25.13192,11.24659 39.17615,0.45094 L 312.48397,318.6738 c -0.3187,-37.04075 -0.74798,-48.26122 -2.88209,-70.15363"
       id="path26462"
       inkscape:connector-curvature="0"
       sodipodi:nodetypes="ccccccccc" />
    <path
       style="display:inline;fill:#000000;fill-rule:evenodd;stroke:#000000;stroke-width:0.98020852px;stroke-linecap:butt;stroke-linejoin:miter;stroke-opacity:1"
       d="m 222.51721,239.90319 c 42.02029,10.00951 46.21404,-2.3556 90.9,-2.29635 l 2.11569,10.55385 c -37.0719,1.15144 -45.9984,11.47119 -92.05871,5.42768 z"
       id="path26460"
       inkscape:connector-curvature="0"
       sodipodi:nodetypes="ccccc" />
    <path
       style="display:inline;fill:#333333;fill-rule:evenodd;stroke:#000000;stroke-width:1px;stroke-linecap:butt;stroke-linejoin:miter;stroke-opacity:1"
       d="m 261.21946,388.5 c 19.86144,-37.58153 19.91332,-76.63043 10e-6,-117.15824 52.34646,-16.58269 101.9331,-17.29642 148.38754,0 -26.55108,35.3651 -26.48191,74.42745 0,117.15824 z"
       id="path6684"
       inkscape:connector-curvature="0"
       sodipodi:nodetypes="ccccc" />
    <path
       style="display:inline;fill:#535d6c;fill-rule:evenodd;stroke:#000000;stroke-width:2px;stroke-linecap:butt;stroke-linejoin:miter;stroke-opacity:1"
       d="m 339.23059,282.97805 c 0,0 -3.36931,23.9242 2.99595,31.8133 4.50897,5.5885 19.49273,16.4634 19.97397,20.3455 0.63997,5.1625 -0.95836,6.9899 -4.4934,7.0375 -3.91144,0.053 -18.56835,-10.4601 -24.28207,-18.171 -6.16467,-8.3196 -8.59413,-39.7562 -8.59413,-39.7562"
       id="path6848"
       inkscape:connector-curvature="0"
       sodipodi:nodetypes="cssssc" />
    <path
       style="display:inline;opacity:1;fill:#535d6c;fill-opacity:1;stroke:#000000;stroke-width:2;stroke-linecap:butt;stroke-linejoin:round;stroke-miterlimit:4;stroke-dasharray:none;stroke-dashoffset:0;stroke-opacity:1"
       d="m 331.2459,290.21435 c -45.9321,-0.3343 -50.37959,-46.92295 -50.49341,-74.49675 -0.1138,-27.57372 22.11658,-72.03472 49.69,-72.20544 27.57342,-0.1708 50.08024,44.01328 50.30872,71.79264 8.6e-4,27.7804 -0.44702,75.26655 -49.50531,74.90955 z"
       id="path6806"
       inkscape:connector-curvature="0"
       sodipodi:nodetypes="ssscs" />
    <path
       style="display:inline;opacity:1;fill:#535d6c;fill-opacity:1;stroke:#000000;stroke-width:2;stroke-linecap:butt;stroke-linejoin:round;stroke-miterlimit:4;stroke-dasharray:none;stroke-dashoffset:0;stroke-opacity:1"
       id="path6808"
       sodipodi:type="arc"
       sodipodi:cx="330.75201"
       sodipodi:cy="161.51141"
       sodipodi:rx="30"
       sodipodi:ry="30"
       sodipodi:start="0"
       sodipodi:end="6.2749299"
       sodipodi:open="true"
       d="m 360.75201,161.51141 a 30,30 0 0 1 -29.93808,29.99994 30,30 0 0 1 -30.06166,-29.87611 30,30 0 0 1 29.814,-30.12325 30,30 0 0 1 30.18472,29.75176" />
    <path
       style="display:inline;fill:#535d6c;fill-rule:evenodd;stroke:#000000;stroke-width:2px;stroke-linecap:butt;stroke-linejoin:miter;stroke-opacity:1"
       d="m 311.86319,144.96824 c -5.67108,-3.03074 -8.40076,-11.19582 -9.96704,-16.68942 6.32588,5.33016 17.5381,7.52852 23.0001,7.67544"
       id="path6810"
       inkscape:connector-curvature="0"
       sodipodi:nodetypes="ccc" />
    <path
       style="display:inline;fill:#535d6c;fill-rule:evenodd;stroke:#000000;stroke-width:2px;stroke-linecap:butt;stroke-linejoin:miter;stroke-opacity:1"
       d="m 338.94157,137.22416 c 5.72498,-1.0721 13.90586,-5.43402 18.77318,-10.79438 0.046,6.75808 -1.08616,15.84004 -5.30174,21.7458"
       id="path6812"
       inkscape:connector-curvature="0"
       sodipodi:nodetypes="ccc" />
    <path
       style="display:inline;fill:#000000;fill-rule:evenodd;stroke:#000000;stroke-width:2px;stroke-linecap:butt;stroke-linejoin:miter;stroke-opacity:1"
       d="m 325.61347,180.0198 c 6.59142,2.4678 9.5847,1.3374 12.82932,0.4582"
       id="path6822"
       inkscape:connector-curvature="0"
       sodipodi:nodetypes="cc" />
    <path
       d="m 327.83114,156.42303 a 6.4146619,3.4364262 0 0 1 -6.40143,3.43642 6.4146619,3.4364262 0 0 1 -6.42784,-3.42223 6.4146619,3.4364262 0 0 1 6.37489,-3.45055 6.4146619,3.4364262 0 0 1 6.45416,3.408"
       sodipodi:open="true"
       sodipodi:end="6.2749299"
       sodipodi:start="0"
       sodipodi:ry="3.4364262"
       sodipodi:rx="6.4146619"
       sodipodi:cy="156.42303"
       sodipodi:cx="321.41647"
       sodipodi:type="arc"
       id="use6825"
       style="display:inline;opacity:1;fill:none;fill-opacity:1;stroke:#000000;stroke-width:0.80000001;stroke-linecap:butt;stroke-linejoin:round;stroke-miterlimit:4;stroke-dasharray:none;stroke-dashoffset:0;stroke-opacity:1" />
    <path
       style="display:inline;opacity:1;fill:#aa8800;fill-opacity:1;stroke:#000000;stroke-width:0.80000001;stroke-linecap:butt;stroke-linejoin:round;stroke-miterlimit:4;stroke-dasharray:none;stroke-dashoffset:0;stroke-opacity:1"
       id="path6829"
       sodipodi:type="arc"
       sodipodi:cx="321.55963"
       sodipodi:cy="156.51801"
       sodipodi:rx="2.5514162"
       sodipodi:ry="3.2398937"
       sodipodi:start="0"
       sodipodi:end="6.2749299"
       d="m 324.11105,156.51801 a 2.5514162,3.2398937 0 0 1 -2.54615,3.23988 2.5514162,3.2398937 0 0 1 -2.55666,-3.22651 2.5514162,3.2398937 0 0 1 2.53559,-3.25321 2.5514162,3.2398937 0 0 1 2.56713,3.21309"
       sodipodi:open="true" />
    <use
       x="0"
       y="0"
       xlink:href="#use6825"
       id="use6831"
       transform="matrix(-1,0,0,1,665.14847,-0.3621527)"
       width="100%"
       height="100%"
       style="display:inline;fill:none" />
    <use
       style="display:inline"
       x="0"
       y="0"
       xlink:href="#path6829"
       id="use6833"
       transform="matrix(-1,0,0,1,665.14847,-0.3621527)"
       width="100%"
       height="100%" />
    <path
       style="display:inline;opacity:1;fill:#a02c2c;fill-opacity:1;stroke:#000000;stroke-width:0.80000001;stroke-linecap:butt;stroke-linejoin:round;stroke-miterlimit:4;stroke-dasharray:none;stroke-dashoffset:0;stroke-opacity:1"
       id="path6839"
       sodipodi:type="arc"
       sodipodi:cx="333.02069"
       sodipodi:cy="168.66748"
       sodipodi:rx="3.3208909"
       sodipodi:ry="3.2398937"
       sodipodi:start="0"
       sodipodi:end="3.212069"
       d="m 336.34158,168.66748 a 3.3208909,3.2398937 0 0 1 -1.72846,2.84311 3.3208909,3.2398937 0 0 1 -3.38612,-0.11646 3.3208909,3.2398937 0 0 1 -1.51896,-2.9548 l 3.31265,0.22815 z" />
    <path
       style="display:inline;fill:#333333;fill-rule:evenodd;stroke:#000000;stroke-width:1;stroke-linecap:butt;stroke-linejoin:miter;stroke-miterlimit:4;stroke-dasharray:none;stroke-opacity:1"
       d="m 327.01303,174.3756 -18.6965,-9.782"
       id="path6864"
       inkscape:connector-curvature="0"
       sodipodi:nodetypes="cc" />
    <path
       style="display:inline;fill:#333333;fill-rule:evenodd;stroke:#000000;stroke-width:1;stroke-linecap:butt;stroke-linejoin:miter;stroke-miterlimit:4;stroke-dasharray:none;stroke-opacity:1"
       d="m 325.86755,176.5094 -13.98712,-3.492"
       id="path6866"
       inkscape:connector-curvature="0"
       sodipodi:nodetypes="cc" />
    <path
       style="display:inline;fill:#333333;fill-rule:evenodd;stroke:#000000;stroke-width:1;stroke-linecap:butt;stroke-linejoin:miter;stroke-miterlimit:4;stroke-dasharray:none;stroke-opacity:1"
       d="m 326.45995,178.2012 -14.41276,3.1842"
       id="path6868"
       inkscape:connector-curvature="0"
       sodipodi:nodetypes="cc" />
    <path
       style="display:inline;fill:#333333;fill-rule:evenodd;stroke:#000000;stroke-width:1;stroke-linecap:butt;stroke-linejoin:miter;stroke-miterlimit:4;stroke-dasharray:none;stroke-opacity:1"
       d="m 338.77153,177.5532 14.03318,5.9496"
       id="path6870"
       inkscape:connector-curvature="0"
       sodipodi:nodetypes="cc" />
    <path
       style="display:inline;fill:#333333;fill-rule:evenodd;stroke:#000000;stroke-width:1;stroke-linecap:butt;stroke-linejoin:miter;stroke-miterlimit:4;stroke-dasharray:none;stroke-opacity:1"
       d="m 339.09553,175.269 17.17144,-0.9558"
       id="path6872"
       inkscape:connector-curvature="0"
       sodipodi:nodetypes="cc" />
    <path
       style="display:inline;fill:#333333;fill-rule:evenodd;stroke:#000000;stroke-width:1;stroke-linecap:butt;stroke-linejoin:miter;stroke-miterlimit:4;stroke-dasharray:none;stroke-opacity:1"
       d="m 339.64861,173.1352 18.56228,-8.8656"
       id="path6874"
       inkscape:connector-curvature="0"
       sodipodi:nodetypes="cc" />
    <path
       style="display:inline;fill:#333333;fill-rule:evenodd;stroke:#000000;stroke-width:1;stroke-linecap:butt;stroke-linejoin:miter;stroke-miterlimit:4;stroke-dasharray:none;stroke-opacity:1"
       d="m 339.06475,150.27888 11.19303,-4.20972"
       id="path6876"
       inkscape:connector-curvature="0"
       sodipodi:nodetypes="cc" />
    <path
       style="display:inline;fill:#333333;fill-rule:evenodd;stroke:#000000;stroke-width:1;stroke-linecap:butt;stroke-linejoin:miter;stroke-miterlimit:4;stroke-dasharray:none;stroke-opacity:1"
       d="m 324.51601,150.662 -9.59559,-5.62272"
       id="path6878"
       inkscape:connector-curvature="0"
       sodipodi:nodetypes="cc" />
    <path
       style="fill:#344144;fill-opacity:1;fill-rule:evenodd;stroke:#000000;stroke-width:1px;stroke-linecap:butt;stroke-linejoin:miter;stroke-opacity:1"
       d="m 285.9375,187.29687 c -0.41402,9.06597 -3.09902,14.89311 -14.45313,16.40625 l -2.95835,-14.84885 c 0,0 5.53789,-6.62113 17.41148,-1.5574 z"
       id="path6503"
       inkscape:connector-curvature="0"
       sodipodi:nodetypes="cccc" />
    <path
       style="fill:#e3e2db;fill-opacity:1;fill-rule:evenodd;stroke:#000000;stroke-width:1px;stroke-linecap:butt;stroke-linejoin:miter;stroke-opacity:1"
       d="m 276.07174,187.6883 10.18352,1.65728 11.2877,-1.47179 c 4.10108,2.54449 4.1737,3.33808 2.90024,5.52427 -4.56994,0.11003 -10.37934,-1.34056 -12.58905,1.00026 0.0376,12.77353 9.43306,7.13416 14.58905,10.31062 4.5186,10.69288 0.13845,13.93905 -2.48593,16.5867 -9.72018,-3.00432 -15.05867,-6.38456 -22.09708,-15.46796 l -4.88113,-10.98271"
       id="path6509"
       inkscape:connector-curvature="0"
       sodipodi:nodetypes="ccccccccc" />
    <path
       style="display:inline;fill:#535d6c;fill-opacity:1;fill-rule:evenodd;stroke:#000000;stroke-width:1px;stroke-linecap:butt;stroke-linejoin:miter;stroke-opacity:1"
       d="m 290.23573,194.17072 c 0,0 -9.60345,24.43439 -10.38507,39.22024 -0.17605,3.33031 5.50467,8.65746 7.8125,6.25 8.30199,-8.66038 12.10938,-42.18751 12.10938,-42.18751"
       id="path6302"
       inkscape:connector-curvature="0"
       sodipodi:nodetypes="cssc" />
    <path
       sodipodi:nodetypes="ccccccc"
       inkscape:connector-curvature="0"
       id="path4208"
       d="m 375.43642,188.56433 -6.35291,-1.24297 c -4.10108,2.54449 -4.1737,3.33808 -2.90024,5.52427 4.56994,0.11003 8.56262,-0.82164 10.77233,1.51918 -0.0376,12.77353 -5.62144,7.16767 -10.77743,10.34413 -4.5186,10.69288 -0.13845,13.93905 2.48593,16.5867 20.83983,-7.59277 12.8211,-27.05907 6.77232,-32.73131 z"
       style="fill:#e3e2db;fill-opacity:1;fill-rule:evenodd;stroke:#000000;stroke-width:1px;stroke-linecap:butt;stroke-linejoin:miter;stroke-opacity:1" />
    <path
       sodipodi:nodetypes="cssc"
       inkscape:connector-curvature="0"
       id="path6304"
       d="m 374.96551,193.48018 c 0,0 10.01777,25.12493 10.79939,39.91078 0.17605,3.33031 -5.50467,8.65746 -7.8125,6.25 -8.30199,-8.66038 -12.10938,-42.18751 -12.10938,-42.18751"
       style="display:inline;fill:#535d6c;fill-opacity:1;fill-rule:evenodd;stroke:#000000;stroke-width:1px;stroke-linecap:butt;stroke-linejoin:miter;stroke-opacity:1" />
    <path
       sodipodi:nodetypes="csccacc"
       inkscape:connector-curvature="0"
       id="path6507"
       d="m 244.12456,128.42546 c 0.87891,14.87232 1.47989,28.98084 7.73578,38.03931 8.30718,12.02871 34.07716,20.8321 34.07716,20.8321 -11.08164,1.83688 -12.3336,8.84058 -14.45313,16.40625 0,0 -28.9183,-11.55028 -37.80458,-23.41386 -7.25823,-9.69005 -9.67023,-35.00995 -9.67023,-35.00995 -3.46266,-10.99703 -4.2967,-43.09497 5.74904,-47.897272"
       style="fill:#53676c;fill-opacity:1;fill-rule:evenodd;stroke:#000000;stroke-width:1px;stroke-linecap:butt;stroke-linejoin:miter;stroke-opacity:1" />
    <path
       style="display:inline;fill:#535d6c;fill-opacity:1;fill-rule:evenodd;stroke:#000000;stroke-width:1px;stroke-linecap:butt;stroke-linejoin:miter;stroke-opacity:1"
       d="m 299.47135,264.6102 c 0,0 -3.59523,23.09563 1.65728,30.65971 2.31602,3.33527 10.04943,4.30158 12.1534,0.82864 4.74362,-7.83011 3.59078,-30.10728 3.59078,-30.10728"
       id="path6743"
       inkscape:connector-curvature="0"
       sodipodi:nodetypes="cssc" />
    <path
       sodipodi:nodetypes="cssc"
       inkscape:connector-curvature="0"
       id="path6745"
       d="m 365.7908,264.6102 c 0,0 3.59523,23.09563 -1.65728,30.65971 -2.31602,3.33527 -10.04943,4.30158 -12.1534,0.82864 -4.74362,-7.83011 -3.59078,-30.10728 -3.59078,-30.10728"
       style="display:inline;fill:#535d6c;fill-opacity:1;fill-rule:evenodd;stroke:#000000;stroke-width:1px;stroke-linecap:butt;stroke-linejoin:miter;stroke-opacity:1" />
  </g>
  <g
     inkscape:label="table"
     inkscape:groupmode="layer"
     id="layer1"
     transform="translate(0,-452.36216)"
     style="display:inline">
    <path
       sodipodi:nodetypes="ccccccc"
       style="fill:#f9f9f9;fill-rule:evenodd;stroke:#000000;stroke-width:1px;stroke-linecap:butt;stroke-linejoin:miter;stroke-opacity:1"
       d="m 75.242706,986.05418 5.388949,14.33392 -10.09727,5.2071 -11.367956,-1.2677 -1.620325,-10.13723 4.121193,-7.80962 z"
       id="path7741"
       inkscape:connector-curvature="0" />
    <path
       sodipodi:nodetypes="ccccc"
       inkscape:connector-curvature="0"
       id="path6680"
       d="m 268.5625,854.72624 0,128.90154 c 2.86458,2.25477 5.72917,2.61167 8.59375,-0.0753 l 0,-128.82623 z"
       style="fill:#4d4d4d;fill-opacity:1;fill-rule:evenodd;stroke:#000000;stroke-width:1px;stroke-linecap:butt;stroke-linejoin:miter;stroke-opacity:1" />
    <path
       style="fill:#4d4d4d;fill-opacity:1;fill-rule:evenodd;stroke:#000000;stroke-width:1px;stroke-linecap:butt;stroke-linejoin:miter;stroke-opacity:1"
       d="m 394.5625,856.72624 0,128.90154 c 2.86458,2.25477 5.72917,2.61167 8.59375,-0.0753 l 0,-128.82623 z"
       id="path6678"
       inkscape:connector-curvature="0"
       sodipodi:nodetypes="ccccc" />
    <path
       sodipodi:nodetypes="ccccc"
       inkscape:connector-curvature="0"
       id="path6676"
       d="m 400.5625,880.72624 0,128.90156 c 2.86458,2.2548 5.72917,2.6117 8.59375,-0.075 l 0,-128.82625 z"
       style="fill:#4d4d4d;fill-opacity:1;fill-rule:evenodd;stroke:#000000;stroke-width:1px;stroke-linecap:butt;stroke-linejoin:miter;stroke-opacity:1" />
    <path
       style="fill:#4d4d4d;fill-opacity:1;fill-rule:evenodd;stroke:#000000;stroke-width:1px;stroke-linecap:butt;stroke-linejoin:miter;stroke-opacity:1"
       d="m 276.5625,880.72624 0,128.90156 c 2.86458,2.2548 5.72917,2.6117 8.59375,-0.075 l 0,-128.82625 z"
       id="path6674"
       inkscape:connector-curvature="0"
       sodipodi:nodetypes="ccccc" />
    <path
       style="fill:#333333;fill-rule:evenodd;stroke:#000000;stroke-width:1px;stroke-linecap:butt;stroke-linejoin:miter;stroke-opacity:1"
       d="m 261.51879,844.64591 7.62185,48.26312 c 49.67163,7.92061 99.56991,7.22856 149.60937,1.17188 l -9.13683,-49.18808 z"
       id="path6666"
       inkscape:connector-curvature="0"
       sodipodi:nodetypes="ccccc" />
    <path
       inkscape:connector-curvature="0"
       id="path5152"
       d="m 547,839.36216 14,0 0,161.50004 c -4.77611,4.9249 -9.45935,5.6707 -14,0 z"
       style="fill:#4d4d4d;fill-rule:evenodd;stroke:#000000;stroke-width:1px;stroke-linecap:butt;stroke-linejoin:miter;stroke-opacity:1"
       sodipodi:nodetypes="ccccc" />
    <path
       style="fill:#4d4d4d;fill-rule:evenodd;stroke:#000000;stroke-width:1px;stroke-linecap:butt;stroke-linejoin:miter;stroke-opacity:1"
       d="m 555.5,868.36216 14,0 0,161.50004 c -4.66667,3.7891 -9.33333,3.988 -14,0 z"
       id="path5154"
       inkscape:connector-curvature="0"
       sodipodi:nodetypes="ccccc" />
    <path
       style="fill:#4d4d4d;fill-rule:evenodd;stroke:#000000;stroke-width:1px;stroke-linecap:butt;stroke-linejoin:miter;stroke-opacity:1"
       d="m 132.5,839.36216 14,0 0,161.50004 c -6.383,5.578 -10.22643,2.9025 -14,0 z"
       id="path5150"
       inkscape:connector-curvature="0"
       sodipodi:nodetypes="ccccc" />
    <path
       style="fill:#f9f9f9;fill-rule:evenodd;stroke:#000000;stroke-width:0.9463948px;stroke-linecap:butt;stroke-linejoin:miter;stroke-opacity:1"
       d="m 148.06308,1007.5652 2.34552,15.3826 78.9657,0 -7.03655,-16.0819 z"
       id="path7755"
       inkscape:connector-curvature="0" />
    <path
       inkscape:connector-curvature="0"
       id="path5156"
       d="m 143,867.36216 14,0 0,161.50004 c -4.33333,3.6667 -9,3.6667 -14,0 z"
       style="fill:#4d4d4d;fill-rule:evenodd;stroke:#000000;stroke-width:1px;stroke-linecap:butt;stroke-linejoin:miter;stroke-opacity:1"
       sodipodi:nodetypes="ccccc" />
    <path
       sodipodi:nodetypes="ccccc"
       inkscape:connector-curvature="0"
       id="path7717"
       d="m 130.84867,883.11521 -7.88821,-53.75305 445.72034,0.27621 12.52402,53.64718 z"
       style="fill:#333333;fill-rule:evenodd;stroke:#000000;stroke-width:1px;stroke-linecap:butt;stroke-linejoin:miter;stroke-opacity:1" />
    <path
       style="fill:#666666;fill-rule:evenodd;stroke:#000000;stroke-width:1px;stroke-linecap:butt;stroke-linejoin:miter;stroke-opacity:1"
       d="m 130.84867,881.11521 -7.88821,-53.75305 445.72034,0.27621 12.52402,53.64718 z"
       id="path5069"
       inkscape:connector-curvature="0"
       sodipodi:nodetypes="ccccc" />
    <path
       inkscape:connector-curvature="0"
       id="path6721"
       d="m 392.09375,833.73716 2.34375,17.1875 78.90625,0 -7.03125,-17.96875 z"
       style="fill:#f9f9f9;fill-rule:evenodd;stroke:#000000;stroke-width:1px;stroke-linecap:butt;stroke-linejoin:miter;stroke-opacity:1" />
    <path
       style="fill:#cccccc;fill-rule:evenodd;stroke:#000000;stroke-width:1px;stroke-linecap:butt;stroke-linejoin:miter;stroke-opacity:1"
       d="m 304.89624,871.86216 -2.1861,-12 120.50776,0 2.41363,12 z"
       id="path5079"
       inkscape:connector-curvature="0" />
    <path
       style="fill:#f9f9f9;fill-rule:evenodd;stroke:#000000;stroke-width:1px;stroke-linecap:butt;stroke-linejoin:miter;stroke-opacity:1"
       d="m 298.09375,839.73716 2.34375,17.1875 78.90625,0 -7.03125,-17.96875 z"
       id="path6695"
       inkscape:connector-curvature="0" />
    <path
       inkscape:connector-curvature="0"
       id="path6697"
       d="m 294.09375,837.73716 2.34375,17.1875 78.90625,0 -7.03125,-17.96875 z"
       style="fill:#f9f9f9;fill-rule:evenodd;stroke:#000000;stroke-width:1px;stroke-linecap:butt;stroke-linejoin:miter;stroke-opacity:1" />
    <path
       style="fill:#f9f9f9;fill-rule:evenodd;stroke:#000000;stroke-width:1px;stroke-linecap:butt;stroke-linejoin:miter;stroke-opacity:1"
       d="m 290.09375,835.73716 2.34375,17.1875 78.90625,0 -7.03125,-17.96875 z"
       id="path6699"
       inkscape:connector-curvature="0" />
    <path
       inkscape:connector-curvature="0"
       id="path6701"
       d="m 292.09375,833.73716 2.34375,17.1875 78.90625,0 -7.03125,-17.96875 z"
       style="fill:#f9f9f9;fill-rule:evenodd;stroke:#000000;stroke-width:1px;stroke-linecap:butt;stroke-linejoin:miter;stroke-opacity:1" />
    <path
       style="fill:#f9f9f9;fill-rule:evenodd;stroke:#000000;stroke-width:1px;stroke-linecap:butt;stroke-linejoin:miter;stroke-opacity:1"
       d="m 292.09375,829.73716 2.34375,17.1875 78.90625,0 -7.03125,-17.96875 z"
       id="path6703"
       inkscape:connector-curvature="0" />
    <path
       style="fill:#808080;fill-rule:evenodd;stroke:#000000;stroke-width:1px;stroke-linecap:butt;stroke-linejoin:miter;stroke-opacity:1"
       d="m 302.71014,859.86216 6.03986,-12 121.5,0 -7.0321,12 z"
       id="path5091"
       inkscape:connector-curvature="0" />
    <path
       style="fill:#f9f9f9;fill-rule:evenodd;stroke:#000000;stroke-width:1px;stroke-linecap:butt;stroke-linejoin:miter;stroke-opacity:1"
       d="m 392.09375,831.73716 2.34375,17.1875 78.90625,0 -7.03125,-17.96875 z"
       id="path6723"
       inkscape:connector-curvature="0" />
    <path
       inkscape:connector-curvature="0"
       id="path6725"
       d="m 398.09375,831.73716 2.34375,17.1875 78.90625,0 -7.03125,-17.96875 z"
       style="fill:#f9f9f9;fill-rule:evenodd;stroke:#000000;stroke-width:1px;stroke-linecap:butt;stroke-linejoin:miter;stroke-opacity:1" />
    <path
       style="fill:#f9f9f9;fill-rule:evenodd;stroke:#000000;stroke-width:1px;stroke-linecap:butt;stroke-linejoin:miter;stroke-opacity:1"
       d="m 398.09375,829.73716 2.34375,17.1875 78.90625,0 -7.03125,-17.96875 z"
       id="path6727"
       inkscape:connector-curvature="0" />
    <path
       style="fill:#fff6d5;fill-rule:evenodd;stroke:#000000;stroke-width:1px;stroke-linecap:butt;stroke-linejoin:miter;stroke-opacity:1"
       d="m 304.89624,871.86216 3.85376,-24 121.5,0 -4.61847,24 z"
       id="path5093"
       inkscape:connector-curvature="0" />
    <text
       xml:space="preserve"
       style="font-style:normal;font-weight:normal;font-size:15.45560837px;line-height:125%;font-family:Sans;letter-spacing:0px;word-spacing:0px;fill:#554400;fill-opacity:1;stroke:none;stroke-width:1px;stroke-linecap:butt;stroke-linejoin:miter;stroke-opacity:1"
       x="372.47208"
       y="908.0766"
       id="text5097"
       sodipodi:linespacing="125%"
       transform="matrix(1.0513983,0,-0.07730222,0.95111434,0,0)"><tspan
         sodipodi:role="line"
         id="tspan5099"
         x="372.47208"
         y="908.0766">peer review</tspan></text>
    <path
       style="fill:#f9f9f9;fill-rule:evenodd;stroke:#000000;stroke-width:1px;stroke-linecap:butt;stroke-linejoin:miter;stroke-opacity:1"
       d="m 196.09375,841.73716 2.34375,17.1875 78.90625,0 -7.03125,-17.96875 z"
       id="path6687"
       inkscape:connector-curvature="0" />
    <path
       inkscape:connector-curvature="0"
       id="path6689"
       d="m 196.09375,839.73716 2.34375,17.1875 78.90625,0 -7.03125,-17.96875 z"
       style="fill:#f9f9f9;fill-rule:evenodd;stroke:#000000;stroke-width:1px;stroke-linecap:butt;stroke-linejoin:miter;stroke-opacity:1" />
    <path
       style="fill:#f9f9f9;fill-rule:evenodd;stroke:#000000;stroke-width:1px;stroke-linecap:butt;stroke-linejoin:miter;stroke-opacity:1"
       d="m 196.09375,837.73716 2.34375,17.1875 78.90625,0 -7.03125,-17.96875 z"
       id="path6691"
       inkscape:connector-curvature="0" />
    <path
       inkscape:connector-curvature="0"
       id="path6693"
       d="m 196.09375,835.73716 2.34375,17.1875 78.90625,0 -7.03125,-17.96875 z"
       style="fill:#f9f9f9;fill-rule:evenodd;stroke:#000000;stroke-width:1px;stroke-linecap:butt;stroke-linejoin:miter;stroke-opacity:1" />
    <path
       inkscape:connector-curvature="0"
       id="path6705"
       d="m 294.09375,827.73716 2.34375,17.1875 78.90625,0 -7.03125,-17.96875 z"
       style="fill:#f9f9f9;fill-rule:evenodd;stroke:#000000;stroke-width:1px;stroke-linecap:butt;stroke-linejoin:miter;stroke-opacity:1" />
    <path
       style="fill:#f9f9f9;fill-rule:evenodd;stroke:#000000;stroke-width:1px;stroke-linecap:butt;stroke-linejoin:miter;stroke-opacity:1"
       d="m 292.09375,825.73716 2.34375,17.1875 78.90625,0 -7.03125,-17.96875 z"
       id="path6707"
       inkscape:connector-curvature="0" />
    <path
       inkscape:connector-curvature="0"
       id="path6709"
       d="m 294.09375,823.73716 2.34375,17.1875 78.90625,0 -7.03125,-17.96875 z"
       style="fill:#f9f9f9;fill-rule:evenodd;stroke:#000000;stroke-width:1px;stroke-linecap:butt;stroke-linejoin:miter;stroke-opacity:1" />
    <path
       style="fill:#f9f9f9;fill-rule:evenodd;stroke:#000000;stroke-width:1px;stroke-linecap:butt;stroke-linejoin:miter;stroke-opacity:1"
       d="m 292.09375,821.73716 2.34375,17.1875 78.90625,0 -7.03125,-17.96875 z"
       id="path6711"
       inkscape:connector-curvature="0" />
    <path
       inkscape:connector-curvature="0"
       id="path6713"
       d="m 294.09375,819.73716 2.34375,17.1875 78.90625,0 -7.03125,-17.96875 z"
       style="fill:#f9f9f9;fill-rule:evenodd;stroke:#000000;stroke-width:1px;stroke-linecap:butt;stroke-linejoin:miter;stroke-opacity:1" />
    <path
       style="fill:#f9f9f9;fill-rule:evenodd;stroke:#000000;stroke-width:1px;stroke-linecap:butt;stroke-linejoin:miter;stroke-opacity:1"
       d="m 292.09375,817.73716 2.34375,17.1875 78.90625,0 -7.03125,-17.96875 z"
       id="path6715"
       inkscape:connector-curvature="0" />
    <path
       inkscape:connector-curvature="0"
       id="path6717"
       d="m 294.09375,815.73716 2.34375,17.1875 78.90625,0 -7.03125,-17.96875 z"
       style="fill:#f9f9f9;fill-rule:evenodd;stroke:#000000;stroke-width:1px;stroke-linecap:butt;stroke-linejoin:miter;stroke-opacity:1" />
    <path
       style="fill:#f9f9f9;fill-rule:evenodd;stroke:#000000;stroke-width:1px;stroke-linecap:butt;stroke-linejoin:miter;stroke-opacity:1"
       d="m 294.09375,813.73716 2.34375,17.1875 78.90625,0 -7.03125,-17.96875 z"
       id="path6719"
       inkscape:connector-curvature="0" />
    <path
       inkscape:connector-curvature="0"
       id="path6729"
       d="m 398.09375,827.73716 2.34375,17.1875 78.90625,0 -7.03125,-17.96875 z"
       style="fill:#f9f9f9;fill-rule:evenodd;stroke:#000000;stroke-width:1px;stroke-linecap:butt;stroke-linejoin:miter;stroke-opacity:1" />
    <path
       style="fill:#f9f9f9;fill-rule:evenodd;stroke:#000000;stroke-width:1px;stroke-linecap:butt;stroke-linejoin:miter;stroke-opacity:1"
       d="m 402.09375,827.73716 2.34375,17.1875 78.90625,0 -7.03125,-17.96875 z"
       id="path6731"
       inkscape:connector-curvature="0" />
    <path
       inkscape:connector-curvature="0"
       id="path6733"
       d="m 398.09375,823.73716 2.34375,17.1875 78.90625,0 -7.03125,-17.96875 z"
       style="fill:#f9f9f9;fill-rule:evenodd;stroke:#000000;stroke-width:1px;stroke-linecap:butt;stroke-linejoin:miter;stroke-opacity:1" />
    <path
       style="fill:#f9f9f9;fill-rule:evenodd;stroke:#000000;stroke-width:1px;stroke-linecap:butt;stroke-linejoin:miter;stroke-opacity:1"
       d="m 400.09375,825.73716 2.34375,17.1875 78.90625,0 -7.03125,-17.96875 z"
       id="path6735"
       inkscape:connector-curvature="0" />
    <path
       inkscape:connector-curvature="0"
       id="path6737"
       d="m 400.09375,823.73716 2.34375,17.1875 78.90625,0 -7.03125,-17.96875 z"
       style="fill:#f9f9f9;fill-rule:evenodd;stroke:#000000;stroke-width:1px;stroke-linecap:butt;stroke-linejoin:miter;stroke-opacity:1" />
    <path
       style="fill:#f9f9f9;fill-rule:evenodd;stroke:#000000;stroke-width:1px;stroke-linecap:butt;stroke-linejoin:miter;stroke-opacity:1"
       d="m 402.09375,821.73716 2.34375,17.1875 78.90625,0 -7.03125,-17.96875 z"
       id="path6739"
       inkscape:connector-curvature="0" />
    <path
       style="fill:#f9f9f9;fill-rule:evenodd;stroke:#000000;stroke-width:1px;stroke-linecap:butt;stroke-linejoin:miter;stroke-opacity:1"
       d="m 198.09375,837.73716 2.34375,17.1875 78.90625,0 -7.03125,-17.96875 z"
       id="path6741"
       inkscape:connector-curvature="0" />
    <path
       style="fill:none;fill-rule:evenodd;stroke:#000000;stroke-width:1px;stroke-linecap:butt;stroke-linejoin:miter;stroke-opacity:1"
       d="m 581.27732,881.39761 -0.0273,2.16572"
       id="path7719"
       inkscape:connector-curvature="0" />
    <path
       style="fill:none;fill-rule:evenodd;stroke:#000000;stroke-width:1px;stroke-linecap:butt;stroke-linejoin:miter;stroke-opacity:1"
       d="m 130.95703,881.0731 -0.0977,2.05078"
       id="path7721"
       inkscape:connector-curvature="0" />
    <path
       inkscape:connector-curvature="0"
       id="path7723"
       d="m 198.09375,835.73716 2.34375,17.1875 78.90625,0 -7.03125,-17.96875 z"
       style="fill:#f9f9f9;fill-rule:evenodd;stroke:#000000;stroke-width:1px;stroke-linecap:butt;stroke-linejoin:miter;stroke-opacity:1" />
    <path
       style="fill:#f9f9f9;fill-rule:evenodd;stroke:#000000;stroke-width:1px;stroke-linecap:butt;stroke-linejoin:miter;stroke-opacity:1"
       d="m 200.09375,833.73716 2.34375,17.1875 78.90625,0 -7.03125,-17.96875 z"
       id="path7725"
       inkscape:connector-curvature="0" />
    <path
       inkscape:connector-curvature="0"
       id="path7727"
       d="m 200.09375,831.73716 2.34375,17.1875 78.90625,0 -7.03125,-17.96875 z"
       style="fill:#f9f9f9;fill-rule:evenodd;stroke:#000000;stroke-width:1px;stroke-linecap:butt;stroke-linejoin:miter;stroke-opacity:1" />
    <path
       style="fill:#f9f9f9;fill-rule:evenodd;stroke:#000000;stroke-width:1px;stroke-linecap:butt;stroke-linejoin:miter;stroke-opacity:1"
       d="m 200.09375,829.73716 2.34375,17.1875 78.90625,0 -7.03125,-17.96875 z"
       id="path7729"
       inkscape:connector-curvature="0" />
    <path
       inkscape:connector-curvature="0"
       id="path7733"
       d="m 60.522148,989.96043 -2.950417,10.56577 8.163774,8.2455 11.64417,-4.4442 L 79,994.19027 71.265526,986.47831 Z"
       style="fill:#f9f9f9;fill-rule:evenodd;stroke:#000000;stroke-width:1px;stroke-linecap:butt;stroke-linejoin:miter;stroke-opacity:1"
       sodipodi:nodetypes="ccccccc" />
    <path
       style="fill:none;fill-rule:evenodd;stroke:#000000;stroke-width:1px;stroke-linecap:butt;stroke-linejoin:miter;stroke-opacity:1"
       d="m 78.663955,994.52723 -12.291504,-2.48592 -4.695631,7.04346"
       id="path7735"
       inkscape:connector-curvature="0" />
    <path
       style="fill:none;fill-rule:evenodd;stroke:#000000;stroke-width:1px;stroke-linecap:butt;stroke-linejoin:miter;stroke-opacity:1"
       d="m 59.190898,998.25607 7.595873,6.49113 6.214806,-5.93863"
       id="path7737"
       inkscape:connector-curvature="0" />
    <path
       style="fill:none;fill-rule:evenodd;stroke:#000000;stroke-width:1px;stroke-linecap:butt;stroke-linejoin:miter;stroke-opacity:1"
       d="m 68.858373,996.46077 7.595874,0.8286"
       id="path7739"
       inkscape:connector-curvature="0" />
    <path
       inkscape:connector-curvature="0"
       id="path7743"
       d="m 32.778184,991.53016 -5.388949,14.33394 10.09727,5.2071 11.367956,-1.2677 1.620325,-10.13725 -4.121193,-7.80959 z"
       style="fill:#f9f9f9;fill-rule:evenodd;stroke:#000000;stroke-width:1px;stroke-linecap:butt;stroke-linejoin:miter;stroke-opacity:1"
       sodipodi:nodetypes="ccccccc" />
    <path
       sodipodi:nodetypes="ccccccc"
       style="fill:#f9f9f9;fill-rule:evenodd;stroke:#000000;stroke-width:1px;stroke-linecap:butt;stroke-linejoin:miter;stroke-opacity:1"
       d="m 47.498742,1007.7892 2.950417,-9.18476 -8.163774,-8.2455 -11.64417,4.4442 -4.658674,12.07076 11.32525,4.3974 z"
       id="path7745"
       inkscape:connector-curvature="0" />
    <path
       inkscape:connector-curvature="0"
       id="path7747"
       d="m 34.466886,1004.3273 7.31966,-0.2762 1.519175,-6.9055"
       style="fill:none;fill-rule:evenodd;stroke:#000000;stroke-width:1px;stroke-linecap:butt;stroke-linejoin:miter;stroke-opacity:1"
       sodipodi:nodetypes="ccc" />
    <path
       inkscape:connector-curvature="0"
       id="path7751"
       d="m 39.02441,996.04072 -7.457767,5.80058"
       style="fill:none;fill-rule:evenodd;stroke:#000000;stroke-width:1px;stroke-linecap:butt;stroke-linejoin:miter;stroke-opacity:1"
       sodipodi:nodetypes="cc" />
    <path
       inkscape:connector-curvature="0"
       id="path7753"
       d="m 176.054,998.08716 2.34604,14.86754 78.9833,0 -7.03811,-15.54338 z"
       style="fill:#f9f9f9;fill-rule:evenodd;stroke:#000000;stroke-width:0.93051934px;stroke-linecap:butt;stroke-linejoin:miter;stroke-opacity:1" />
  </g>
</svg>
