<?xml version="1.0" encoding="UTF-8" standalone="no"?>
<!-- Created with Inkscape (http://www.inkscape.org/) -->

<svg
   xmlns:dc="http://purl.org/dc/elements/1.1/"
   xmlns:cc="http://creativecommons.org/ns#"
   xmlns:rdf="http://www.w3.org/1999/02/22-rdf-syntax-ns#"
   xmlns:svg="http://www.w3.org/2000/svg"
   xmlns="http://www.w3.org/2000/svg"
   xmlns:sodipodi="http://sodipodi.sourceforge.net/DTD/sodipodi-0.dtd"
   xmlns:inkscape="http://www.inkscape.org/namespaces/inkscape"
   width="800"
   height="400"
   viewBox="0 0 800.00001 400.00001"
   id="svg5831"
   version="1.1"
   inkscape:version="0.91 r13725"
   sodipodi:docname="search-keywords.svg">
  <defs
     id="defs5833">
    <filter
       inkscape:collect="always"
       style="color-interpolation-filters:sRGB"
       id="filter6756"
       x="-0.0098712323"
       width="1.0197425"
       y="-0.015299364"
       height="1.0305987">
      <feGaussianBlur
         inkscape:collect="always"
         stdDeviation="1.2927967"
         id="feGaussianBlur6758" />
    </filter>
  </defs>
  <sodipodi:namedview
     id="base"
     pagecolor="#ffffff"
     bordercolor="#666666"
     borderopacity="1.0"
     inkscape:pageopacity="0.0"
     inkscape:pageshadow="2"
     inkscape:zoom="2.8284271"
     inkscape:cx="335.36775"
     inkscape:cy="186.64401"
     inkscape:document-units="px"
     inkscape:current-layer="layer3"
     showgrid="false"
     units="px"
     inkscape:snap-page="true"
     showguides="true"
     inkscape:guide-bbox="true"
     inkscape:window-width="1920"
     inkscape:window-height="1099"
     inkscape:window-x="0"
     inkscape:window-y="28"
     inkscape:window-maximized="1" />
  <metadata
     id="metadata5836">
    <rdf:RDF>
      <cc:Work
         rdf:about="">
        <dc:format>image/svg+xml</dc:format>
        <dc:type
           rdf:resource="http://purl.org/dc/dcmitype/StillImage" />
        <dc:title />
      </cc:Work>
    </rdf:RDF>
  </metadata>
  <g
     inkscape:label="Layer 1"
     inkscape:groupmode="layer"
     id="layer1"
     transform="translate(0,-652.36216)">
    <path
       style="fill:#0c0c0c;fill-rule:evenodd;stroke:#000000;stroke-width:1px;stroke-linecap:butt;stroke-linejoin:miter;stroke-opacity:1;fill-opacity:1"
       d="m 0,652.36216 800,0 0,400.00004 -800,0 z"
       id="path6379"
       inkscape:connector-curvature="0" />
    <path
       inkscape:connector-curvature="0"
       id="path6785"
       d="M 70.352112,998.34816 558.13238,1038.1575 762.2858,912.70104 274.50552,872.89181 Z"
       style="fill:#15151f;fill-opacity:1;fill-rule:evenodd;stroke:#000000;stroke-width:3.71712923px;stroke-linecap:butt;stroke-linejoin:miter;stroke-opacity:1" />
  </g>
  <g
     inkscape:groupmode="layer"
     id="layer3"
     inkscape:label="monitor">
    <path
       style="fill:#000000;fill-rule:evenodd;stroke:#000000;stroke-width:1px;stroke-linecap:butt;stroke-linejoin:miter;stroke-opacity:1"
       d="m 284.78396,209.93927 0,-198.53029 7.52069,-4.3423397 332.84567,23.2748297 -10e-6,198.91255 -7.52109,3.96005 z"
       id="path6690"
       inkscape:connector-curvature="0" />
    <path
       style="opacity:1;fill:#d0d0e8;fill-opacity:1;fill-rule:evenodd;stroke:#000000;stroke-width:1px;stroke-linecap:butt;stroke-linejoin:miter;stroke-opacity:1;filter:url(#filter6756)"
       d="m 293.02666,201.15881 0,-180.820766 314.31861,21.979298 0,180.820758 z"
       id="path6525"
       inkscape:connector-curvature="0" />
    <path
       style="fill:#000000;fill-rule:evenodd;stroke:#000000;stroke-width:1px;stroke-linecap:butt;stroke-linejoin:miter;stroke-opacity:1"
       d="m 417.02146,219.18621 14.19152,52.96349 56.04572,6.24407 -14.8264,-55.33285 z"
       id="path6700"
       inkscape:connector-curvature="0" />
    <path
       style="fill:#000000;fill-rule:evenodd;stroke:#000000;stroke-width:1px;stroke-linecap:butt;stroke-linejoin:miter;stroke-opacity:1"
       d="m 358.04492,281.5504 141.7668,9.9133 59.33446,-31.24117 -141.76681,-9.9133 z"
       id="path6706"
       inkscape:connector-curvature="0" />
    <text
       xml:space="preserve"
       style="font-style:italic;font-variant:normal;font-weight:normal;font-stretch:normal;font-size:15px;line-height:125%;font-family:Sans;-inkscape-font-specification:'Sans Italic';letter-spacing:0px;word-spacing:0px;fill:#000000;fill-opacity:1;stroke:none;stroke-width:1px;stroke-linecap:butt;stroke-linejoin:miter;stroke-opacity:1"
       x="322.37103"
       y="17.694927"
       id="text6760"
       sodipodi:linespacing="125%"
       transform="matrix(0.99783075,0.06583155,-0.06583155,0.99783075,0,0)"><tspan
         sodipodi:role="line"
         id="tspan6762"
         x="322.37103"
         y="17.694927">alexa.com/siteinfo/theasocial.com</tspan></text>
    <path
       inkscape:connector-curvature="0"
       id="path6781"
       d="m 239.10221,339.07749 176.12297,12.65757 63.04134,-33.19294 -176.12298,-12.65757 z"
       style="fill:#000000;fill-rule:evenodd;stroke:#000000;stroke-width:1.06247437px;stroke-linecap:butt;stroke-linejoin:miter;stroke-opacity:1"
       sodipodi:nodetypes="ccccc" />
    <text
       transform="matrix(0.99783075,0.06583155,-0.06583155,0.99783075,0,0)"
       sodipodi:linespacing="125%"
       id="text6825"
       y="49.209805"
       x="300.39783"
       style="font-style:normal;font-variant:normal;font-weight:bold;font-stretch:normal;font-size:15px;line-height:125%;font-family:Sans;-inkscape-font-specification:'Sans Bold';letter-spacing:0px;word-spacing:0px;fill:#000000;fill-opacity:1;stroke:none;stroke-width:1px;stroke-linecap:butt;stroke-linejoin:miter;stroke-opacity:1"
       xml:space="preserve"><tspan
         y="49.209805"
         x="300.39783"
         id="tspan6827"
         sodipodi:role="line"> Top Keywords from Search Engines </tspan></text>
    <text
       xml:space="preserve"
       style="font-style:normal;font-weight:normal;font-size:16.25px;line-height:125%;font-family:Sans;letter-spacing:0px;word-spacing:0px;fill:#000000;fill-opacity:1;stroke:none;stroke-width:1px;stroke-linecap:butt;stroke-linejoin:miter;stroke-opacity:1"
       x="304.8949"
       y="86.995712"
       id="text6829"
       sodipodi:linespacing="125%"
       transform="matrix(0.99783075,0.06583155,-0.06583155,0.99783075,0,0)"><tspan
         sodipodi:role="line"
         id="tspan6831"
         x="304.8949"
         y="86.995712"
         style="font-size:12.5px"> 1.  prestashop ass comodo trustlogo     93.13%</tspan><tspan
         sodipodi:role="line"
         x="304.8949"
         y="102.62071"
         style="font-size:12.5px"
         id="tspan6833"> 2.  ssl site seal logos lets ebcrypt            4.23%</tspan><tspan
         sodipodi:role="line"
         x="304.8949"
         y="118.24571"
         style="font-size:12.5px"
         id="tspan6835"> 3.  ssl site seal logos letsencrypt             2.59%</tspan><tspan
         sodipodi:role="line"
         x="304.8949"
         y="133.87071"
         style="font-size:12.5px"
         id="tspan6837"> 4.  comodo attacking let's encrypt           0.06%</tspan></text>
  </g>
  <g
     inkscape:groupmode="layer"
     id="layer2"
     inkscape:label="loner">
    <path
       style="display:inline;fill:#dcdbd2;fill-opacity:1;fill-rule:evenodd;stroke:#000000;stroke-width:2.46142626px;stroke-linecap:butt;stroke-linejoin:miter;stroke-opacity:1"
       d="m 209.21077,232.58514 c 6.51473,-16.74443 4.89957,-19.34658 7.70308,-23.84278 l 36.73618,4.84987 c 2.82457,10.73574 7.30533,20.33025 5.38458,25.49946 -38.52725,13.82888 -47.41289,4.00064 -49.60226,-4.73391 z"
       id="path6740-8-7"
       inkscape:connector-curvature="0"
       sodipodi:nodetypes="cccccc" />
    <path
       style="fill:#374845;fill-opacity:1;fill-rule:evenodd;stroke:#000000;stroke-width:2.48160315px;stroke-linecap:butt;stroke-linejoin:miter;stroke-opacity:1"
       d="m 219.5783,159.46209 c -7.99139,8.42167 -22.87164,35.7038 -21.71403,48.08106 -14.58949,-9.56082 -8.01301,-42.89523 -0.66472,-58.93807"
       id="path21357-40-0-9"
       inkscape:connector-curvature="0"
       sodipodi:nodetypes="ccc" />
    <path
       style="fill:#374845;fill-opacity:1;fill-rule:evenodd;stroke:#000000;stroke-width:2.48160315px;stroke-linecap:butt;stroke-linejoin:miter;stroke-opacity:1"
       d="m 207.78607,211.58182 c 2.89524,8.8648 7.80476,15.98391 6.64714,28.36117 8.45267,-7.85614 11.54921,-19.28304 16.83947,-29.24746"
       id="path21357-4"
       inkscape:connector-curvature="0"
       sodipodi:nodetypes="ccc" />
    <path
       style="fill:#e3e2db;fill-opacity:1;fill-rule:evenodd;stroke:#000000;stroke-width:2.48160315px;stroke-linecap:butt;stroke-linejoin:miter;stroke-opacity:1"
       d="m 268.57155,94.228221 c -87.98395,1.62579 -50.77172,131.788099 1.2534,129.726769 13.7176,-0.54352 12.98445,1.85969 22.5818,-4.84883 5.23442,-3.65885 15.70046,-28.7933 14.45548,-39.08557 -0.30062,-2.48508 8.18014,-0.4506 7.31905,-3.31609 -2.74441,-9.30769 -6.89625,-15.08504 -8.71529,-22.13456 -0.93756,-3.63334 0.42327,-9.53728 0.85437,-13.84267 3.6022,-35.6736 -13.76078,-46.942359 -37.74988,-46.499049 z"
       id="path5566"
       inkscape:connector-curvature="0"
       sodipodi:nodetypes="cssscscsc" />
    <path
       sodipodi:nodetypes="ccccc"
       inkscape:connector-curvature="0"
       id="path21343-3"
       d="m 271.65133,225.22369 c -22.04181,-4.91265 -21.0078,-14.69171 -24.00069,-32.47891 l 21.26649,2.77718 c 20.84058,12.44842 21.90093,13.96225 32.93804,8.66681 2.92898,21.69711 -21.31722,27.92062 -30.20384,21.03492 z"
       style="display:inline;opacity:0.3;fill:#374845;fill-opacity:1;stroke:#1f241c;stroke-width:0.21756144;stroke-linejoin:round;stroke-miterlimit:4;stroke-dasharray:none;stroke-dashoffset:0;stroke-opacity:1" />
    <path
       style="fill:#374845;fill-opacity:1;fill-rule:evenodd;stroke:#000000;stroke-width:2.48160315px;stroke-linecap:butt;stroke-linejoin:miter;stroke-opacity:1"
       d="m 306.48421,114.64915 c 4.20408,17.48997 1.11715,22.60897 -0.63495,28.7133 -2.60958,-9.78631 -4.92393,-11.04214 -6.30346,-13.73379 -13.00149,21.80339 -5.23265,25.36483 -1.89188,36.29368 -13.76616,4.42264 -5.49711,13.31541 -1.79214,25.46158 -15.83476,15.08527 -25.61697,41.40576 -38.96942,49.91555 -3.80373,-10.52649 -6.06856,-10.69844 -18.08903,-20.47797 -12.46322,14.50651 -26.88821,6.37968 -33.84176,10.65389 2.62951,-19.42436 -3.30128,-30.32098 -9.71385,-51.38937 -15.12435,-60.72736 40.73734,-112.358403 88.08873,-88.570439 8.05313,3.6811 16.02949,12.202779 23.14776,23.133569 z"
       id="path5568"
       inkscape:connector-curvature="0"
       sodipodi:nodetypes="ccccccccccc" />
    <path
       style="fill:#f0dbdb;fill-opacity:1;fill-rule:evenodd;stroke:#000000;stroke-width:1.24080157;stroke-linecap:butt;stroke-linejoin:miter;stroke-miterlimit:4;stroke-dasharray:none;stroke-opacity:1"
       d="m 303.85806,152.58972 c -1.06586,-0.13983 -2.16608,-0.21789 -2.71967,2.3694 2.44238,3.07526 3.62196,3.18508 4.65844,3.4485 -0.81496,-2.69416 -0.79805,-3.72422 -1.93877,-5.8179 z"
       id="path5589"
       inkscape:connector-curvature="0"
       sodipodi:nodetypes="cccc" />
    <path
       sodipodi:nodetypes="cc"
       inkscape:connector-curvature="0"
       id="path21319-3"
       d="m 304.05596,145.40188 c -1.72596,-0.21094 -2.77591,0.0476 -3.98811,1.69426"
       style="display:inline;fill:none;fill-rule:evenodd;stroke:#484537;stroke-width:2.95310783;stroke-linecap:round;stroke-linejoin:round;stroke-miterlimit:4;stroke-dasharray:none;stroke-opacity:1" />
    <path
       style="fill:#a7ac93;fill-opacity:1;fill-rule:evenodd;stroke:none;stroke-width:0.40000001;stroke-linecap:butt;stroke-linejoin:miter;stroke-miterlimit:4;stroke-dasharray:none;stroke-opacity:1"
       d="m 303.4235,197.11471 c -2.33909,-0.0406 -2.86948,0.89 -4.5096,1.49832 1.48992,0.71118 2.05673,1.15565 4.16352,1.19853 z"
       id="path21313-7"
       inkscape:connector-curvature="0"
       sodipodi:nodetypes="cccc" />
    <path
       sodipodi:nodetypes="ccccc"
       inkscape:connector-curvature="0"
       id="path21321-9"
       d="m 300.29899,194.2642 6.48212,-1.02234 0.22507,-6.59087 -8.06637,2.02568 z"
       style="display:inline;opacity:0.3;fill:#374845;fill-opacity:1;fill-rule:evenodd;stroke:none;stroke-width:1px;stroke-linecap:butt;stroke-linejoin:miter;stroke-opacity:1" />
    <path
       style="fill:none;fill-rule:evenodd;stroke:#000000;stroke-width:1.24080157;stroke-linecap:butt;stroke-linejoin:miter;stroke-miterlimit:4;stroke-dasharray:none;stroke-opacity:1"
       d="m 305.24463,158.24565 c 2.86493,14.42131 0.81415,17.57772 1.07769,21.40512"
       id="path5700"
       inkscape:connector-curvature="0"
       sodipodi:nodetypes="cc" />
    <path
       style="fill:#374845;fill-opacity:1;fill-rule:evenodd;stroke:#000000;stroke-width:2.48160315px;stroke-linecap:butt;stroke-linejoin:miter;stroke-opacity:1"
       d="m 236.90056,179.98569 c 2.89524,8.86482 -5.48953,44.34508 -6.64715,56.72237 11.06491,-4.23921 29.97906,-40.17555 30.35532,-56.94392"
       id="path21357-7"
       inkscape:connector-curvature="0"
       sodipodi:nodetypes="ccc" />
    <path
       style="fill:#374845;fill-opacity:1;fill-rule:evenodd;stroke:#000000;stroke-width:2.48160315px;stroke-linecap:butt;stroke-linejoin:miter;stroke-opacity:1"
       d="m 279.30941,120.82604 c 2.89524,8.8648 0.0497,14.21132 -1.10786,26.58859 14.5895,-9.56082 16.49493,-13.83785 17.3448,-22.56881"
       id="path21357-40"
       inkscape:connector-curvature="0"
       sodipodi:nodetypes="ccc" />
    <path
       style="fill:#374845;fill-opacity:1;fill-rule:evenodd;stroke:#000000;stroke-width:2.48160315px;stroke-linecap:butt;stroke-linejoin:miter;stroke-opacity:1"
       d="m 267.78764,194.83097 c 2.89524,8.86481 5.58907,23.51736 4.43145,35.89463 12.06025,-5.88837 7.77641,-27.68596 10.19232,-39.2182"
       id="path21357-8"
       inkscape:connector-curvature="0"
       sodipodi:nodetypes="ccc" />
    <path
       style="fill:#374845;fill-opacity:1;fill-rule:evenodd;stroke:#000000;stroke-width:2.48160315px;stroke-linecap:butt;stroke-linejoin:miter;stroke-opacity:1"
       d="m 210.31585,134.2927 c -1.17337,12.0876 -9.90252,28.17377 -16.3963,43.42806 14.58948,-9.56082 30.83488,-21.23674 29.46903,-34.56517"
       id="path21357-40-0"
       inkscape:connector-curvature="0"
       sodipodi:nodetypes="ccc" />
    <path
       style="fill:none;fill-rule:evenodd;stroke:#000000;stroke-width:2.48160315px;stroke-linecap:butt;stroke-linejoin:miter;stroke-opacity:1"
       d="m 265.38931,146.8943 c -0.16327,8.68053 -5.00757,14.68608 -10.96723,20.05438 6.59345,0.199 13.31965,0.033 23.18787,-8.77379"
       id="path21349-4"
       inkscape:connector-curvature="0"
       sodipodi:nodetypes="ccc" />
    <path
       style="fill:#374845;fill-opacity:1;fill-rule:evenodd;stroke:#000000;stroke-width:2.48160315;stroke-linecap:butt;stroke-linejoin:miter;stroke-miterlimit:4;stroke-dasharray:none;stroke-opacity:1"
       d="m 238.05529,97.059391 c -15.82795,-7.75827 -34.29563,24.557549 -42.09862,36.559329 14.84145,-5.46755 14.98913,-10.04823 41.65547,-9.30601"
       id="path5786"
       inkscape:connector-curvature="0"
       sodipodi:nodetypes="ccc" />
    <path
       style="display:inline;fill:#53676c;fill-opacity:1;fill-rule:evenodd;stroke:#000000;stroke-width:2.46142626px;stroke-linecap:butt;stroke-linejoin:miter;stroke-opacity:1"
       d="m 320.7118,401.20453 c 6.2863,-31.2073 -11.40428,-151.40485 -11.40428,-151.40485 -13.45917,-3.43784 -22.5838,-15.03448 -45.35974,-17.69593 -20.20503,3.28528 -36.15814,5.5465 -51.64527,0.18365 -12.93777,1.28854 -27.2908,7.59702 -36.96492,13.78103 -23.0278,19.43876 -19.73263,148.57915 2.08136,156.0768 z"
       id="path6692-0-1"
       inkscape:connector-curvature="0"
       sodipodi:nodetypes="ccccccc"
       inkscape:transform-center-x="0.74554155"
       inkscape:transform-center-y="-47.857843" />
    <path
       style="fill:#53676c;fill-opacity:1;fill-rule:evenodd;stroke:#000000;stroke-width:1px;stroke-linecap:butt;stroke-linejoin:miter;stroke-opacity:1"
       d="m 308.13887,249.91251 c 5.30012,5.08799 11.41024,6.75184 13.56168,19.87601 11.81206,33.2642 15.32684,52.70053 22.94983,87.16161 -0.29844,-4.37492 2.4446,-4.97967 7.5,-18.05457 7.36069,-5.28631 21.52578,-4.87828 28.41062,1.25563 -2.94883,17.97813 -10.55134,41.03217 -25.61476,60.92313 -6.90892,6.00071 -14.20369,5.44204 -21.78571,0 -9.32009,-18.83602 -25.19731,-29.82848 -29.09881,-59.20624"
       id="path6764"
       inkscape:connector-curvature="0"
       sodipodi:nodetypes="cccccccc" />
    <path
       style="fill:#e3e2db;fill-opacity:1;fill-rule:evenodd;stroke:#000000;stroke-width:1.1862458px;stroke-linecap:butt;stroke-linejoin:miter;stroke-opacity:1"
       d="m 358.33764,323.73835 7.5933,-10.10931 c 15.86197,-3.41477 26.3604,3.51724 30.30894,8.0602 -2.75335,3.49892 -5.87148,4.64559 -8.41573,6.05353"
       id="path9118-1"
       inkscape:connector-curvature="0"
       sodipodi:nodetypes="cccc" />
    <path
       style="fill:#e3e2db;fill-opacity:1;fill-rule:evenodd;stroke:#000000;stroke-width:1.11423719px;stroke-linecap:butt;stroke-linejoin:miter;stroke-opacity:1"
       d="m 377.97445,337.80986 5.88638,-5.37527 c 2.5396,-1.11383 3.84175,-3.54295 5.67425,-5.43443 l 6.21128,-8.82258 c -1.34964,-2.48808 -3.03042,-3.40826 -5.3585,-2.302 l -4.22809,3.95124 0.91512,-5.17164 c -0.85334,-3.34924 -3.05633,-3.32743 -5.62849,-2.13473 l -3.12304,6.55371 0.0483,-8.06736 c -3.69501,-3.24677 -5.87384,-1.50466 -7.7688,-0.10872 l -1.57066,7.66131 -1.86016,-6.4529 c -2.50135,-2.72357 -4.26365,-1.30382 -5.9374,0.20317 l -1.96932,7.18988 c -0.97677,1.45842 -0.376,3.15297 -3.16419,3.16602 -1.03076,-0.18622 -1.96786,0.0612 -2.23307,-1.32799 -0.13668,-1.94807 -1.84335,-4.43648 -2.46236,-5.39348 -1.86373,-1.0101 -3.94695,-0.72522 -4.53834,1.9026 0.78931,3.12831 1.26538,6.65059 3.62236,10.24799 2.92247,2.47752 4.09492,3.58057 7.01739,4.78358 l -0.94229,3.6515 c 8.82042,-2.38665 12.64042,-1.26273 21.40969,1.2801 z"
       id="path6817"
       inkscape:connector-curvature="0"
       sodipodi:nodetypes="cccccccccccccccccccccccc" />
  </g>
</svg>
