<?xml version="1.0" encoding="UTF-8" standalone="no"?>
<!-- Created with Inkscape (http://www.inkscape.org/) -->

<svg
   xmlns:dc="http://purl.org/dc/elements/1.1/"
   xmlns:cc="http://creativecommons.org/ns#"
   xmlns:rdf="http://www.w3.org/1999/02/22-rdf-syntax-ns#"
   xmlns:svg="http://www.w3.org/2000/svg"
   xmlns="http://www.w3.org/2000/svg"
   xmlns:xlink="http://www.w3.org/1999/xlink"
   xmlns:sodipodi="http://sodipodi.sourceforge.net/DTD/sodipodi-0.dtd"
   xmlns:inkscape="http://www.inkscape.org/namespaces/inkscape"
   width="810"
   height="810"
   viewBox="0 0 810.00001 810.00001"
   id="svg7979"
   version="1.1"
   inkscape:version="0.91 r13725"
   sodipodi:docname="went-mainstream.svg">
  <defs
     id="defs7981">
    <linearGradient
       inkscape:collect="always"
       id="linearGradient5010">
      <stop
         style="stop-color:#f3eaea;stop-opacity:1;"
         offset="0"
         id="stop5012" />
      <stop
         style="stop-color:#916f6f;stop-opacity:1"
         offset="1"
         id="stop5014" />
    </linearGradient>
    <linearGradient
       inkscape:collect="always"
       xlink:href="#linearGradient5010"
       id="linearGradient5020"
       x1="271.4126"
       y1="708.12469"
       x2="271.11154"
       y2="772.45007"
       gradientUnits="userSpaceOnUse"
       gradientTransform="translate(43.571428,-131.42857)" />
    <pattern
       patternTransform="matrix(10,0,0,10,49.704133,6.327046)"
       id="pattern23031"
       xlink:href="#Packedcircles"
       inkscape:collect="always" />
    <pattern
       inkscape:collect="always"
       patternUnits="userSpaceOnUse"
       width="1"
       height="1.73205080756"
       patternTransform="translate(0,0) scale(10,10)"
       id="Packedcircles"
       inkscape:stockid="Packed circles">
      <circle
         style="fill:black;stroke:none"
         cx="0"
         cy="0.5"
         r="0.5"
         id="circle22285" />
      <circle
         style="fill:black;stroke:none"
         cx="1"
         cy="0.5"
         r="0.5"
         id="circle22287" />
      <circle
         style="fill:black;stroke:none"
         cx="0.5"
         cy="1.36602540378"
         r="0.5"
         id="circle22289" />
      <circle
         style="fill:black;stroke:none"
         cx="0.5"
         cy="-0.366025403784"
         r="0.5"
         id="circle22291" />
    </pattern>
  </defs>
  <sodipodi:namedview
     id="base"
     pagecolor="#ffffff"
     bordercolor="#666666"
     borderopacity="1.0"
     inkscape:pageopacity="0.0"
     inkscape:pageshadow="2"
     inkscape:zoom="1.4"
     inkscape:cx="451.23404"
     inkscape:cy="367.32512"
     inkscape:document-units="px"
     inkscape:current-layer="layer1"
     showgrid="false"
     units="px"
     inkscape:snap-page="true"
     inkscape:window-width="1920"
     inkscape:window-height="1099"
     inkscape:window-x="0"
     inkscape:window-y="28"
     inkscape:window-maximized="1" />
  <metadata
     id="metadata7984">
    <rdf:RDF>
      <cc:Work
         rdf:about="">
        <dc:format>image/svg+xml</dc:format>
        <dc:type
           rdf:resource="http://purl.org/dc/dcmitype/StillImage" />
        <dc:title />
      </cc:Work>
    </rdf:RDF>
  </metadata>
  <g
     inkscape:label="Layer 1"
     inkscape:groupmode="layer"
     id="layer1"
     transform="translate(0,-242.36216)">
    <g
       id="g8768"
       transform="translate(0.110262,242.19396)">
      <g
         transform="translate(0,-652.36216)"
         id="layer1-8"
         inkscape:label="Layer 1">
        <path
           sodipodi:nodetypes="ccccc"
           inkscape:connector-curvature="0"
           id="path6281"
           d="m 41.714286,1052.3622 c -9.778713,-115.14343 1.316993,-277.53523 -26,-343.57147 l 339.428574,2.85714 c 32.21031,83.80646 11.71429,227.14289 19.57143,340.71433 z"
           style="fill:#f8f7de;fill-opacity:1;fill-rule:evenodd;stroke:#000000;stroke-width:1px;stroke-linecap:butt;stroke-linejoin:miter;stroke-opacity:1" />
        <text
           sodipodi:linespacing="125%"
           id="text6315"
           y="741.36218"
           x="45"
           style="font-style:normal;font-weight:normal;font-size:16.25px;line-height:125%;font-family:Sans;letter-spacing:0px;word-spacing:0px;fill:#000000;fill-opacity:1;stroke:none;stroke-width:1px;stroke-linecap:butt;stroke-linejoin:miter;stroke-opacity:1"
           xml:space="preserve"><tspan
             id="tspan6319"
             y="741.36218"
             x="45"
             sodipodi:role="line">Another way browsism remains</tspan><tspan
             id="tspan6389"
             y="761.67468"
             x="45"
             sodipodi:role="line">invisible is by keeping its victims out</tspan><tspan
             id="tspan6353"
             y="781.98718"
             x="45"
             sodipodi:role="line">of sight, and therefore conveniently</tspan><tspan
             id="tspan6321"
             y="802.29968"
             x="45"
             sodipodi:role="line">out of public consciousness. But</tspan><tspan
             id="tspan6361"
             y="822.61218"
             x="45"
             sodipodi:role="line">although we don't see inner worlds of</tspan><tspan
             id="tspan6323"
             y="842.92468"
             x="45"
             sodipodi:role="line">web developers, these individuals are</tspan><tspan
             id="tspan6363"
             y="863.23718"
             x="45"
             sodipodi:role="line">in fact sentient conscious beings. For</tspan><tspan
             id="tspan6325"
             y="883.54968"
             x="45"
             sodipodi:role="line">example, HTML developers are at least</tspan><tspan
             id="tspan6327"
             y="903.86218"
             x="45"
             sodipodi:role="line">as intelligent as junior C programmers.</tspan><tspan
             id="tspan6375"
             y="924.17468"
             x="45"
             sodipodi:role="line">JS developers develop deep and lasting</tspan><tspan
             id="tspan6329"
             y="944.48718"
             x="45"
             sodipodi:role="line">bonds with their libraries and</tspan><tspan
             id="tspan6383"
             y="964.79968"
             x="45"
             sodipodi:role="line">frameworks: for instance, they may cry</tspan><tspan
             id="tspan6331"
             y="985.11218"
             x="45"
             sodipodi:role="line">and weep for weeks when their tools</tspan><tspan
             id="tspan6433"
             y="1005.4247"
             x="45"
             sodipodi:role="line">are forcibly discontinued. CSS</tspan><tspan
             id="tspan6333"
             y="1025.7372"
             x="45"
             sodipodi:role="line">developers are able to distinguish</tspan><tspan
             id="tspan6343"
             y="1046.0497"
             x="45"
             sodipodi:role="line">between a hundred different ways the</tspan><tspan
             id="tspan6345"
             y="1066.3622"
             x="45"
             sodipodi:role="line" /></text>
      </g>
      <g
         inkscape:label="hand"
         id="layer2">
        <path
           sodipodi:nodetypes="ccccc"
           inkscape:connector-curvature="0"
           id="path7033"
           d="m 372.75,317.5 c 8.14978,-1.6572 15.89143,-0.29391 27.25,5.75 l 0,77.25 c -11.36298,-0.20738 -11.47485,-0.5 -27,-1 z"
           style="fill:#d7d5cb;fill-opacity:1;fill-rule:evenodd;stroke:#000000;stroke-width:1px;stroke-linecap:butt;stroke-linejoin:miter;stroke-opacity:1" />
        <path
           sodipodi:nodetypes="cccccccsc"
           inkscape:connector-curvature="0"
           id="path7031"
           d="m 331.1417,330.94008 c 11.48801,-3.31405 15.0913,-11.89753 28.57243,-11.22533 14.17746,6.09241 26.71028,0.27584 40.28587,12.98879 l 0.25,43.53427 c -9.62697,-5.39285 -15.39487,-13.54217 -20.40543,-22.23245 -11.87356,-5.52395 -18.58297,-4.17818 -25.65736,-8.89387 -12.5355,2.0613 -14.09181,9.47814 -38.03079,5.49154 -2.92006,-4.9086 -2.89088,-8.92071 -0.52905,-12.52869 2.548,-3.89236 8.31084,-3.56438 15.51433,-7.13426 z"
           style="fill:#e3e2db;fill-rule:evenodd;stroke:#000000;stroke-width:1px;stroke-linecap:butt;stroke-linejoin:miter;stroke-opacity:1" />
      </g>
    </g>
    <g
       transform="translate(409.50002,-0.50004)"
       id="layer1-5"
       inkscape:label="Layer 1">
      <path
         inkscape:connector-curvature="0"
         id="path24188"
         d="m -1.5258789e-5,652.36216 399.999995258789,0 0,400.00004 -399.999995258789,0 0,-400.00004 z"
         style="fill:#1a1a1a;fill-rule:evenodd;stroke:#000000;stroke-width:1px;stroke-linecap:butt;stroke-linejoin:miter;stroke-opacity:1" />
      <path
         inkscape:connector-curvature="0"
         id="path24190"
         d="M -1.5258789e-5,942.76061 399.99998,945.28599 l 0,107.07621 -399.999995258789,0 z"
         style="fill:#131313;fill-opacity:1;fill-rule:evenodd;stroke:#000000;stroke-width:1px;stroke-linecap:butt;stroke-linejoin:miter;stroke-opacity:1" />
      <g
         inkscape:label="Layer 1"
         id="layer1-9"
         transform="matrix(0.43055858,0,0,0.43055858,150.15788,575.02678)">
        <use
           x="0"
           y="0"
           xlink:href="#path5570"
           id="use5572"
           transform="matrix(-1,0,0,1,626.27669,0)"
           width="100%"
           height="100%" />
        <path
           style="fill:#280b0b;fill-rule:evenodd;stroke:#000000;stroke-width:1px;stroke-linecap:butt;stroke-linejoin:miter;stroke-opacity:1"
           d="m 195,967.36216 c -8.19172,16.90478 -9.12465,33.80954 -7.85714,50.71434 12.38095,11.8147 30.7619,19.6615 43.14285,10.7142 8.30722,-23.0822 8.30736,-42.0108 9.28572,-61.42854 z"
           id="path5570"
           inkscape:connector-curvature="0"
           sodipodi:nodetypes="ccccc" />
        <path
           style="fill:#e3dbdb;fill-opacity:1;fill-rule:evenodd;stroke:#000000;stroke-width:1px;stroke-linecap:butt;stroke-linejoin:miter;stroke-opacity:1"
           d="m 474.39286,872.0943 10.44642,-2.67857 c 2.00543,-8.92857 3.9282,-21.82142 2.14286,-30.75 L 472.25,840.2193"
           id="path5558"
           inkscape:connector-curvature="0"
           sodipodi:nodetypes="cccc" />
        <path
           style="fill:#e3dbdb;fill-rule:evenodd;stroke:#000000;stroke-width:1px;stroke-linecap:butt;stroke-linejoin:miter;stroke-opacity:1"
           d="m 268.57142,636.57645 c 8.68497,-10.45056 17.46094,-20.83287 15,-39.64286 l 63.53373,0 c -2.46094,18.80999 6.31503,29.1923 15,39.64286 z"
           id="path5482"
           inkscape:connector-curvature="0"
           sodipodi:nodetypes="ccccc" />
        <use
           x="0"
           y="0"
           xlink:href="#path5456"
           id="use5458"
           transform="matrix(-1,0,0,1,630.65355,9.2353098e-8)"
           width="100%"
           height="100%" />
        <path
           style="fill:#f3eaea;fill-opacity:1;fill-rule:evenodd;stroke:#000000;stroke-width:1px;stroke-linecap:butt;stroke-linejoin:miter;stroke-opacity:1"
           d="m 262.77082,527.63092 c -1.00505,-3.25876 -4.33625,-7.14464 -6.36161,-4.18761 -1.4019,2.04678 -1.51777,38.67805 2.38735,38.53414 3.27257,-0.1206 3.28067,-3.10069 4.10053,-4.60696"
           id="path5456"
           inkscape:connector-curvature="0"
           sodipodi:nodetypes="cssc" />
        <path
           style="opacity:1;fill:url(#linearGradient5020);fill-opacity:1;stroke:#000000;stroke-width:1;stroke-linecap:butt;stroke-linejoin:round;stroke-miterlimit:4;stroke-dasharray:none;stroke-dashoffset:0;stroke-opacity:1"
           d="m 315.47876,612.57855 c -24.99618,0.0222 -56.91555,-31.66767 -57.04969,-71.84651 -0.13414,-40.17884 19.01719,-69.56949 56.56321,-70.51135 37.2871,-0.93537 57.02314,29.43135 57.29242,69.90989 0.001,40.4799 -30.19959,72.42434 -56.80594,72.44797 z"
           id="path4925"
           inkscape:connector-curvature="0"
           sodipodi:nodetypes="ssscs" />
        <path
           style="fill:#f4d7d7;fill-rule:evenodd;stroke:#000000;stroke-width:1px;stroke-linecap:butt;stroke-linejoin:miter;stroke-opacity:1"
           d="m 300.65525,581.05578 c 12.57656,2.23954 21.8801,3.7961 27.52666,0.25254 -8.78275,0.39356 -18.13565,-4.28703 -27.52666,-0.25254 z"
           id="path4934"
           inkscape:connector-curvature="0"
           sodipodi:nodetypes="ccc" />
        <path
           style="fill:none;fill-rule:evenodd;stroke:#000000;stroke-width:1px;stroke-linecap:butt;stroke-linejoin:miter;stroke-opacity:1"
           d="m 310.81542,533.54743 c -0.34059,16.19102 -12.57692,27.69967 1.71809,30.69245"
           id="path4936"
           inkscape:connector-curvature="0"
           sodipodi:nodetypes="cc" />
        <path
           style="fill:none;fill-rule:evenodd;stroke:#000000;stroke-width:1px;stroke-linecap:butt;stroke-linejoin:miter;stroke-opacity:1"
           d="m 308.0618,559.60381 c 3.66109,-0.24574 4.57666,0.4581 5.22036,3.2307 l 3.20631,-0.0634 c 1.67706,-4.00568 4.62732,-2.72998 5.25371,-3.09334"
           id="path4942"
           inkscape:connector-curvature="0"
           sodipodi:nodetypes="cccc" />
        <use
           x="0"
           y="0"
           xlink:href="#path4936"
           id="use4944"
           transform="matrix(-1,0,0,1,630.39093,-9.2353098e-8)"
           width="100%"
           height="100%" />
        <path
           style="fill:none;fill-rule:evenodd;stroke:#000000;stroke-width:1px;stroke-linecap:butt;stroke-linejoin:miter;stroke-opacity:1"
           d="m 284.24027,480.00201 c -4.14848,13.33651 -5.27855,28.43777 -16.92005,39.90102"
           id="path4946"
           inkscape:connector-curvature="0"
           sodipodi:nodetypes="cc" />
        <path
           style="fill:none;fill-rule:evenodd;stroke:#000000;stroke-width:1px;stroke-linecap:butt;stroke-linejoin:miter;stroke-opacity:1"
           d="m 353.68826,486.63113 c 4.4445,13.17469 7.6779,26.21648 3.53554,38.07012"
           id="path4948"
           inkscape:connector-curvature="0"
           sodipodi:nodetypes="cc" />
        <path
           style="fill:none;fill-rule:evenodd;stroke:#000000;stroke-width:1px;stroke-linecap:butt;stroke-linejoin:miter;stroke-opacity:1"
           d="m 305.20094,471.66824 c -1.26629,6.37098 -2.95566,10.55824 -8.83884,16.66752"
           id="path4950"
           inkscape:connector-curvature="0"
           sodipodi:nodetypes="cc" />
        <path
           style="fill:none;fill-rule:evenodd;stroke:#000000;stroke-width:1px;stroke-linecap:butt;stroke-linejoin:miter;stroke-opacity:1"
           d="m 319.46935,469.77421 c 0.48039,14.70671 -4.14767,24.30496 -11.74303,30.93592"
           id="path4952"
           inkscape:connector-curvature="0"
           sodipodi:nodetypes="cc" />
        <path
           style="fill:none;fill-rule:evenodd;stroke:#000000;stroke-width:1px;stroke-linecap:butt;stroke-linejoin:miter;stroke-opacity:1"
           d="m 329.94968,472.42586 c 2.02829,19.19314 -4.66191,23.78365 -9.59645,31.31473"
           id="path4954"
           inkscape:connector-curvature="0"
           sodipodi:nodetypes="cc" />
        <path
           style="fill:none;fill-rule:evenodd;stroke:#000000;stroke-width:1px;stroke-linecap:butt;stroke-linejoin:miter;stroke-opacity:1"
           d="m 344.97569,478.61304 c -1.13993,16.67671 -7.54121,26.53465 -14.01586,33.20877"
           id="path4956"
           inkscape:connector-curvature="0"
           sodipodi:nodetypes="cc" />
        <path
           style="fill:none;fill-rule:evenodd;stroke:#000000;stroke-width:1px;stroke-linecap:butt;stroke-linejoin:miter;stroke-opacity:1"
           d="m 311.26185,470.40555 c -1.22135,13.51034 -7.75773,23.83167 -15.65736,33.33504"
           id="path4958"
           inkscape:connector-curvature="0"
           sodipodi:nodetypes="cc" />
        <path
           style="fill:none;fill-rule:evenodd;stroke:#000000;stroke-width:1px;stroke-linecap:butt;stroke-linejoin:miter;stroke-opacity:1"
           d="m 293.71046,474.95125 c 0.94412,14.04199 -5.99516,24.0069 -10.98542,34.09264"
           id="path4960"
           inkscape:connector-curvature="0"
           sodipodi:nodetypes="cc" />
        <path
           style="fill:#916f6f;fill-rule:evenodd;stroke:#000000;stroke-width:1px;stroke-linecap:butt;stroke-linejoin:miter;stroke-opacity:1"
           d="m 274.17936,526.32244 c 11.5082,-2.57106 21.42029,-1.64448 30.80965,2.90589 1.10979,-0.6274 2.18051,-1.28605 0,-4.54569 -10.001,-2.53926 -18.41124,-2.60343 -29.0699,-1.19676 z"
           id="path4962"
           inkscape:connector-curvature="0"
           sodipodi:nodetypes="ccccc" />
        <path
           style="fill:#c8b7b7;fill-rule:evenodd;stroke:#c8b7b7;stroke-width:1px;stroke-linecap:butt;stroke-linejoin:miter;stroke-opacity:1"
           d="m 279.85393,536.19062 c 2.56279,6.19519 20.18161,11.03914 23.89607,-1.6856"
           id="path5478"
           inkscape:connector-curvature="0"
           sodipodi:nodetypes="cc" />
        <path
           style="fill:#ffffff;fill-rule:evenodd;stroke:#000000;stroke-width:1px;stroke-linecap:butt;stroke-linejoin:miter;stroke-opacity:1"
           d="m 303.66965,534.02034 c -0.12306,-4.39845 -16.15034,-6.8392 -23.92069,1.86671 7.42815,4.24604 18.58148,4.38314 23.92069,-1.86671 z"
           id="path4930"
           inkscape:connector-curvature="0"
           sodipodi:nodetypes="ccc" />
        <path
           style="opacity:1;fill:#6c5353;fill-opacity:1;stroke:#000000;stroke-width:0.91358644;stroke-linecap:butt;stroke-linejoin:round;stroke-miterlimit:4;stroke-dasharray:none;stroke-dashoffset:0;stroke-opacity:1"
           id="path4987"
           sodipodi:type="arc"
           sodipodi:cx="292.61035"
           sodipodi:cy="533.99854"
           sodipodi:rx="4.4989505"
           sodipodi:ry="4.4989505"
           sodipodi:start="0"
           sodipodi:end="6.2749299"
           sodipodi:open="true"
           d="m 297.1093,533.99854 a 4.4989505,4.4989505 0 0 1 -4.48966,4.49894 4.4989505,4.4989505 0 0 1 -4.5082,-4.48037 4.4989505,4.4989505 0 0 1 4.47106,-4.51744 4.4989505,4.4989505 0 0 1 4.52665,4.46172" />
        <path
           style="opacity:1;fill:#000000;fill-opacity:1;stroke:#000000;stroke-width:0.94175333;stroke-linecap:butt;stroke-linejoin:round;stroke-miterlimit:4;stroke-dasharray:none;stroke-dashoffset:0;stroke-opacity:1"
           id="path4991"
           sodipodi:type="arc"
           sodipodi:cx="292.61035"
           sodipodi:cy="533.99854"
           sodipodi:rx="1.6945289"
           sodipodi:ry="1.6945289"
           sodipodi:start="0"
           sodipodi:end="6.2749299"
           sodipodi:open="true"
           d="m 294.30488,533.99854 a 1.6945289,1.6945289 0 0 1 -1.69103,1.69452 1.6945289,1.6945289 0 0 1 -1.69801,-1.68753 1.6945289,1.6945289 0 0 1 1.68402,-1.70149 1.6945289,1.6945289 0 0 1 1.70496,1.68051" />
        <path
           style="fill:#e3dbdb;fill-rule:evenodd;stroke:#000000;stroke-width:1px;stroke-linecap:butt;stroke-linejoin:miter;stroke-opacity:1"
           d="m 303.92858,533.73716 c -1.49963,-6.65613 -20.1864,-6.74051 -23.9394,1.4637 4.73709,-2.36889 11.50201,-6.68078 23.9394,-1.4637 z"
           id="path4985"
           inkscape:connector-curvature="0"
           sodipodi:nodetypes="ccc" />
        <use
           x="0"
           y="0"
           xlink:href="#path4962"
           id="use5468"
           transform="matrix(-1,0,0,1,630.39716,-9.2353098e-8)"
           width="100%"
           height="100%" />
        <use
           x="0"
           y="0"
           xlink:href="#path5478"
           id="use5480"
           transform="matrix(-1,0,0,1,630.69923,-9.2353098e-8)"
           width="100%"
           height="100%" />
        <use
           x="0"
           y="0"
           xlink:href="#path4930"
           id="use5470"
           transform="matrix(-1,0,0,1,630.39716,-9.2353098e-8)"
           width="100%"
           height="100%" />
        <use
           x="0"
           y="0"
           xlink:href="#path4987"
           id="use5472"
           transform="matrix(-1,0,0,1,630.39716,-9.2353098e-8)"
           width="100%"
           height="100%" />
        <use
           x="0"
           y="0"
           xlink:href="#path4991"
           id="use5474"
           transform="matrix(-1,0,0,1,630.39716,-9.2353098e-8)"
           width="100%"
           height="100%" />
        <use
           x="0"
           y="0"
           xlink:href="#path4985"
           id="use5476"
           transform="matrix(-1,0,0,1,630.39716,-9.2353098e-8)"
           width="100%"
           height="100%" />
        <path
           style="fill:#6c5d53;fill-rule:evenodd;stroke:#000000;stroke-width:1px;stroke-linecap:butt;stroke-linejoin:miter;stroke-opacity:1"
           d="m 277.85714,621.64787 c 20.82114,11.61981 42.91417,19.84794 75,1.42858 21.43238,3.55622 41.8116,13.4679 61.42858,24.28571 4.25568,61.60972 19.65015,175.11873 -0.42858,220.42857 -67.02954,7.17087 -127.27728,7.64162 -197,0 C 193.16795,815.08208 214.28566,706.1717 215,647.36216 c 15.97394,-8.57143 32.00455,-17.14286 62.85714,-25.71429 z"
           id="path5508"
           inkscape:connector-curvature="0"
           sodipodi:nodetypes="ccccccc" />
        <path
           style="fill:#373e48;fill-rule:evenodd;stroke:#000000;stroke-width:1px;stroke-linecap:butt;stroke-linejoin:miter;stroke-opacity:1"
           d="m 294.67857,905.57899 35.44924,-0.84691 17.967,-42.23994 c -20.55399,4.33554 -41.92366,5.5715 -64.85314,0.88016 z"
           id="path5518"
           inkscape:connector-curvature="0"
           sodipodi:nodetypes="ccccc" />
        <path
           style="fill:#373e48;fill-rule:evenodd;stroke:#000000;stroke-width:1px;stroke-linecap:butt;stroke-linejoin:miter;stroke-opacity:1"
           d="m 206.14286,759.50502 11.71428,141.85715 c 28.33334,5.96867 62.66667,9.98209 91.00001,3.85714 L 283.14286,766.64788 Z"
           id="path5510"
           inkscape:connector-curvature="0"
           sodipodi:nodetypes="ccccc" />
        <use
           x="0"
           y="0"
           xlink:href="#path5510"
           id="use5514"
           transform="matrix(-1,0,0,1,628.21863,0)"
           width="100%"
           height="100%" />
        <path
           style="fill:#6c5d53;fill-opacity:1;fill-rule:evenodd;stroke:#000000;stroke-width:1px;stroke-linecap:butt;stroke-linejoin:miter;stroke-opacity:1"
           d="m 215.16249,647.03845 -6.31345,78.03428 -5.3033,82.83251 -62.12438,85.86297 -30.30458,-21.2132 61.61931,-93.94419 z"
           id="path5568"
           inkscape:connector-curvature="0"
           sodipodi:nodetypes="ccccccc" />
        <path
           style="fill:#373e48;fill-rule:evenodd;stroke:#000000;stroke-width:1px;stroke-linecap:butt;stroke-linejoin:miter;stroke-opacity:1"
           d="m 283.32143,766.18359 c -10.89896,48.5809 -17.03466,141.95304 -26.03572,199.32143 -23.95858,7.06846 -46.16158,11.2038 -71.99999,-4.28571 2.5838,-52.92176 3.22967,-144.76935 16.85714,-201.35715 20.62522,-15.13396 57.02341,-25.69397 81.17857,6.32143 z"
           id="path5512"
           inkscape:connector-curvature="0"
           sodipodi:nodetypes="ccccc" />
        <use
           x="0"
           y="0"
           xlink:href="#path5512"
           id="use5516"
           transform="matrix(-1,0,0,1,628.21863,0)"
           width="100%"
           height="100%" />
        <path
           style="fill:#6c5d53;fill-opacity:1;fill-rule:evenodd;stroke:#000000;stroke-width:1px;stroke-linecap:butt;stroke-linejoin:miter;stroke-opacity:1"
           d="m 484.42858,839.50502 c 0,0 -2.21883,-63.43254 -12.27436,-93.06208 -12.3245,-36.31527 -57.4866,-98.5856 -57.4866,-98.5856 l 4.61809,80.64768 25.07143,47.21428 13.21429,66.64286 z"
           id="path5520"
           inkscape:connector-curvature="0"
           sodipodi:nodetypes="csccccc" />
        <path
           style="fill:#3e4837;fill-rule:evenodd;stroke:#000000;stroke-width:1px;stroke-linecap:butt;stroke-linejoin:miter;stroke-opacity:1"
           d="m 454.88145,810.5794 -12.34027,77.38891 c 7.30119,5.94003 16.1652,9.37954 30.55623,3.97582 l 12.69975,-76.07733 c -12.51244,-9.19837 -8.37138,-28.05766 -5.36926,-42.45302 -2.91439,-2.26757 -6.15431,-3.18947 -9.96979,-1.73219 -1.96385,14.49656 0.94704,33.09404 -15.57666,38.89781 z"
           id="path5524"
           inkscape:connector-curvature="0"
           sodipodi:nodetypes="ccccccc" />
        <path
           style="fill:none;fill-rule:evenodd;stroke:#000000;stroke-width:1px;stroke-linecap:butt;stroke-linejoin:miter;stroke-opacity:1"
           d="m 470.60592,771.81602 c 3.69576,3.60513 6.64805,2.54254 9.66819,1.90587"
           id="path5526"
           inkscape:connector-curvature="0"
           sodipodi:nodetypes="cc" />
        <path
           style="fill:#cdc4a0;fill-opacity:1;fill-rule:evenodd;stroke:#000000;stroke-width:1px;stroke-linecap:butt;stroke-linejoin:miter;stroke-opacity:1"
           d="m 451.5597,829.77268 c 8.55529,3.55008 18.43071,5.56001 31.01536,4.40916 l -5.65072,34.11724 c -13.32615,2.38532 -22.49265,-0.42891 -30.47079,-4.7286 z"
           id="path5532"
           inkscape:connector-curvature="0"
           sodipodi:nodetypes="ccccc" />
        <path
           style="fill:none;fill-rule:evenodd;stroke:#000000;stroke-width:1px;stroke-linecap:butt;stroke-linejoin:miter;stroke-opacity:1"
           d="m 455.20255,840.22535 c 0.75006,0.15003 0.0287,-0.47941 0.19666,-0.61307 0.033,-0.0263 0.10252,0.0495 0.12546,0.0142 0.0459,-0.0706 -0.0174,-0.18036 0.0285,-0.25093 0.0551,-0.18816 0.32174,-0.18398 0.4191,-0.33368 0.0305,-0.047 0.0142,-0.35365 0.0427,-0.37639 0.033,-0.0263 0.0925,0.0405 0.12546,0.0142 0.0658,-0.0524 -0.0374,-0.19849 0.0285,-0.25092 0.033,-0.0263 0.0925,0.0405 0.12546,0.0142 0.033,-0.0263 -0.0252,-0.111 0.0142,-0.12546 0.0791,-0.029 0.18508,0.0809 0.25093,0.0285 0.0658,-0.0524 -0.0258,-0.1866 0.0285,-0.25093 0.52012,-0.61625 0.0144,0.33098 0.5161,-0.0685 0.13171,-0.10487 -0.0748,-0.39699 0.057,-0.50186 0.0658,-0.0524 0.17187,0.0573 0.25093,0.0285 0.0105,-0.004 0.0245,-0.47601 0.057,-0.50185 0.0658,-0.0524 0.18507,0.0809 0.25092,0.0285 0.0698,-0.0556 -0.0271,-0.32077 0.0427,-0.37639 0.033,-0.0263 0.0837,0.009 0.12547,0.0142 0.0932,-0.0742 0.20262,-0.13147 0.2794,-0.22245 0.0271,-0.0322 -0.0187,-0.0992 0.0142,-0.12546 0.28905,-0.23013 -0.0552,0.39554 0.26517,-0.097 0.0459,-0.0706 -0.0374,-0.19849 0.0285,-0.25092 0.033,-0.0263 0.0925,0.0405 0.12546,0.0142 0.033,-0.0263 -0.0187,-0.0992 0.0142,-0.12546 0.033,-0.0263 0.0925,0.0405 0.12547,0.0142 0.033,-0.0263 -0.0187,-0.0992 0.0142,-0.12547 0.033,-0.0263 0.0925,0.0405 0.12547,0.0142 0.033,-0.0263 -0.0187,-0.0992 0.0142,-0.12546 0.033,-0.0263 0.0925,0.0405 0.12546,0.0142 0.0658,-0.0524 -0.0374,-0.1985 0.0285,-0.25093 0.033,-0.0263 0.0925,0.0405 0.12546,0.0142 0.033,-0.0263 -0.0187,-0.0992 0.0142,-0.12546 0.033,-0.0263 0.0925,0.0405 0.12545,0.0142 0.033,-0.0263 -0.0187,-0.0992 0.0142,-0.12546 0.033,-0.0263 0.0837,0.009 0.12547,0.0142 0.0837,0.009 0.17188,0.0573 0.25093,0.0285 0.0791,-0.0289 -0.0374,-0.19849 0.0285,-0.25093 0.0139,-0.0111 0.36527,0.0288 0.3764,0.0427 0.23012,0.28906 -0.39554,-0.0552 0.097,0.26517 0.047,0.0305 0.35365,0.0142 0.3764,0.0427 0.0263,0.033 -0.0405,0.0925 -0.0142,0.12547 0.0263,0.033 0.0837,0.009 0.12546,0.0142 0.0837,0.009 0.18036,-0.0174 0.25093,0.0285 0.0352,0.0229 -0.0405,0.0925 -0.0142,0.12547 0.0263,0.033 0.0992,-0.0187 0.12546,0.0142 0.0263,0.033 -0.0405,0.0925 -0.0142,0.12547 0.0524,0.0658 0.22201,-0.0506 0.25092,0.0285 0.0405,0.11062 -0.10874,0.43681 -0.057,0.50186 0.0524,0.0658 0.19849,-0.0374 0.25093,0.0285 0.0349,0.0438 -0.10589,0.58373 -0.0712,0.62731 0.0263,0.033 0.0992,-0.0187 0.12546,0.0142 0.0263,0.033 -0.0405,0.0925 -0.0142,0.12546 0.0263,0.033 0.0992,-0.0187 0.12547,0.0142 0.0333,0.0418 -0.10046,0.54739 -0.0712,0.62733 0.0144,0.0395 0.0992,-0.0187 0.12546,0.0142 0.0344,0.0433 -0.10562,0.58406 -0.0712,0.62732 0.0263,0.033 0.0992,-0.0187 0.12545,0.0142 0.0263,0.033 -0.0405,0.0925 -0.0142,0.12547 0.0263,0.033 0.0992,-0.0187 0.12547,0.0142 0.0344,0.0433 -0.10563,0.58406 -0.0712,0.62732 0.0263,0.033 0.0992,-0.0187 0.12547,0.0142 0.0263,0.033 -0.0405,0.0925 -0.0142,0.12545 0.0263,0.033 0.13021,-0.0276 0.12546,0.0142 -0.0202,0.17775 -0.54515,-0.42192 0.12547,0.0142 0.0352,0.0229 -0.0405,0.0925 -0.0142,0.12546 0.0263,0.033 0.0992,-0.0187 0.12547,0.0142 0.0524,0.0658 -0.0809,0.18508 -0.0285,0.25093 0.0263,0.033 0.0992,-0.0187 0.12547,0.0142 0.0524,0.0658 -0.0809,0.18508 -0.0285,0.25093 0.0263,0.033 0.0992,-0.0187 0.12546,0.0142 0.0742,0.0932 -0.10264,0.15777 -0.0285,0.25093 0.0263,0.033 0.0992,-0.0187 0.12546,0.0142 0.0263,0.033 -0.0405,0.0925 -0.0142,0.12547 0.0263,0.033 0.0837,0.009 0.12546,0.0142 0.0418,0.005 0.0925,0.0405 0.12546,0.0142 0.033,-0.0263 -0.0187,-0.0992 0.0142,-0.12546 0.033,-0.0263 0.0859,0.0287 0.12547,0.0142 0.0559,-0.0204 0.0838,-0.0907 0.1397,-0.11122 0.14142,-0.0517 0.15361,0.14323 0.26517,-0.097 0.33368,-0.71856 -0.49163,0.25283 0.40487,-0.20822 0.0748,-0.0385 -0.0374,-0.19849 0.0285,-0.25093 0.0658,-0.0524 0.18507,0.0809 0.25093,0.0285 0.0658,-0.0524 -0.0174,-0.18035 0.0285,-0.25092 0.0229,-0.0352 0.0925,0.0405 0.12546,0.0142 0.033,-0.0263 -0.0269,-0.11673 0.0142,-0.12546 0.12351,-0.0261 0.2641,0.10042 0.37638,0.0427 0.0839,-0.0431 -0.0224,-0.37981 0.057,-0.50186 0.0229,-0.0352 0.10252,0.0496 0.12547,0.0142 0.4105,-0.63117 -0.42771,0.0362 0.2794,-0.22245 0.0395,-0.0145 -0.009,-0.0902 0.0142,-0.12547 0.0324,-0.0499 0.1072,-0.0613 0.1397,-0.11123 0.0229,-0.0352 -0.0187,-0.0992 0.0142,-0.12545 0.033,-0.0263 0.0925,0.0405 0.12546,0.0142 0.033,-0.0263 -0.009,-0.0902 0.0142,-0.12547 0.0324,-0.0499 0.0932,-0.0742 0.1397,-0.11123 0.13971,-0.11122 0.32174,-0.18398 0.4191,-0.33368 0.0689,-0.10585 -0.0104,-0.26186 0.0427,-0.37639 0.0177,-0.0381 0.0925,0.0405 0.12546,0.0142 0.28905,-0.23013 -0.39783,-0.0349 0.15394,-0.2367 0.0396,-0.0144 0.0992,-0.0187 0.12546,0.0142 0.0263,0.033 0.0187,0.0992 -0.0142,0.12547 -0.033,0.0263 -0.0925,-0.0405 -0.12547,-0.0142 -0.033,0.0263 -0.009,0.0837 -0.0142,0.12546 -0.038,0.33458 -0.0759,0.66915 -0.1139,1.00372 -0.0285,0.25092 -0.057,0.50185 -0.0854,0.75278 -0.01,0.0837 -0.019,0.16729 -0.0285,0.25093 -0.009,0.0837 0.0175,0.18036 -0.0285,0.25093 -0.0834,0.1282 -0.37216,-0.35994 -0.15394,0.23668 0.0144,0.0395 0.0992,-0.0187 0.12546,0.0142 0.0263,0.033 -0.009,0.0837 -0.0142,0.12546 -0.005,0.0418 0.009,0.0902 -0.0142,0.12547 -0.0324,0.0499 -0.1072,0.0613 -0.1397,0.11122 -0.0172,0.0265 -0.0536,0.47205 -0.057,0.50186 -0.0285,0.25093 -0.057,0.50185 -0.0854,0.75278 -0.005,0.0418 -0.009,0.0837 -0.0142,0.12547 -0.005,0.0418 0.0187,0.0992 -0.0142,0.12546 -0.033,0.0263 -0.0925,-0.0405 -0.12547,-0.0142 -0.033,0.0263 -0.009,0.0837 -0.0142,0.12547 -0.007,0.0591 -0.0765,0.62095 -0.0712,0.62731 0.004,0.004 0.34597,0.0393 0.37639,0.0427 0.29275,0.0332 0.5855,0.0664 0.87825,0.0997 0.0418,0.005 0.0925,0.0405 0.12546,0.0142 0.033,-0.0263 -0.0187,-0.0992 0.0142,-0.12546 0.033,-0.0263 0.0837,0.009 0.12547,0.0142 0.0418,0.005 0.0837,0.009 0.12546,0.0142 0.0656,0.007 0.467,0.0697 0.50186,0.0569 0.14252,-0.0522 0.25641,-0.17677 0.40487,-0.20822 0.092,-0.0195 0.72837,0.0827 0.87825,0.0997 0.12546,0.0142 0.2776,0.12138 0.37639,0.0427 0.0988,-0.0787 -0.0388,-0.27991 0.0427,-0.3764 0.058,-0.0688 0.48625,0.14374 0.62732,0.0712 0.0748,-0.0385 -0.0374,-0.19849 0.0285,-0.25093 0.0658,-0.0524 0.17433,0.0634 0.25093,0.0285 0.16251,-0.074 0.2566,-0.25965 0.41911,-0.33368 0.0196,-0.009 0.68659,0.0779 0.75278,0.0854 0.0418,0.005 0.0859,0.0287 0.12546,0.0142 0.0559,-0.0204 0.0838,-0.0907 0.1397,-0.11122 0.0526,-0.0192 0.34783,0.0654 0.3764,0.0427 0.033,-0.0263 -0.0254,-0.11101 0.0142,-0.12546 0.0791,-0.0289 0.16728,0.019 0.25091,0.0285 0.0932,-0.0742 0.17355,-0.16801 0.27941,-0.22245 0.0374,-0.0192 0.0925,0.0405 0.12546,0.0142 0.033,-0.0263 -0.0187,-0.0992 0.0142,-0.12546 0.0433,-0.0344 0.58349,0.10607 0.62733,0.0712 0.0658,-0.0524 -0.0174,-0.18036 0.0285,-0.25093 0.0229,-0.0352 0.0925,0.0405 0.12547,0.0142 0.033,-0.0263 -0.0187,-0.0992 0.0142,-0.12547 0.0658,-0.0524 0.18507,0.0809 0.25092,0.0285 0.033,-0.0263 -0.0276,-0.13022 0.0142,-0.12547 0.0418,0.005 -0.009,0.0837 -0.0142,0.12547 -0.005,0.0418 -0.009,0.0837 -0.0142,0.12546 -0.038,0.33457 0.0466,-0.0371 -0.1397,0.11123 -0.0698,0.0556 0.0271,0.32077 -0.0427,0.37639 -0.035,0.0278 -0.46909,-0.15913 -0.15394,0.23669 0.31514,0.39582 0.23024,-0.0692 0.26516,-0.097 0.033,-0.0263 0.0992,-0.0187 0.12546,0.0142 0.0263,0.033 -0.0405,0.0925 -0.0142,0.12547 0.0524,0.0658 0.1985,-0.0374 0.25093,0.0285 0.0344,0.0433 -0.10563,0.58406 -0.0712,0.62732 0.0263,0.033 0.0925,0.0405 0.12546,0.0142 0.033,-0.0263 -0.0187,-0.0992 0.0142,-0.12546 0.033,-0.0263 0.0925,0.0405 0.12546,0.0142 0.033,-0.0263 -0.0187,-0.0992 0.0142,-0.12547 0.033,-0.0263 0.0925,0.0405 0.12547,0.0142 0.033,-0.0263 -0.0187,-0.0992 0.0142,-0.12547 0.033,-0.0263 0.0925,0.0405 0.12547,0.0142 0.033,-0.0263 -0.0187,-0.0992 0.0142,-0.12546 0.033,-0.0263 0.0837,0.009 0.12546,0.0142 0.005,-0.0418 -0.0187,-0.0992 0.0142,-0.12545 0.152,-0.12103 0.13863,0.24123 0.26516,-0.097 0.0442,-0.11827 -0.0662,-0.31251 0.0427,-0.37639 0.14521,-0.0852 0.34374,0.11479 0.50185,0.0569 0.0791,-0.0289 -0.0464,-0.21242 0.0285,-0.25093 0.0124,-0.007 0.62074,0.0765 0.62733,0.0712 0.0658,-0.0524 -0.0374,-0.19848 0.0285,-0.25093 0.0658,-0.0524 0.17186,0.0575 0.25093,0.0285 0.0395,-0.0144 -0.0187,-0.0992 0.0142,-0.12546 0.033,-0.0263 0.0925,0.0405 0.12545,0.0142 0.033,-0.0263 -0.0187,-0.0992 0.0142,-0.12546 0.33457,0.038 -0.0466,0.0371 0.1397,-0.11122 0.033,-0.0263 0.0925,0.0405 0.12547,0.0142 0.033,-0.0263 -0.0276,-0.13021 0.0142,-0.12547 0.0418,0.005 -0.009,0.0837 -0.0142,0.12547 -0.0142,0.12545 -0.0285,0.25092 -0.0427,0.37638"
           id="path5534"
           inkscape:connector-curvature="0" />
        <path
           style="fill:none;fill-rule:evenodd;stroke:#000000;stroke-width:1px;stroke-linecap:butt;stroke-linejoin:miter;stroke-opacity:1"
           d="m 455.3093,848.24347 c 0.55781,-0.074 0.49652,0.10395 0.53033,-0.19397 0.005,-0.0418 -0.0187,-0.0992 0.0142,-0.12546 0.0658,-0.0524 0.18507,0.0809 0.25093,0.0285 0.0658,-0.0524 -0.0374,-0.1985 0.0285,-0.25093 0.033,-0.0263 0.0925,0.0405 0.12547,0.0142 0.033,-0.0263 -0.0187,-0.0992 0.0142,-0.12546 0.033,-0.0263 0.0925,0.0405 0.12547,0.0142 0.0932,-0.0742 -0.0647,-0.17675 0.0285,-0.25093 0.28905,-0.23012 -0.0552,0.39554 0.26516,-0.097 0.0459,-0.0706 -0.0374,-0.19848 0.0285,-0.25093 0.033,-0.0263 0.0925,0.0405 0.12546,0.0142 0.033,-0.0263 -0.0187,-0.0992 0.0142,-0.12545 0.033,-0.0263 0.0925,0.0405 0.12546,0.0142 0.033,-0.0263 -0.0187,-0.0992 0.0142,-0.12546 0.0658,-0.0524 0.20503,0.0991 0.25093,0.0285 0.0794,-0.12204 -0.027,-0.45869 0.0569,-0.50185 0.11228,-0.0577 0.26411,0.10042 0.3764,0.0427 0.0748,-0.0385 -0.0174,-0.18036 0.0285,-0.25093 0.0458,-0.0706 0.18507,0.0809 0.25093,0.0285 0.033,-0.0263 -0.0187,-0.0992 0.0142,-0.12546 0.033,-0.0263 0.0925,0.0405 0.12545,0.0142 0.033,-0.0262 -0.0187,-0.0992 0.0142,-0.12547 0.0658,-0.0524 0.18508,0.0809 0.25093,0.0285 0.033,-0.0263 -0.0187,-0.0993 0.0142,-0.12547 0.033,-0.0263 0.0837,0.01 0.12546,0.0142 0.20911,0.0237 0.41822,0.0475 0.62733,0.0712 0.0418,0.005 0.11099,-0.0252 0.12546,0.0142 0.0289,0.0791 -0.0574,0.17188 -0.0285,0.25093 0.0289,0.0791 0.22201,-0.0506 0.25091,0.0285 0.0289,0.0791 -0.0809,0.18508 -0.0285,0.25093 0.0556,0.0698 0.32078,-0.0271 0.37639,0.0427 0.0524,0.0658 -0.0809,0.18508 -0.0285,0.25093 0.0263,0.033 0.0992,-0.0187 0.12546,0.0142 0.0742,0.0932 -0.10264,0.15776 -0.0285,0.25093 0.0263,0.033 0.0992,-0.0187 0.12546,0.0142 0.0263,0.033 -0.0405,0.0925 -0.0142,0.12546 0.0263,0.033 0.0837,0.01 0.12547,0.0142 0.0304,0.003 0.37191,0.0462 0.37639,0.0427 0.033,-0.0263 -0.0187,-0.0992 0.0142,-0.12546 0.0382,-0.0305 0.42993,0.0832 0.50185,0.057 0.1118,-0.0409 0.1676,-0.18156 0.27941,-0.22246 0.0395,-0.0144 0.0837,0.009 0.12546,0.0142 0.0921,0.0104 0.70656,0.10232 0.75278,0.0854 0.0559,-0.0204 0.0838,-0.0907 0.1397,-0.11122 0.0791,-0.0289 0.18508,0.0809 0.25093,0.0285 0.033,-0.0263 -0.0187,-0.0992 0.0142,-0.12546 0.033,-0.0263 0.0837,0.009 0.12546,0.0142 0.25093,0.0285 0.50186,0.057 0.75278,0.0854 0.12547,0.0142 0.26411,0.10042 0.3764,0.0427 0.0748,-0.0385 -0.0174,-0.18035 0.0285,-0.25093 0.0229,-0.0352 0.0837,0.01 0.12547,0.0142 0.0802,0.009 0.71453,0.0994 0.75278,0.0854 0.11179,-0.0409 0.16759,-0.18156 0.2794,-0.22246 0.11971,-0.0438 0.60359,0.11701 0.75279,0.0854 0.0583,-0.0123 0.0838,-0.0907 0.1397,-0.11122 0.0526,-0.0192 0.34783,0.0654 0.37638,0.0427 0.033,-0.0263 -0.0187,-0.0992 0.0142,-0.12546 0.033,-0.0263 0.0837,0.009 0.12547,0.0142 0.25092,0.0285 0.50185,0.057 0.75278,0.0854 0.0304,0.003 0.37281,0.0383 0.37639,0.0427 0.0263,0.033 -0.0405,0.0925 -0.0142,0.12547 0.0263,0.033 0.0992,-0.0187 0.12547,0.0142 0.0263,0.033 -0.01,0.0837 -0.0142,0.12545 -0.005,0.0418 -0.01,0.0837 -0.0142,0.12547 -0.0285,0.25093 -0.057,0.50185 -0.0854,0.75278 -0.006,0.0565 -0.0193,0.34038 -0.0427,0.3764 -0.0324,0.0499 -0.10719,0.0613 -0.1397,0.11122 -0.0229,0.0353 -0.009,0.0837 -0.0142,0.12546 -0.0142,0.12546 -0.0285,0.25093 -0.0427,0.37639 -0.0237,0.20911 -0.0475,0.41822 -0.0712,0.62733 -0.019,0.16727 -0.0791,0.33496 -0.057,0.50185 0.006,0.0417 0.0925,0.0405 0.12547,0.0142 0.033,-0.0263 -0.0187,-0.0992 0.0142,-0.12546 0.033,-0.0263 0.0837,0.009 0.12546,0.0142 0.0418,0.005 0.0837,0.009 0.12546,0.0142 0.0304,0.003 0.37191,0.0462 0.3764,0.0427 0.033,-0.0263 -0.0187,-0.0992 0.0142,-0.12547 0.033,-0.0262 0.0837,0.01 0.12546,0.0142 0.0591,0.007 0.62231,0.0646 0.62731,0.0712 0.0263,0.033 -0.0405,0.0925 -0.0142,0.12546 0.0388,0.0488 0.35626,-0.0123 0.37639,0.0427 0.0289,0.0791 -0.0809,0.18508 -0.0285,0.25093 0.0524,0.0658 0.18036,-0.0174 0.25093,0.0285 0.0352,0.0229 -0.0405,0.0925 -0.0142,0.12547 0.0263,0.033 0.0901,-0.009 0.12546,0.0142 0.0499,0.0324 0.0572,0.11464 0.11123,0.13971 0.0764,0.0354 0.19849,-0.0374 0.25093,0.0285 0.0524,0.0658 -0.0574,0.17188 -0.0285,0.25093 0.0201,0.055 0.33757,-0.006 0.37639,0.0427 0.0263,0.033 -0.0405,0.0925 -0.0142,0.12547 0.0524,0.0658 0.1985,-0.0374 0.25093,0.0285 0.0263,0.033 -0.0405,0.0925 -0.0142,0.12547 0.0262,0.033 0.0992,-0.0187 0.12547,0.0142 0.0263,0.033 -0.0405,0.0925 -0.0142,0.12546 0.0336,0.0423 0.59462,0.0301 0.62731,0.0712 0.0787,0.0988 -0.0688,0.25287 -0.0427,0.37639 0.0174,0.0824 0.18036,-0.0174 0.25093,0.0285 0.0499,0.0324 0.0613,0.10719 0.11123,0.1397 0.0783,0.051 0.54386,0.0169 0.62732,0.0712 0.14969,0.0974 0.19189,0.31054 0.33367,0.4191 0.01,0.007 0.60056,0.0681 0.62733,0.0712 0.33457,0.038 -0.0371,-0.0466 0.11122,0.1397 0.0263,0.033 0.0837,0.01 0.12547,0.0142 0.0418,0.005 0.0837,0.01 0.12546,0.0142 0.29275,0.0332 0.5855,0.0664 0.87825,0.0997 0.0418,0.005 0.0925,0.0405 0.12546,0.0142 0.18627,-0.1483 -0.19487,-0.1492 0.1397,-0.11123"
           id="path5536"
           inkscape:connector-curvature="0" />
        <path
           style="fill:none;fill-rule:evenodd;stroke:#000000;stroke-width:1px;stroke-linecap:butt;stroke-linejoin:miter;stroke-opacity:1"
           d="m 456.967,854.91265 c 0.0312,-0.59552 0.46267,0.20227 0.62731,0.0712 0.033,-0.0263 -0.0187,-0.0992 0.0142,-0.12546 0.033,-0.0263 0.0925,0.0405 0.12547,0.0142 0.033,-0.0263 -0.0187,-0.0993 0.0142,-0.12547 0.0502,-0.04 0.41609,0.0883 0.50186,0.057 0.0395,-0.0144 -0.0187,-0.0992 0.0142,-0.12546 0.0658,-0.0524 0.18507,0.0809 0.25092,0.0285 0.033,-0.0263 0.01,-0.0837 0.0142,-0.12546 0.009,-0.0837 -0.0174,-0.18036 0.0285,-0.25093 0.0229,-0.0352 0.0925,0.0405 0.12547,0.0142 0.033,-0.0263 -0.0253,-0.111 0.0142,-0.12547 0.10607,-0.0388 0.27033,0.0815 0.37639,0.0427 0.0559,-0.0204 0.0838,-0.0908 0.1397,-0.11122 0.0395,-0.0144 0.0859,0.0287 0.12547,0.0142 0.0559,-0.0204 0.0932,-0.0742 0.1397,-0.11122 0.0466,-0.0371 0.1072,-0.0613 0.1397,-0.11122 0.0229,-0.0352 -0.0187,-0.0992 0.0142,-0.12546 0.0658,-0.0524 0.16858,0.0459 0.25093,0.0285 0.0921,-0.0195 0.17186,-0.0846 0.26516,-0.097 0.0835,-0.0111 0.17188,0.0573 0.25093,0.0285 0.26516,-0.097 0.43334,-0.45915 0.69851,-0.55614 0.11859,-0.0434 0.2776,0.12138 0.37638,0.0427 0.5169,-0.41154 -0.49048,-0.37612 0.32212,-0.59884 0.12178,-0.0334 0.25093,0.0285 0.37639,0.0427 0.0837,0.009 0.17188,0.0573 0.25093,0.0285 0.1118,-0.0408 0.1676,-0.18156 0.27941,-0.22245 0.0791,-0.0289 0.18507,0.0809 0.25092,0.0285 0.0658,-0.0524 -0.0174,-0.18036 0.0285,-0.25093 0.0649,-0.0998 0.22301,-0.1176 0.27941,-0.22245 0.23622,-0.43915 -0.20543,-0.40454 0.29364,-0.34791 0.0837,0.009 0.16728,0.019 0.25093,0.0285 0.0837,0.01 0.17187,0.0573 0.25093,0.0285 0.0395,-0.0144 -0.0187,-0.0992 0.0142,-0.12546 0.033,-0.0263 0.0925,0.0405 0.12547,0.0142 0.033,-0.0263 -0.0187,-0.0992 0.0142,-0.12546 0.033,-0.0263 0.0925,0.0405 0.12545,0.0142 0.033,-0.0263 0.01,-0.0837 0.0142,-0.12546 0.0837,0.009 0.17188,0.0573 0.25093,0.0285 0.0396,-0.0144 -0.0187,-0.0992 0.0142,-0.12547 0.033,-0.0263 0.0837,0.009 0.12546,0.0142 0.0418,0.005 0.0992,-0.0187 0.12547,0.0142 0.0263,0.033 -0.0405,0.0925 -0.0142,0.12546 0.0263,0.033 0.0992,-0.0187 0.12546,0.0142 0.0263,0.033 -0.009,0.0837 -0.0142,0.12546 -0.005,0.0471 -0.0738,0.62385 -0.0712,0.62732 0.0263,0.033 0.0992,-0.0187 0.12546,0.0142 0.0524,0.0658 -0.0809,0.18508 -0.0285,0.25093 0.0263,0.033 0.0992,-0.0187 0.12546,0.0142 0.0263,0.033 -0.009,0.0837 -0.0142,0.12547 -0.0332,0.29275 -0.0664,0.5855 -0.0997,0.87824 -0.009,0.0837 0.0114,0.1768 -0.0285,0.25093 -0.0719,0.13364 -0.22176,0.21427 -0.29365,0.34792 -0.0467,0.0867 -0.0237,0.57116 -0.0712,0.62731 -0.36285,0.42993 -0.25355,-0.005 -0.30788,0.47339 -0.0142,0.12546 -0.0285,0.25092 -0.0427,0.37639 -0.005,0.0418 0.0187,0.0992 -0.0142,0.12546 -0.033,0.0263 -0.0925,-0.0405 -0.12547,-0.0142 -0.033,0.0263 -0.0405,0.0925 -0.0142,0.12546 0.005,0.007 0.56817,0.0645 0.62733,0.0712 0.12546,0.0142 0.25093,0.0285 0.37639,0.0427 0.33456,0.038 0.67781,0.19857 1.00371,0.1139 0.28806,-0.0748 0.4154,-0.46431 0.6985,-0.55613 1.45237,0.16481 0.186,0.20082 1.17189,-0.24826 0.0766,-0.0349 0.16728,0.019 0.25093,0.0285 0.33457,0.038 0.66914,0.0759 1.00372,0.1139 0.0837,0.009 0.18507,0.0809 0.25091,0.0285 0.0658,-0.0524 -0.0174,-0.18035 0.0285,-0.25093 0.0229,-0.0352 0.0925,0.0405 0.12547,0.0142 0.033,-0.0263 -0.0187,-0.0993 0.0142,-0.12546 0.0698,-0.0556 0.30655,0.0983 0.3764,0.0427 0.033,-0.0263 -0.0187,-0.0992 0.0142,-0.12547 0.0285,-0.0227 0.32383,0.0619 0.3764,0.0427 0.0559,-0.0204 0.0838,-0.0907 0.1397,-0.11122 0.0916,-0.0335 0.57828,0.11021 0.62731,0.0712 0.033,-0.0263 -0.0276,-0.13022 0.0142,-0.12547 0.0591,0.007 0.0613,0.1072 0.11123,0.1397 0.0706,0.0458 0.19849,-0.0373 0.25093,0.0285 0.0263,0.033 -0.0405,0.0925 -0.0142,0.12546 0.0524,0.0658 0.18035,-0.0174 0.25093,0.0285 0.49252,0.32033 -0.13311,-0.0242 0.097,0.26516 0.0263,0.033 0.0992,-0.0187 0.12546,0.0142 0.0262,0.033 -0.0405,0.0925 -0.0142,0.12547 0.0556,0.0698 0.32078,-0.0271 0.37639,0.0427 0.0227,0.0285 -0.0619,0.32383 -0.0427,0.37639 0.0204,0.0559 0.0907,0.0838 0.11123,0.13971 0.0144,0.0395 -0.0405,0.0925 -0.0142,0.12546 0.0263,0.033 0.0992,-0.0187 0.12546,0.0142 0.0263,0.033 -0.0287,0.0859 -0.0142,0.12546 0.23465,0.64152 -0.0429,-0.72198 0.48762,0.18242 0.0852,0.14521 -0.0791,0.33496 -0.057,0.50185 0.006,0.0417 0.0837,0.009 0.12546,0.0142 0.0656,0.007 0.47073,0.0367 0.50185,0.0569 0.0499,0.0324 0.0555,0.11886 0.11123,0.13971 0.1283,0.048 0.57269,0.065 0.75279,0.0854 0.54367,0.0617 1.08735,0.12339 1.63102,0.18509"
           id="path5538"
           inkscape:connector-curvature="0" />
        <path
           style="fill:#e3dbdb;fill-opacity:1;fill-rule:evenodd;stroke:#000000;stroke-width:1px;stroke-linecap:butt;stroke-linejoin:miter;stroke-opacity:1"
           d="m 487.60715,838.48716 c 0.96151,1.20337 1.55932,2.39966 0.71427,4.73213 -6.0395,3.36061 -20.09755,2.69836 -20.0357,1.87502 -1.39676,-1.54249 -2.63777,-3.14728 -1.69643,-5.625 0,0 14.05871,0.39711 21.01786,-0.98215 z"
           id="path5540"
           inkscape:connector-curvature="0"
           sodipodi:nodetypes="ccccc" />
        <path
           sodipodi:nodetypes="ccccc"
           inkscape:connector-curvature="0"
           id="path5550"
           d="m 485.5931,848.33347 c 0.85248,0.88432 2.40101,1.07102 1.68111,5.10011 -5.91724,1.73301 -21.91706,3.75001 -21.91706,3.75001 -2.98984,-3.3964 -1.72237,-4.36006 -1.60714,-5.98214 -0.17476,-0.21359 13.69514,-2.9417 21.84309,-2.86798 z"
           style="fill:#e3dbdb;fill-opacity:1;fill-rule:evenodd;stroke:#000000;stroke-width:1px;stroke-linecap:butt;stroke-linejoin:miter;stroke-opacity:1" />
        <path
           style="fill:#e3dbdb;fill-opacity:1;fill-rule:evenodd;stroke:#000000;stroke-width:1px;stroke-linecap:butt;stroke-linejoin:miter;stroke-opacity:1"
           d="m 487.05185,856.13415 c 0.83208,1.06837 1.50347,2.34705 1.51785,4.375 -5.91724,1.73301 -20.89112,3.78158 -20.89112,3.78158 -2.87252,-2.93026 -1.66475,-4.36263 -1.69643,-6.25 -0.078,-0.25361 13.58243,-2.24372 21.0697,-1.90658 z"
           id="path5552"
           inkscape:connector-curvature="0"
           sodipodi:nodetypes="ccccc" />
        <path
           sodipodi:nodetypes="ccccc"
           inkscape:connector-curvature="0"
           id="path5554"
           d="m 485.64287,863.17597 1.60714,3.53571 c -4.83502,5.22725 -15.71454,8.11627 -15.75,7.67858 -3.49452,-2.02342 -1.98247,-3.68922 -2.5,-5.5 -0.0178,0.89489 8.92411,-1.17239 16.64286,-5.71429 z"
           style="fill:#e3dbdb;fill-opacity:1;fill-rule:evenodd;stroke:#000000;stroke-width:1px;stroke-linecap:butt;stroke-linejoin:miter;stroke-opacity:1" />
        <path
           style="fill:#e3dbdb;fill-opacity:1;fill-rule:evenodd;stroke:#000000;stroke-width:1px;stroke-linecap:butt;stroke-linejoin:miter;stroke-opacity:1"
           d="m 448.54979,847.19704 c -2.37979,1.00237 -3.20908,4.31039 -2.81753,6.23654 3.32795,3.42944 11.28571,7.75001 11.28571,7.75001 2.01003,-1.59196 2.01742,-5.13053 1.41774,-7.43423 0,0 -4.26606,-2.4052 -9.88592,-6.55232 z"
           id="path5556"
           inkscape:connector-curvature="0"
           sodipodi:nodetypes="ccccc" />
        <path
           style="fill:none;fill-rule:evenodd;stroke:#000000;stroke-width:1px;stroke-linecap:butt;stroke-linejoin:miter;stroke-opacity:1"
           d="m 477.51786,839.29073 c 1.50805,3.02983 -0.1092,4.18448 -0.80357,5.89286"
           id="path5560"
           inkscape:connector-curvature="0"
           sodipodi:nodetypes="cc" />
        <path
           style="fill:none;fill-rule:evenodd;stroke:#000000;stroke-width:1px;stroke-linecap:butt;stroke-linejoin:miter;stroke-opacity:1"
           d="m 472.33929,849.95145 c 1.14002,1.75595 1.53398,3.86905 0.53571,5.625"
           id="path5562"
           inkscape:connector-curvature="0"
           sodipodi:nodetypes="cc" />
        <path
           style="fill:none;fill-rule:evenodd;stroke:#000000;stroke-width:1px;stroke-linecap:butt;stroke-linejoin:miter;stroke-opacity:1"
           d="m 473.32143,857.0943 c 1.12152,1.60932 2.25437,3.21156 1.51786,5.98215"
           id="path5564"
           inkscape:connector-curvature="0"
           sodipodi:nodetypes="cc" />
        <path
           style="fill:none;fill-rule:evenodd;stroke:#000000;stroke-width:1px;stroke-linecap:butt;stroke-linejoin:miter;stroke-opacity:1"
           d="m 475.91072,867.7193 c -0.25507,1.3885 2.76863,0.86806 1.51785,4.10715"
           id="path5566"
           inkscape:connector-curvature="0"
           sodipodi:nodetypes="cc" />
        <path
           style="fill:#e3dbdb;fill-opacity:1;fill-rule:evenodd;stroke:#000000;stroke-width:1px;stroke-linecap:butt;stroke-linejoin:miter;stroke-opacity:1"
           d="m 136.9597,890.59989 -4.21655,6.09418 c -0.54987,7.31584 -1.41049,7.17387 -2.18093,9.19597 -0.18421,4.3805 -5.1666,7.22063 -6.37256,11.73405 -1.27466,2.41617 -2.71952,4.47648 -6.56599,1.51523 -3.42464,-4.90448 3.90185,-8.46599 2.48531,-13.77209 -1.69537,-1.25486 -2.56978,-2.45253 -4.65013,-1.72561 -7.21897,2.51651 -11.24285,2.87779 -19.588449,4.1488 -22.40678,2.40805 -15.266749,-4.89807 -16.061359,-4.76484 -2.314299,0.38805 -5.661666,-2.69366 -3.470862,-4.34463 0.939799,-0.70822 -4.594074,-2.22927 1.690423,-5.17495 0.389799,-0.18271 -0.813186,-2.22484 1.072304,-3.73244 11.822913,-3.17093 19.37572,-3.68932 24.090283,-6.04746 2.55377,-1.27735 5.85962,-3.9304 9.18828,-3.08987 l 3.78807,-4.29316 c 7.20487,4.96245 13.09761,10.07901 20.79216,14.25682 z"
           id="path14613"
           inkscape:connector-curvature="0"
           sodipodi:nodetypes="ccccccccssscsccc" />
        <path
           style="fill:none;fill-rule:evenodd;stroke:#000000;stroke-width:1px;stroke-linecap:butt;stroke-linejoin:miter;stroke-opacity:1"
           d="m 78.413092,893.26313 14.179118,-3.16307 12.08486,-1.76142"
           id="path14617"
           inkscape:connector-curvature="0"
           sodipodi:nodetypes="ccc" />
        <path
           style="fill:none;fill-rule:evenodd;stroke:#000000;stroke-width:1px;stroke-linecap:butt;stroke-linejoin:miter;stroke-opacity:1"
           d="m 76.405477,898.58176 14.634521,-3.42459 14.773482,-1.01015"
           id="path14619"
           inkscape:connector-curvature="0"
           sodipodi:nodetypes="ccc" />
        <path
           style="fill:none;fill-rule:evenodd;stroke:#000000;stroke-width:1px;stroke-linecap:butt;stroke-linejoin:miter;stroke-opacity:1"
           d="m 79.296975,902.98585 11.995561,-2.14658 14.647224,-0.75761"
           id="path14621"
           inkscape:connector-curvature="0"
           sodipodi:nodetypes="ccc" />
      </g>
    </g>
    <g
       id="g26210"
       transform="translate(0.5,651.86216)">
      <g
         inkscape:label="bg"
         id="layer7">
        <path
           inkscape:connector-curvature="0"
           id="path22148"
           d="M 0,400 0,0 l 400,0 0,400 z"
           style="fill:#151515;fill-opacity:1;fill-rule:evenodd;stroke:#000000;stroke-width:1px;stroke-linecap:butt;stroke-linejoin:miter;stroke-opacity:1" />
        <path
           inkscape:connector-curvature="0"
           id="path23059"
           d="m 0,0 400,0 0,219.68777 -400,1.01015 z"
           style="fill:#1a1a1a;fill-rule:evenodd;stroke:#000000;stroke-width:1px;stroke-linecap:butt;stroke-linejoin:miter;stroke-opacity:1" />
        <path
           sodipodi:nodetypes="ssscs"
           inkscape:connector-curvature="0"
           id="path24215"
           d="m 305.93663,24.35018 c 19.19985,1.359528 31.18143,21.997234 31.15692,38.584278 -0.029,19.648941 -15.74148,32.916041 -35.38776,32.591521 -19.80287,-0.32711 -35.96155,-17.20786 -34.52529,-37.579974 2.37511,-19.489188 19.8551,-34.934194 38.75613,-33.595825 z"
           style="opacity:1;fill:none;fill-opacity:1;stroke:#351d1d;stroke-width:1;stroke-linecap:butt;stroke-linejoin:round;stroke-miterlimit:4;stroke-dasharray:none;stroke-dashoffset:0;stroke-opacity:1" />
        <path
           sodipodi:nodetypes="ccc"
           inkscape:connector-curvature="0"
           id="path24218"
           d="m 274.99999,101.9643 c 8.98498,-29.316044 23.62256,-57.812462 34.8722,-86.188739 4.33404,31.166614 9.4261,59.521286 9.77066,91.903019"
           style="fill:none;fill-rule:evenodd;stroke:#351d1d;stroke-width:1px;stroke-linecap:butt;stroke-linejoin:miter;stroke-opacity:1" />
        <path
           sodipodi:nodetypes="cc"
           inkscape:connector-curvature="0"
           id="path24220"
           d="m 258.92856,52.142857 c 18.7181,5.129845 65.79155,5.826058 88.75001,11.071428"
           style="fill:none;fill-rule:evenodd;stroke:#351d1d;stroke-width:1px;stroke-linecap:butt;stroke-linejoin:miter;stroke-opacity:1" />
      </g>
      <g
         style="display:inline"
         inkscape:label="Layer 2"
         id="layer8">
        <path
           inkscape:connector-curvature="0"
           id="path22165"
           d="m 206.78286,230.5605 100.0051,27.27412 14.14214,-45.45687 -98.48987,-25.25381"
           style="fill:none;fill-rule:evenodd;stroke:#000000;stroke-width:1px;stroke-linecap:butt;stroke-linejoin:miter;stroke-opacity:1" />
        <path
           inkscape:connector-curvature="0"
           id="path22167"
           d="m 254.26003,243.1874 15.15229,-42.93148 -5.55584,-30.80965 -16.16244,48.48732 z"
           style="fill:#252525;fill-opacity:1;fill-rule:evenodd;stroke:#000000;stroke-width:1px;stroke-linecap:butt;stroke-linejoin:miter;stroke-opacity:1" />
        <path
           inkscape:connector-curvature="0"
           id="path22169"
           d="M 263.81128,170.25561 222.20414,159.54133"
           style="fill:none;fill-rule:evenodd;stroke:#000000;stroke-width:1px;stroke-linecap:butt;stroke-linejoin:miter;stroke-opacity:1" />
        <path
           sodipodi:nodetypes="cc"
           inkscape:connector-curvature="0"
           id="path22171"
           d="M 247.56128,217.39847 205.38779,206.88968"
           style="fill:none;fill-rule:evenodd;stroke:#000000;stroke-width:1px;stroke-linecap:butt;stroke-linejoin:miter;stroke-opacity:1" />
        <path
           inkscape:connector-curvature="0"
           id="path22173"
           d="m 254.347,243.73775 15.625,-44.10714"
           style="fill:none;fill-rule:evenodd;stroke:#000000;stroke-width:1px;stroke-linecap:butt;stroke-linejoin:miter;stroke-opacity:1" />
        <path
           sodipodi:nodetypes="ccccccc"
           inkscape:connector-curvature="0"
           id="path22181"
           d="m 252.42913,242.93487 -6.81853,-25.88516 15.70069,-47.28517 2.58928,0.58036 -16.16072,47.1875 6.83036,26.25 z"
           style="fill:#2f2f2f;fill-opacity:1;fill-rule:evenodd;stroke:#000000;stroke-width:1px;stroke-linecap:butt;stroke-linejoin:miter;stroke-opacity:1" />
        <path
           inkscape:connector-curvature="0"
           id="path22195"
           d="m 280.92659,250.24744 c -13.91728,-3.80735 -25.4182,-6.96621 -25.5576,-7.01971 -0.19679,-0.0755 1.44075,-4.88156 7.32406,-21.49552 4.16763,-11.76905 7.65095,-21.47263 7.7407,-21.56352 0.13991,-0.14168 10.78793,2.53958 46.28743,11.65557 1.84118,0.4728 3.38461,0.89665 3.42985,0.94188 0.10814,0.10815 -13.68347,44.44866 -13.81735,44.42327 -0.0566,-0.0107 -11.48982,-3.13463 -25.40709,-6.94197 z"
           style="opacity:1;fill:url(#pattern23031);fill-opacity:1;stroke:#000000;stroke-width:0.05357143;stroke-linecap:butt;stroke-linejoin:round;stroke-miterlimit:4;stroke-dasharray:none;stroke-dashoffset:0;stroke-opacity:1" />
        <path
           sodipodi:nodetypes="ccc"
           inkscape:connector-curvature="0"
           id="path22183"
           d="m 207.28794,230.5605 0.50507,-1.4521 44.38358,12.31124"
           style="fill:none;fill-rule:evenodd;stroke:#000000;stroke-width:1px;stroke-linecap:butt;stroke-linejoin:miter;stroke-opacity:1" />
        <path
           inkscape:connector-curvature="0"
           id="path22185"
           d="m 206.08838,206.75878 0.75762,-1.51523 39.08027,10.10152"
           style="fill:none;fill-rule:evenodd;stroke:#000000;stroke-width:1px;stroke-linecap:butt;stroke-linejoin:miter;stroke-opacity:1" />
        <path
           inkscape:connector-curvature="0"
           id="path22187"
           d="m 222.88217,187.12394 0.75761,-1.38896 29.92577,7.76555"
           style="fill:none;fill-rule:evenodd;stroke:#000000;stroke-width:1px;stroke-linecap:butt;stroke-linejoin:miter;stroke-opacity:1" />
        <path
           inkscape:connector-curvature="0"
           id="path22189"
           d="m 222.56649,159.59728 -0.88388,1.8309 39.01714,10.2278"
           style="fill:none;fill-rule:evenodd;stroke:#000000;stroke-width:1px;stroke-linecap:butt;stroke-linejoin:miter;stroke-opacity:1" />
      </g>
      <g
         transform="translate(0,-652.36216)"
         id="layer1-60"
         inkscape:label="Layer 1">
        <path
           style="fill:#9aa09a;fill-opacity:1;fill-rule:evenodd;stroke:#000000;stroke-width:1px;stroke-linecap:butt;stroke-linejoin:miter;stroke-opacity:1"
           d="m 31.438813,1003.0897 -0.26787,7.8572 c 2.6865,1.9078 5.0505,2.6072 7.69767,2.6122 1.56307,-0.4003 6.51889,-0.9965 18.54,1.5893 6.816859,0.9237 12.854499,-0.1679 23.315899,-2.773 l 0.98214,-2.6785"
           id="path21403"
           inkscape:connector-curvature="0"
           sodipodi:nodetypes="cccccc" />
        <path
           style="display:inline;fill:#b9c6b9;fill-opacity:1;fill-rule:evenodd;stroke:#000000;stroke-width:1px;stroke-linecap:butt;stroke-linejoin:miter;stroke-opacity:1"
           d="m 50.197913,994.3693 c 1.04669,4.7379 34.184199,6.8063 31.314989,15.2298 -4.93508,5.0162 -44.409419,4.6668 -49.581589,-2.8328 -2.03947,-4.7265 1.03688,-8.1668 1.27057,-14.38943 z"
           id="path22124"
           inkscape:connector-curvature="0"
           sodipodi:nodetypes="ccccc" />
        <path
           sodipodi:nodetypes="cccccc"
           inkscape:connector-curvature="0"
           id="path21401"
           d="m 27.260233,1006.6433 -0.26787,7.8571 c 2.6865,1.9078 5.0505,2.6073 7.69767,2.6122 1.38616,-0.418 -1.93327,-1.8417 18.54,1.5894 6.81686,0.9236 12.854499,-0.168 23.315899,-2.773 l 0.98214,-2.6786"
           style="fill:#9aa09a;fill-opacity:1;fill-rule:evenodd;stroke:#000000;stroke-width:1px;stroke-linecap:butt;stroke-linejoin:miter;stroke-opacity:1" />
        <path
           style="display:inline;opacity:1;fill:#a7ac93;fill-opacity:1;stroke:#000000;stroke-width:0.04464286;stroke-linecap:butt;stroke-linejoin:round;stroke-miterlimit:4;stroke-dasharray:none;stroke-dashoffset:0;stroke-opacity:1"
           d="m 71.142742,1011.8106 c 15.19339,0.014 11.56123,-6.5855 1.21886,-9.2517 -2.39428,1.202 -3.00761,8.0322 -1.21886,9.2517 z"
           id="path22126"
           inkscape:connector-curvature="0"
           sodipodi:nodetypes="ccc" />
        <path
           sodipodi:nodetypes="ccccc"
           inkscape:connector-curvature="0"
           id="path21393"
           d="m 46.197913,997.8641 c 1.04669,4.7379 34.184199,6.8063 31.314989,15.2298 -4.93508,5.0162 -44.409419,4.6668 -49.581589,-2.8328 -2.03947,-4.7265 1.03688,-8.1668 1.27057,-14.3894 z"
           style="display:inline;fill:#b9c6b9;fill-opacity:1;fill-rule:evenodd;stroke:#000000;stroke-width:1px;stroke-linecap:butt;stroke-linejoin:miter;stroke-opacity:1" />
        <path
           sodipodi:nodetypes="cccc"
           inkscape:connector-curvature="0"
           id="path21373"
           d="m 61.635229,887.17894 3.147753,110.86596 c -7.162249,1.5022 -16.490119,2.862 -23.652369,0.6609 l -1.79733,-33.46056"
           style="fill:#373e48;fill-opacity:1;fill-rule:evenodd;stroke:#000000;stroke-width:1px;stroke-linecap:butt;stroke-linejoin:miter;stroke-opacity:1" />
        <path
           sodipodi:nodetypes="cccc"
           inkscape:connector-curvature="0"
           id="path21361"
           d="m 65.117362,734.14324 c -1.24023,4.6133 -4.166389,12.1216 -7.142859,19.3393 -7.57964,2.0082 -12.06051,-4.1016 -18.21429,-7.3215 l 8.03572,-20.4107"
           style="fill:#e3e2db;fill-opacity:1;fill-rule:evenodd;stroke:#000000;stroke-width:1px;stroke-linecap:butt;stroke-linejoin:miter;stroke-opacity:1" />
        <path
           sodipodi:nodetypes="csscscccccc"
           inkscape:connector-curvature="0"
           id="path21375"
           d="m 44.473893,710.88824 c -0.0446,-10.8083 4.79924,-22.0668 15.60736,-21.9993 10.647129,0.067 20.709529,8.7449 18.275359,18.6803 -0.22725,0.9275 0.32837,3.2301 0.32837,3.2301 -0.451079,2.33868 4.234107,8.12488 3.97639,10.8272 -0.179128,1.87827 -3.477626,0.65916 -4.005246,1.64196 -0.26738,3.088 -0.158415,4.99064 -0.163915,8.16544 0.14659,2.7802 -4.076538,6.42463 -6.216348,7.19443 -1.95588,1.0567 -15.43438,0.35127 -22.42886,-8.42583 -7.34877,-9.1083 -5.1337,-10.2676 -5.37314,-19.3143 z"
           style="display:inline;opacity:1;fill:#e3e2db;fill-opacity:1;stroke:#000000;stroke-width:0.99186939;stroke-linejoin:round;stroke-miterlimit:4;stroke-dasharray:none;stroke-dashoffset:0;stroke-opacity:1" />
        <path
           sodipodi:nodetypes="cccc"
           inkscape:connector-curvature="0"
           id="path21309"
           d="m 75.588842,710.27334 c 1.15156,1.4662 0.77418,2.9258 -0.20472,3.9186 0,0 -2.13002,-0.925 -3.92474,-2.624 0.91165,-0.7131 2.95841,-1.1075 4.12946,-1.2946 z"
           style="fill:#eddede;fill-opacity:1;fill-rule:evenodd;stroke:#000000;stroke-width:0.30000001;stroke-linecap:butt;stroke-linejoin:miter;stroke-miterlimit:4;stroke-dasharray:none;stroke-opacity:1" />
        <path
           sodipodi:nodetypes="cccc"
           inkscape:connector-curvature="0"
           id="path21313"
           d="m 78.074527,729.11614 c -2.38537,0.011 -4.82846,0.1893 -6.15868,0.4113 1.63239,0.3967 5.11165,1.251 6.2244,0.9595 z"
           style="fill:#a7ac93;fill-opacity:1;fill-rule:evenodd;stroke:none;stroke-width:0.40000001;stroke-linecap:butt;stroke-linejoin:miter;stroke-miterlimit:4;stroke-dasharray:none;stroke-opacity:1" />
        <path
           sodipodi:nodetypes="ccc"
           inkscape:connector-curvature="0"
           id="path21315"
           d="m 75.581612,710.27564 c -0.238744,0.72618 -1.609987,3.75704 -0.22163,3.8871 1.20033,-0.862 1.16018,-3.1139 0.22163,-3.8871 z"
           style="fill:#37483e;fill-opacity:1;fill-rule:evenodd;stroke:#000000;stroke-width:0.2;stroke-linecap:butt;stroke-linejoin:miter;stroke-miterlimit:4;stroke-dasharray:none;stroke-opacity:1" />
        <path
           style="display:inline;fill:none;fill-rule:evenodd;stroke:#484537;stroke-width:1.19024324;stroke-linecap:butt;stroke-linejoin:miter;stroke-miterlimit:4;stroke-dasharray:none;stroke-opacity:1"
           d="m 76.982172,709.16934 c -0.65086,-0.1966 -4.38868,-1.4834 -6.60707,0.5823"
           id="path21319"
           inkscape:connector-curvature="0"
           sodipodi:nodetypes="cc" />
        <path
           sodipodi:nodetypes="ccc"
           inkscape:connector-curvature="0"
           id="path21357"
           d="m 36.420943,731.64324 c 1.16668,3.5722 3.14505,6.4409 2.67857,11.4286 3.40613,-3.1658 4.65393,-7.7704 6.78572,-11.7858"
           style="fill:#374845;fill-opacity:1;fill-rule:evenodd;stroke:#000000;stroke-width:1px;stroke-linecap:butt;stroke-linejoin:miter;stroke-opacity:1" />
        <path
           style="fill:#374845;fill-opacity:1;fill-rule:evenodd;stroke:#000000;stroke-width:1px;stroke-linecap:butt;stroke-linejoin:miter;stroke-opacity:1"
           d="m 35.834173,715.98654 c 1.16668,3.5722 -4.58893,9.8186 -5.05541,14.8062 3.40613,-3.1657 6.98991,-0.3521 9.1217,-4.3674"
           id="path21359"
           inkscape:connector-curvature="0"
           sodipodi:nodetypes="ccc" />
        <path
           style="display:inline;opacity:0.3;fill:#374845;fill-opacity:1;stroke:#1f241c;stroke-width:0.08766971;stroke-linejoin:round;stroke-miterlimit:4;stroke-dasharray:none;stroke-dashoffset:0;stroke-opacity:1"
           d="m 67.990122,740.40334 c -8.882079,-1.9797 -14.224289,-3.7653 -15.430319,-10.9329 l 8.56966,1.1191 c 8.398019,4.8486 11.934939,4.0491 16.382519,3.965 1.18585,5.3586 -5.64187,7.8816 -9.52186,5.8488 z"
           id="path21343"
           inkscape:connector-curvature="0"
           sodipodi:nodetypes="ccccc" />
        <path
           sodipodi:nodetypes="ccccccccccccccccccccccccc"
           inkscape:connector-curvature="0"
           id="path21317"
           d="m 66.898792,698.44804 c 1.32108,3.261 5.17719,6.6032 7.81599,8.2994 0.68268,-3.7039 0.95695,-5.64 0.1894,-7.7655 1.36489,0.1756 4.172936,2.31384 6.455046,3.18364 -0.81846,-3.8613 -5.550636,-10.28864 -10.306246,-13.41144 -0.29938,-0.6877 -3.3533,-1.8725 -5.94036,-4.0472 -1.33591,1.5672 -5.046589,-0.563 -6.560279,0.3222 -4.36397,-1.6045 -16.85832,0.7808 -23.3658,4.7378 1.9216,0.6019 4.72118,0.865 6.83833,0.9993 -4.37604,3.6641 -4.18699,4.5393 -10.32723,4.9958 1.18099,1.4187 0.56575,3.4613 2.75997,4.5267 -1.18905,4.3686 -3.7966,6.5531 -7.83503,9.2456 2.77792,1.3026 4.21655,2.2278 6.99447,1.1887 -1.69672,4.9682 -1.61545,8.564 -5.32868,12.6919 3.18431,0.8618 5.61197,0.021 7.44988,-2.1465 -1.00779,6.6572 -3.76812,12.9099 -6.9448,19.0666 4.22714,-2.1954 9.77644,-2.9412 12.61421,-8.9778 1.92582,5.837 5.18676,9.9686 5.90673,15.4175 2.2723,-5.0722 4.36157,-10.2817 8.5863,-13.8896 0.93546,4.8656 4.56077,6.657 7.071059,9.7227 -1.516009,-7.2001 -5.065059,-13.9647 -3.409259,-21.8445 2.845436,-0.3613 6.457139,2.3425 9.848989,4.1669 -0.16054,-5.4319 -2.16519,-11.2802 -4.9245,-17.2989 1.4824,0.423 3.56928,2.3572 6.06092,5.3033 -0.26879,-4.3173 -1.59364,-10.2505 -3.64911,-14.4866 z"
           style="fill:#374845;fill-opacity:1;fill-rule:evenodd;stroke:#000000;stroke-width:1px;stroke-linecap:butt;stroke-linejoin:miter;stroke-opacity:1" />
        <path
           style="display:inline;opacity:0.3;fill:#374845;fill-opacity:1;fill-rule:evenodd;stroke:none;stroke-width:1px;stroke-linecap:butt;stroke-linejoin:miter;stroke-opacity:1"
           d="m 71.476672,729.42714 c 5.72963,-1.6168 6.67008,-1.1702 6.67008,-1.1702 l -0.11406,-3.0608 c -0.69128,0.038 -1.36043,0.6025 -2.12345,0.9314 -1.15441,0.4975 -2.93173,0.7046 -4.98031,1.0481 z"
           id="path21321"
           inkscape:connector-curvature="0"
           sodipodi:nodetypes="cccscc" />
        <path
           sodipodi:nodetypes="cccc"
           inkscape:connector-curvature="0"
           id="path21345"
           d="m 71.376302,711.55394 c 0.97013,-0.9908 2.49746,-1.6915 4.24107,-1.3393 0.2775,0.1654 0.646599,1.46248 0.751289,1.80518 -1.2939,-0.5277 -3.299699,-1.12318 -4.992359,-0.46588 z"
           style="fill:#e3e2db;fill-opacity:1;fill-rule:evenodd;stroke:#000000;stroke-width:0.30000001;stroke-linecap:butt;stroke-linejoin:miter;stroke-miterlimit:4;stroke-dasharray:none;stroke-opacity:1" />
        <path
           sodipodi:nodetypes="ccc"
           inkscape:connector-curvature="0"
           id="path21347"
           d="m 48.072003,714.80834 c 1.68737,7.2564 1.12346,11.6182 0.50508,15.9099 3.27905,-3.2853 6.01381,-6.8881 5.3033,-12.5006"
           style="fill:none;fill-rule:evenodd;stroke:#000000;stroke-width:1px;stroke-linecap:butt;stroke-linejoin:miter;stroke-opacity:1" />
        <path
           sodipodi:nodetypes="ccc"
           inkscape:connector-curvature="0"
           id="path21349"
           d="m 46.556783,697.38324 c -0.0658,3.498 -2.01788,5.918 -4.41942,8.0812 2.65693,0.08 5.36736,0.013 9.34391,-3.5355"
           style="fill:none;fill-rule:evenodd;stroke:#000000;stroke-width:1px;stroke-linecap:butt;stroke-linejoin:miter;stroke-opacity:1" />
        <path
           sodipodi:nodetypes="ccc"
           inkscape:connector-curvature="0"
           id="path21351"
           d="m 59.436223,704.95934 c -0.53923,3.8223 -2.33182,7.0749 -6.56599,9.2177 0.59199,-2.7162 1.24729,-7.4843 -0.12627,-9.2177"
           style="fill:none;fill-rule:evenodd;stroke:#000000;stroke-width:1px;stroke-linecap:butt;stroke-linejoin:miter;stroke-opacity:1" />
        <path
           sodipodi:nodetypes="ccc"
           inkscape:connector-curvature="0"
           id="path21353"
           d="m 61.835329,692.45874 c 1.239353,3.4514 3.702733,6.9027 2.146583,10.3541 -2.003173,-1.8286 -3.983969,-3.7913 -6.313459,-3.6618"
           style="fill:none;fill-rule:evenodd;stroke:#000000;stroke-width:1px;stroke-linecap:butt;stroke-linejoin:miter;stroke-opacity:1" />
        <path
           sodipodi:nodetypes="ccc"
           inkscape:connector-curvature="0"
           id="path21355"
           d="m 40.874673,711.14654 c 0.32374,3.5032 -1.09313,8.3118 -2.02031,12.7532 2.90354,-2.5846 5.46373,-5.3065 5.05077,-9.2176"
           style="fill:none;fill-rule:evenodd;stroke:#000000;stroke-width:1px;stroke-linecap:butt;stroke-linejoin:miter;stroke-opacity:1" />
        <path
           sodipodi:nodetypes="ssccs"
           inkscape:connector-curvature="0"
           id="path21363"
           d="m 42.170953,742.50034 c 8.65896,-1.2581 17.65819,3.2868 20.882789,13.4183 2.64698,8.3166 10.1935,58.8957 1.26006,88.5817 l -35.178569,0.8929 c -0.87437,-0.7735 -5.68715,-100.1725 13.03572,-102.8929 z"
           style="fill:#53676c;fill-opacity:1;fill-rule:evenodd;stroke:#000000;stroke-width:1px;stroke-linecap:butt;stroke-linejoin:miter;stroke-opacity:1" />
        <path
           sodipodi:nodetypes="ccccccc"
           inkscape:connector-curvature="0"
           id="path21371"
           d="m 29.492373,847.89324 c -7.12963,8.7458 -3.37605,27.3854 -0.35714,45.3571 l -3.21429,105.35726 c 12.97537,7.3031 23.80682,7.4573 31.91942,2.9042 l 4.509146,-107.54716 2.142853,-47.8571 z"
           style="fill:#373e48;fill-opacity:1;fill-rule:evenodd;stroke:#000000;stroke-width:1px;stroke-linecap:butt;stroke-linejoin:miter;stroke-opacity:1" />
        <path
           sodipodi:nodetypes="cccc"
           inkscape:connector-curvature="0"
           id="path21391"
           d="m 58.153083,853.69684 c 1.29464,0.8762 2.58929,1.4184 3.883926,2.9464 l -1.428566,3.8839 z"
           style="fill:#b3b3b3;fill-opacity:1;fill-rule:evenodd;stroke:#000000;stroke-width:1px;stroke-linecap:butt;stroke-linejoin:miter;stroke-opacity:1" />
        <path
           sodipodi:nodetypes="cc"
           inkscape:connector-curvature="0"
           id="path21387"
           d="m 63.024192,852.53234 c -1.167653,6.3644 -2.852069,12.3844 -9.642859,15"
           style="fill:none;fill-rule:evenodd;stroke:#000000;stroke-width:1px;stroke-linecap:butt;stroke-linejoin:miter;stroke-opacity:1" />
        <path
           sodipodi:nodetypes="cscssc"
           inkscape:connector-curvature="0"
           id="path21389"
           d="m 59.837443,872.56504 c 2.627716,-0.2754 2.747666,-3.9759 1.26019,-8.7724 -1.37677,-4.4394 -1.97767,-9.9573 -3.48914,-13.1265 -4.16203,0.2739 -7.26371,-1.7011 -8.75748,0.2057 -3.4444,4.3968 -0.95548,15.5475 4.2116,20.6787 1.69108,1.6793 4.89341,1.0724 6.77483,1.0145 z"
           style="display:inline;fill:#b3b3b3;fill-rule:evenodd;stroke:#000000;stroke-width:1px;stroke-linecap:butt;stroke-linejoin:miter;stroke-opacity:1" />
        <path
           sodipodi:nodetypes="ccccc"
           inkscape:connector-curvature="0"
           id="path21365"
           d="m 27.795943,842.44684 c 10.96547,2.0578 24.9959,3.7962 37.946429,0.4464 l -0.35715,5.5357 c -12.276679,2.7187 -24.592369,4.5569 -38.214279,0.5357 z"
           style="fill:#000000;fill-rule:evenodd;stroke:#000000;stroke-width:1px;stroke-linecap:butt;stroke-linejoin:miter;stroke-opacity:1" />
        <path
           sodipodi:nodetypes="cccccc"
           inkscape:connector-curvature="0"
           id="path21385"
           d="m 37.706653,762.53604 c -2.74486,15.1972 -3.68986,30.3943 -4.82914,45.5915 4.15879,14.9752 6.25133,29.715 13.22201,45.1228 l 13.74999,-1.0714 c -3.48,-14.0827 -6.98168,-28.174 -11.62572,-42.7222 4.18263,-14.9835 7.74064,-30.0919 10.73286,-45.3135"
           style="fill:#53676c;fill-opacity:1;fill-rule:evenodd;stroke:#000000;stroke-width:1px;stroke-linecap:butt;stroke-linejoin:miter;stroke-opacity:1" />
        <path
           sodipodi:nodetypes="ccc"
           inkscape:connector-curvature="0"
           id="path21395"
           d="m 67.142742,1015.3054 c 15.19339,0.014 11.56123,-6.5855 1.21886,-9.2517 -2.39428,1.202 -3.00761,8.0322 -1.21886,9.2517 z"
           style="display:inline;opacity:1;fill:#a7ac93;fill-opacity:1;stroke:#000000;stroke-width:0.04464286;stroke-linecap:butt;stroke-linejoin:round;stroke-miterlimit:4;stroke-dasharray:none;stroke-dashoffset:0;stroke-opacity:1" />
        <path
           d="m 76.004465,712.93585 a 0.29017857,0.50223213 0 0 1 -0.289579,0.50223 0.29017857,0.50223213 0 0 1 -0.290775,-0.50015 0.29017857,0.50223213 0 0 1 0.288379,-0.5043 0.29017857,0.50223213 0 0 1 0.291965,0.49808"
           sodipodi:open="true"
           sodipodi:end="6.2749299"
           sodipodi:start="0"
           sodipodi:ry="0.50223213"
           sodipodi:rx="0.29017857"
           sodipodi:cy="712.93585"
           sodipodi:cx="75.714287"
           sodipodi:type="arc"
           id="path22154"
           style="opacity:0.91000001;fill:#000000;fill-opacity:1;stroke:#000000;stroke-width:0.30000001;stroke-linecap:butt;stroke-linejoin:round;stroke-miterlimit:4;stroke-dasharray:none;stroke-dashoffset:0;stroke-opacity:1" />
        <path
           style="fill:#280b0b;fill-opacity:1;fill-rule:evenodd;stroke:#000000;stroke-width:1px;stroke-linecap:butt;stroke-linejoin:miter;stroke-opacity:1"
           d="m 361.46428,986.79074 c -1.09784,3.09524 -0.29344,6.19048 -3.92857,9.28572 -15.23371,2.64344 -32.38602,-2.21961 -39.70631,-6.0931 -1.1083,-7.18464 17.42071,-0.13272 29.11457,-11.27166 z"
           id="path22162"
           inkscape:connector-curvature="0"
           sodipodi:nodetypes="ccccc" />
        <path
           style="fill:#373e48;fill-opacity:1;fill-rule:evenodd;stroke:#000000;stroke-width:1px;stroke-linecap:butt;stroke-linejoin:miter;stroke-opacity:1"
           d="m 399.49493,946.01188 c 0,0 -17.79937,-10.33992 -24.72833,-9.59645 -7.25153,0.77808 -39.46953,45.088 -37.61024,44.34428 1.71456,3.17522 2.6136,8.66086 13.49656,8.70359 11.53994,-11.62955 24.8817,-14.74452 32.44743,-27.03644 5.49262,3.45489 12.4362,9.66114 16.14204,10.10152 z"
           id="path22156"
           inkscape:connector-curvature="0"
           sodipodi:nodetypes="csccccc" />
        <path
           sodipodi:nodetypes="ccccc"
           inkscape:connector-curvature="0"
           id="path22160"
           d="m 358.39286,1015.005 c -1.09784,3.0953 -0.29344,6.1905 -3.92857,9.2857 -15.23371,2.6435 -32.38602,-2.2196 -39.70631,-6.0931 -1.1083,-7.1846 17.42071,-0.1327 29.11457,-11.2716 z"
           style="fill:#280b0b;fill-opacity:1;fill-rule:evenodd;stroke:#000000;stroke-width:1px;stroke-linecap:butt;stroke-linejoin:miter;stroke-opacity:1" />
        <path
           sodipodi:nodetypes="csccccc"
           inkscape:connector-curvature="0"
           id="path22150"
           d="m 400.50508,961.66924 c 0,0 -17.79937,-10.33992 -24.72833,-9.59645 -7.25153,0.77808 -38.89791,55.40921 -37.03862,54.66551 4.16016,4.6639 12.28827,11.497 22.26668,10.9891 11.53994,-11.6295 15.53996,-27.35126 23.10569,-39.64318 5.49262,3.45489 12.4362,9.66114 16.14204,10.10152 z"
           style="fill:#373e48;fill-opacity:1;fill-rule:evenodd;stroke:#000000;stroke-width:1px;stroke-linecap:butt;stroke-linejoin:miter;stroke-opacity:1" />
      </g>
    </g>
    <rect
       style="opacity:1;fill:#483737;fill-opacity:1;stroke:none;stroke-width:0.90499997;stroke-linecap:round;stroke-linejoin:round;stroke-miterlimit:4;stroke-dasharray:none;stroke-dashoffset:0;stroke-opacity:1"
       id="rect9360"
       width="10"
       height="810"
       x="400"
       y="242.36217" />
    <rect
       y="-810"
       x="642.36218"
       height="810"
       width="10"
       id="rect9362"
       style="opacity:1;fill:#483737;fill-opacity:1;stroke:none;stroke-width:0.90499997;stroke-linecap:round;stroke-linejoin:round;stroke-miterlimit:4;stroke-dasharray:none;stroke-dashoffset:0;stroke-opacity:1"
       transform="matrix(0,1,-1,0,0,0)" />
    <text
       xml:space="preserve"
       style="font-style:normal;font-weight:normal;font-size:16.25px;line-height:125%;font-family:Sans;letter-spacing:0px;word-spacing:0px;fill:#6f918a;fill-opacity:1;stroke:none;stroke-width:1px;stroke-linecap:butt;stroke-linejoin:miter;stroke-opacity:1"
       x="254.57916"
       y="725.05243"
       id="text9364"
       sodipodi:linespacing="125%"><tspan
         sodipodi:role="line"
         id="tspan9366"
         x="254.57916"
         y="725.05243"
         style="text-align:center;text-anchor:middle;fill:#6f918a">What the  are you writing?</tspan><tspan
         sodipodi:role="line"
         x="254.57916"
         y="745.36493"
         style="text-align:center;text-anchor:middle;fill:#6f918a"
         id="tspan9368">The &quot;flashing your  in</tspan><tspan
         sodipodi:role="line"
         x="254.57916"
         y="765.67743"
         style="text-align:center;text-anchor:middle;fill:#6f918a"
         id="tspan6078">public&quot; guide alone would</tspan><tspan
         sodipodi:role="line"
         x="254.57916"
         y="785.98993"
         style="text-align:center;text-anchor:middle;fill:#6f918a"
         id="tspan9372">screw our reputation.</tspan></text>
    <path
       style="fill:none;fill-rule:evenodd;stroke:#93aca7;stroke-width:1px;stroke-linecap:butt;stroke-linejoin:miter;stroke-opacity:1"
       d="m 94.954339,749.3164 c 57.066681,72.90252 89.562011,66.13097 108.005101,46.4061"
       id="path9374"
       inkscape:connector-curvature="0"
       sodipodi:nodetypes="cc" />
    <text
       xml:space="preserve"
       style="font-style:normal;font-weight:normal;font-size:16.25px;line-height:125%;font-family:Sans;text-align:center;letter-spacing:0px;word-spacing:0px;text-anchor:middle;fill:#ac9d93;fill-opacity:1;stroke:none;stroke-width:1px;stroke-linecap:butt;stroke-linejoin:miter;stroke-opacity:1;"
       x="561.21594"
       y="702.00165"
       id="text9376"
       sodipodi:linespacing="125%"><tspan
         sodipodi:role="line"
         id="tspan9378"
         x="561.21594"
         y="702.00165"
         style="text-align:center;text-anchor:middle;fill:#ac9d93;">Ah, now we see the censorship</tspan><tspan
         sodipodi:role="line"
         x="561.21594"
         y="722.31415"
         style="text-align:center;text-anchor:middle;fill:#ac9d93;"
         id="tspan9380">inherent in the system!</tspan><tspan
         sodipodi:role="line"
         x="561.21594"
         y="742.62665"
         style="text-align:center;text-anchor:middle;fill:#ac9d93;"
         id="tspan9401">I knew it'll happen, took</tspan><tspan
         sodipodi:role="line"
         x="561.21594"
         y="762.93915"
         style="text-align:center;text-anchor:middle;fill:#ac9d93;"
         id="tspan9403">5 deep web visitors to</tspan><tspan
         sodipodi:role="line"
         x="561.21594"
         y="783.25165"
         style="text-align:center;text-anchor:middle;fill:#ac9d93;"
         id="tspan9405">go mainstream.</tspan></text>
    <path
       style="fill:none;fill-rule:evenodd;stroke:#ac9d93;stroke-width:1px;stroke-linecap:butt;stroke-linejoin:miter;stroke-opacity:1"
       d="m 663.03572,831.4693 c -81.61461,18.9479 -73.66351,-12.80968 -104.82144,-37.5"
       id="path9407"
       inkscape:connector-curvature="0"
       sodipodi:nodetypes="cc" />
    <g
       transform="translate(417.32657,-398.81861)"
       id="layer1-1"
       inkscape:label="Layer 1">
      <rect
         transform="matrix(0.96853704,-0.24886945,0.24886945,0.96853704,0,0)"
         style="opacity:1;fill:#f8f7de;fill-opacity:1;stroke:#000000;stroke-width:1;stroke-linecap:round;stroke-linejoin:round;stroke-miterlimit:4;stroke-dasharray:none;stroke-dashoffset:0;stroke-opacity:1"
         id="rect7103"
         width="173"
         height="248"
         x="-151.23416"
         y="712.57288"
         ry="0" />
      <rect
         ry="0"
         y="711.13354"
         x="-148.79935"
         height="248"
         width="173"
         id="rect7101"
         style="opacity:1;fill:#f8f7de;fill-opacity:1;stroke:#000000;stroke-width:1;stroke-linecap:round;stroke-linejoin:round;stroke-miterlimit:4;stroke-dasharray:none;stroke-dashoffset:0;stroke-opacity:1"
         transform="matrix(0.96853704,-0.24886945,0.24886945,0.96853704,0,0)" />
      <rect
         transform="matrix(0.97286699,0.23136513,-0.23136513,0.97286699,0,0)"
         style="opacity:1;fill:#f8f7de;fill-opacity:1;stroke:#000000;stroke-width:1;stroke-linecap:round;stroke-linejoin:round;stroke-miterlimit:4;stroke-dasharray:none;stroke-dashoffset:0;stroke-opacity:1"
         id="rect7099"
         width="173"
         height="248"
         x="350.89789"
         y="615.22095"
         ry="0" />
      <rect
         ry="0"
         y="613.73792"
         x="348.48941"
         height="248"
         width="173"
         id="rect7097"
         style="opacity:1;fill:#f8f7de;fill-opacity:1;stroke:#000000;stroke-width:1;stroke-linecap:round;stroke-linejoin:round;stroke-miterlimit:4;stroke-dasharray:none;stroke-dashoffset:0;stroke-opacity:1"
         transform="matrix(0.97286699,0.23136513,-0.23136513,0.97286699,0,0)" />
      <rect
         transform="matrix(0.97286699,0.23136513,-0.23136513,0.97286699,0,0)"
         style="opacity:1;fill:#f8f7de;fill-opacity:1;stroke:#000000;stroke-width:1;stroke-linecap:round;stroke-linejoin:round;stroke-miterlimit:4;stroke-dasharray:none;stroke-dashoffset:0;stroke-opacity:1"
         id="rect7051"
         width="173"
         height="248"
         x="346.08093"
         y="612.25488"
         ry="0" />
      <text
         transform="matrix(0.97286699,0.23136513,-0.23136513,0.97286699,0,0)"
         xml:space="preserve"
         style="font-style:normal;font-weight:normal;font-size:16.25px;line-height:125%;font-family:Sans;text-align:center;letter-spacing:0px;word-spacing:0px;text-anchor:middle;fill:#000000;fill-opacity:1;stroke:none;stroke-width:1px;stroke-linecap:butt;stroke-linejoin:miter;stroke-opacity:1"
         x="430.72943"
         y="649.25488"
         id="text7053"
         sodipodi:linespacing="125%"><tspan
           id="tspan5068"
           sodipodi:role="line"
           x="430.72943"
           y="649.25488">Double decker:</tspan><tspan
           id="tspan5950"
           sodipodi:role="line"
           x="430.72943"
           y="669.56738">taking it to the next</tspan><tspan
           id="tspan5952"
           sodipodi:role="line"
           x="430.72943"
           y="689.87988">level</tspan></text>
      <rect
         transform="matrix(0.96853704,-0.24886945,0.24886945,0.96853704,0,0)"
         style="opacity:1;fill:#f8f7de;fill-opacity:1;stroke:#000000;stroke-width:1;stroke-linecap:round;stroke-linejoin:round;stroke-miterlimit:4;stroke-dasharray:none;stroke-dashoffset:0;stroke-opacity:1"
         id="rect7074"
         width="173"
         height="248"
         x="-146.36453"
         y="709.69421"
         ry="0" />
      <rect
         ry="0"
         y="764.36218"
         x="110"
         height="248"
         width="173"
         id="rect7107"
         style="opacity:1;fill:#f8f7de;fill-opacity:1;stroke:#000000;stroke-width:1;stroke-linecap:round;stroke-linejoin:round;stroke-miterlimit:4;stroke-dasharray:none;stroke-dashoffset:0;stroke-opacity:1" />
      <text
         transform="matrix(0.96853704,-0.24886945,0.24886945,0.96853704,0,0)"
         xml:space="preserve"
         style="font-style:normal;font-weight:normal;font-size:16.25px;line-height:125%;font-family:Sans;text-align:center;letter-spacing:0px;word-spacing:0px;text-anchor:middle;fill:#000000;fill-opacity:1;stroke:none;stroke-width:1px;stroke-linecap:butt;stroke-linejoin:miter;stroke-opacity:1"
         x="-60.34631"
         y="747.04614"
         id="text7076"
         sodipodi:linespacing="125%"><tspan
           id="tspan7095"
           sodipodi:role="line"
           x="-60.34631"
           y="747.04614">Human corpses:</tspan><tspan
           id="tspan5072"
           sodipodi:role="line"
           x="-60.34631"
           y="767.35864">to eat or to ?</tspan></text>
      <rect
         style="opacity:1;fill:#f8f7de;fill-opacity:1;stroke:#000000;stroke-width:1;stroke-linecap:round;stroke-linejoin:round;stroke-miterlimit:4;stroke-dasharray:none;stroke-dashoffset:0;stroke-opacity:1"
         id="rect7105"
         width="173"
         height="248"
         x="112"
         y="762.36218"
         ry="0" />
      <rect
         ry="0"
         y="760.36218"
         x="114"
         height="248"
         width="173"
         id="rect7035"
         style="opacity:1;fill:#f8f7de;fill-opacity:1;stroke:#000000;stroke-width:1;stroke-linecap:round;stroke-linejoin:round;stroke-miterlimit:4;stroke-dasharray:none;stroke-dashoffset:0;stroke-opacity:1" />
      <text
         sodipodi:linespacing="125%"
         id="text7037"
         y="797.36218"
         x="200.6485"
         style="font-style:normal;font-weight:normal;font-size:16.25px;line-height:125%;font-family:Sans;text-align:center;letter-spacing:0px;word-spacing:0px;text-anchor:middle;fill:#000000;fill-opacity:1;stroke:none;stroke-width:1px;stroke-linecap:butt;stroke-linejoin:miter;stroke-opacity:1"
         xml:space="preserve"><tspan
           y="797.36218"
           x="200.6485"
           id="tspan7039"
           sodipodi:role="line">The Secret Reason</tspan><tspan
           id="tspan7041"
           y="817.67468"
           x="200.6485"
           sodipodi:role="line">We Browse Web</tspan><tspan
           id="tspan7047"
           y="837.98718"
           x="200.6485"
           sodipodi:role="line" /><tspan
           id="tspan7049"
           y="858.29968"
           x="200.6485"
           sodipodi:role="line">by Dr. Ziggy Fraud</tspan></text>
    </g>
  </g>
</svg>
